%TF.GenerationSoftware,KiCad,Pcbnew,(7.0.0)*%
%TF.CreationDate,2023-04-21T02:07:05-06:00*%
%TF.ProjectId,Phase_B_ATMEGA_v3,50686173-655f-4425-9f41-544d4547415f,rev?*%
%TF.SameCoordinates,Original*%
%TF.FileFunction,Drillmap*%
%TF.FilePolarity,Positive*%
%FSLAX45Y45*%
G04 Gerber Fmt 4.5, Leading zero omitted, Abs format (unit mm)*
G04 Created by KiCad (PCBNEW (7.0.0)) date 2023-04-21 02:07:05*
%MOMM*%
%LPD*%
G01*
G04 APERTURE LIST*
%ADD10C,0.100000*%
%ADD11C,0.200000*%
%ADD12C,0.400000*%
G04 APERTURE END LIST*
D10*
X5607500Y-4980000D02*
X14607500Y-4980000D01*
X14607500Y-4980000D02*
X14607500Y-9480000D01*
X14607500Y-9480000D02*
X5607500Y-9480000D01*
X5607500Y-9480000D02*
X5607500Y-4980000D01*
D11*
D10*
X5965000Y-7210000D02*
X6065000Y-7310000D01*
X6065000Y-7210000D02*
X5965000Y-7310000D01*
X5965000Y-7650000D02*
X6065000Y-7750000D01*
X6065000Y-7650000D02*
X5965000Y-7750000D01*
D12*
X6257500Y-5430000D02*
G75*
G03*
X6257500Y-5430000I-200000J0D01*
G01*
X6257500Y-9030000D02*
G75*
G03*
X6257500Y-9030000I-200000J0D01*
G01*
X14307500Y-5480000D02*
G75*
G03*
X14307500Y-5480000I-200000J0D01*
G01*
X14307500Y-9030000D02*
G75*
G03*
X14307500Y-9030000I-200000J0D01*
G01*
D11*
X5850119Y-9778476D02*
X5850119Y-9578476D01*
X5850119Y-9578476D02*
X5897738Y-9578476D01*
X5897738Y-9578476D02*
X5926309Y-9588000D01*
X5926309Y-9588000D02*
X5945357Y-9607048D01*
X5945357Y-9607048D02*
X5954881Y-9626095D01*
X5954881Y-9626095D02*
X5964405Y-9664190D01*
X5964405Y-9664190D02*
X5964405Y-9692762D01*
X5964405Y-9692762D02*
X5954881Y-9730857D01*
X5954881Y-9730857D02*
X5945357Y-9749905D01*
X5945357Y-9749905D02*
X5926309Y-9768952D01*
X5926309Y-9768952D02*
X5897738Y-9778476D01*
X5897738Y-9778476D02*
X5850119Y-9778476D01*
X6050119Y-9778476D02*
X6050119Y-9645143D01*
X6050119Y-9683238D02*
X6059643Y-9664190D01*
X6059643Y-9664190D02*
X6069167Y-9654667D01*
X6069167Y-9654667D02*
X6088214Y-9645143D01*
X6088214Y-9645143D02*
X6107262Y-9645143D01*
X6173928Y-9778476D02*
X6173928Y-9645143D01*
X6173928Y-9578476D02*
X6164405Y-9588000D01*
X6164405Y-9588000D02*
X6173928Y-9597524D01*
X6173928Y-9597524D02*
X6183452Y-9588000D01*
X6183452Y-9588000D02*
X6173928Y-9578476D01*
X6173928Y-9578476D02*
X6173928Y-9597524D01*
X6297738Y-9778476D02*
X6278690Y-9768952D01*
X6278690Y-9768952D02*
X6269167Y-9749905D01*
X6269167Y-9749905D02*
X6269167Y-9578476D01*
X6402500Y-9778476D02*
X6383452Y-9768952D01*
X6383452Y-9768952D02*
X6373928Y-9749905D01*
X6373928Y-9749905D02*
X6373928Y-9578476D01*
X6598690Y-9778476D02*
X6598690Y-9578476D01*
X6598690Y-9578476D02*
X6665357Y-9721333D01*
X6665357Y-9721333D02*
X6732024Y-9578476D01*
X6732024Y-9578476D02*
X6732024Y-9778476D01*
X6912976Y-9778476D02*
X6912976Y-9673714D01*
X6912976Y-9673714D02*
X6903452Y-9654667D01*
X6903452Y-9654667D02*
X6884405Y-9645143D01*
X6884405Y-9645143D02*
X6846309Y-9645143D01*
X6846309Y-9645143D02*
X6827262Y-9654667D01*
X6912976Y-9768952D02*
X6893928Y-9778476D01*
X6893928Y-9778476D02*
X6846309Y-9778476D01*
X6846309Y-9778476D02*
X6827262Y-9768952D01*
X6827262Y-9768952D02*
X6817738Y-9749905D01*
X6817738Y-9749905D02*
X6817738Y-9730857D01*
X6817738Y-9730857D02*
X6827262Y-9711810D01*
X6827262Y-9711810D02*
X6846309Y-9702286D01*
X6846309Y-9702286D02*
X6893928Y-9702286D01*
X6893928Y-9702286D02*
X6912976Y-9692762D01*
X7008214Y-9645143D02*
X7008214Y-9845143D01*
X7008214Y-9654667D02*
X7027262Y-9645143D01*
X7027262Y-9645143D02*
X7065357Y-9645143D01*
X7065357Y-9645143D02*
X7084405Y-9654667D01*
X7084405Y-9654667D02*
X7093928Y-9664190D01*
X7093928Y-9664190D02*
X7103452Y-9683238D01*
X7103452Y-9683238D02*
X7103452Y-9740381D01*
X7103452Y-9740381D02*
X7093928Y-9759429D01*
X7093928Y-9759429D02*
X7084405Y-9768952D01*
X7084405Y-9768952D02*
X7065357Y-9778476D01*
X7065357Y-9778476D02*
X7027262Y-9778476D01*
X7027262Y-9778476D02*
X7008214Y-9768952D01*
X7189167Y-9759429D02*
X7198690Y-9768952D01*
X7198690Y-9768952D02*
X7189167Y-9778476D01*
X7189167Y-9778476D02*
X7179643Y-9768952D01*
X7179643Y-9768952D02*
X7189167Y-9759429D01*
X7189167Y-9759429D02*
X7189167Y-9778476D01*
X7189167Y-9654667D02*
X7198690Y-9664190D01*
X7198690Y-9664190D02*
X7189167Y-9673714D01*
X7189167Y-9673714D02*
X7179643Y-9664190D01*
X7179643Y-9664190D02*
X7189167Y-9654667D01*
X7189167Y-9654667D02*
X7189167Y-9673714D01*
D10*
X5502500Y-10075000D02*
X5602500Y-10175000D01*
X5602500Y-10075000D02*
X5502500Y-10175000D01*
D11*
X5954881Y-10198476D02*
X5840595Y-10198476D01*
X5897738Y-10198476D02*
X5897738Y-9998476D01*
X5897738Y-9998476D02*
X5878690Y-10027048D01*
X5878690Y-10027048D02*
X5859643Y-10046095D01*
X5859643Y-10046095D02*
X5840595Y-10055619D01*
X6040595Y-10179429D02*
X6050119Y-10188952D01*
X6050119Y-10188952D02*
X6040595Y-10198476D01*
X6040595Y-10198476D02*
X6031071Y-10188952D01*
X6031071Y-10188952D02*
X6040595Y-10179429D01*
X6040595Y-10179429D02*
X6040595Y-10198476D01*
X6173928Y-9998476D02*
X6192976Y-9998476D01*
X6192976Y-9998476D02*
X6212024Y-10008000D01*
X6212024Y-10008000D02*
X6221548Y-10017524D01*
X6221548Y-10017524D02*
X6231071Y-10036571D01*
X6231071Y-10036571D02*
X6240595Y-10074667D01*
X6240595Y-10074667D02*
X6240595Y-10122286D01*
X6240595Y-10122286D02*
X6231071Y-10160381D01*
X6231071Y-10160381D02*
X6221548Y-10179429D01*
X6221548Y-10179429D02*
X6212024Y-10188952D01*
X6212024Y-10188952D02*
X6192976Y-10198476D01*
X6192976Y-10198476D02*
X6173928Y-10198476D01*
X6173928Y-10198476D02*
X6154881Y-10188952D01*
X6154881Y-10188952D02*
X6145357Y-10179429D01*
X6145357Y-10179429D02*
X6135833Y-10160381D01*
X6135833Y-10160381D02*
X6126309Y-10122286D01*
X6126309Y-10122286D02*
X6126309Y-10074667D01*
X6126309Y-10074667D02*
X6135833Y-10036571D01*
X6135833Y-10036571D02*
X6145357Y-10017524D01*
X6145357Y-10017524D02*
X6154881Y-10008000D01*
X6154881Y-10008000D02*
X6173928Y-9998476D01*
X6364405Y-9998476D02*
X6383452Y-9998476D01*
X6383452Y-9998476D02*
X6402500Y-10008000D01*
X6402500Y-10008000D02*
X6412024Y-10017524D01*
X6412024Y-10017524D02*
X6421548Y-10036571D01*
X6421548Y-10036571D02*
X6431071Y-10074667D01*
X6431071Y-10074667D02*
X6431071Y-10122286D01*
X6431071Y-10122286D02*
X6421548Y-10160381D01*
X6421548Y-10160381D02*
X6412024Y-10179429D01*
X6412024Y-10179429D02*
X6402500Y-10188952D01*
X6402500Y-10188952D02*
X6383452Y-10198476D01*
X6383452Y-10198476D02*
X6364405Y-10198476D01*
X6364405Y-10198476D02*
X6345357Y-10188952D01*
X6345357Y-10188952D02*
X6335833Y-10179429D01*
X6335833Y-10179429D02*
X6326309Y-10160381D01*
X6326309Y-10160381D02*
X6316786Y-10122286D01*
X6316786Y-10122286D02*
X6316786Y-10074667D01*
X6316786Y-10074667D02*
X6326309Y-10036571D01*
X6326309Y-10036571D02*
X6335833Y-10017524D01*
X6335833Y-10017524D02*
X6345357Y-10008000D01*
X6345357Y-10008000D02*
X6364405Y-9998476D01*
X6554881Y-9998476D02*
X6573929Y-9998476D01*
X6573929Y-9998476D02*
X6592976Y-10008000D01*
X6592976Y-10008000D02*
X6602500Y-10017524D01*
X6602500Y-10017524D02*
X6612024Y-10036571D01*
X6612024Y-10036571D02*
X6621548Y-10074667D01*
X6621548Y-10074667D02*
X6621548Y-10122286D01*
X6621548Y-10122286D02*
X6612024Y-10160381D01*
X6612024Y-10160381D02*
X6602500Y-10179429D01*
X6602500Y-10179429D02*
X6592976Y-10188952D01*
X6592976Y-10188952D02*
X6573929Y-10198476D01*
X6573929Y-10198476D02*
X6554881Y-10198476D01*
X6554881Y-10198476D02*
X6535833Y-10188952D01*
X6535833Y-10188952D02*
X6526309Y-10179429D01*
X6526309Y-10179429D02*
X6516786Y-10160381D01*
X6516786Y-10160381D02*
X6507262Y-10122286D01*
X6507262Y-10122286D02*
X6507262Y-10074667D01*
X6507262Y-10074667D02*
X6516786Y-10036571D01*
X6516786Y-10036571D02*
X6526309Y-10017524D01*
X6526309Y-10017524D02*
X6535833Y-10008000D01*
X6535833Y-10008000D02*
X6554881Y-9998476D01*
X6707262Y-10198476D02*
X6707262Y-10065143D01*
X6707262Y-10084190D02*
X6716786Y-10074667D01*
X6716786Y-10074667D02*
X6735833Y-10065143D01*
X6735833Y-10065143D02*
X6764405Y-10065143D01*
X6764405Y-10065143D02*
X6783452Y-10074667D01*
X6783452Y-10074667D02*
X6792976Y-10093714D01*
X6792976Y-10093714D02*
X6792976Y-10198476D01*
X6792976Y-10093714D02*
X6802500Y-10074667D01*
X6802500Y-10074667D02*
X6821548Y-10065143D01*
X6821548Y-10065143D02*
X6850119Y-10065143D01*
X6850119Y-10065143D02*
X6869167Y-10074667D01*
X6869167Y-10074667D02*
X6878690Y-10093714D01*
X6878690Y-10093714D02*
X6878690Y-10198476D01*
X6973929Y-10198476D02*
X6973929Y-10065143D01*
X6973929Y-10084190D02*
X6983452Y-10074667D01*
X6983452Y-10074667D02*
X7002500Y-10065143D01*
X7002500Y-10065143D02*
X7031071Y-10065143D01*
X7031071Y-10065143D02*
X7050119Y-10074667D01*
X7050119Y-10074667D02*
X7059643Y-10093714D01*
X7059643Y-10093714D02*
X7059643Y-10198476D01*
X7059643Y-10093714D02*
X7069167Y-10074667D01*
X7069167Y-10074667D02*
X7088214Y-10065143D01*
X7088214Y-10065143D02*
X7116786Y-10065143D01*
X7116786Y-10065143D02*
X7135833Y-10074667D01*
X7135833Y-10074667D02*
X7145357Y-10093714D01*
X7145357Y-10093714D02*
X7145357Y-10198476D01*
X7503452Y-9988952D02*
X7332024Y-10246095D01*
X7728214Y-9998476D02*
X7747262Y-9998476D01*
X7747262Y-9998476D02*
X7766310Y-10008000D01*
X7766310Y-10008000D02*
X7775833Y-10017524D01*
X7775833Y-10017524D02*
X7785357Y-10036571D01*
X7785357Y-10036571D02*
X7794881Y-10074667D01*
X7794881Y-10074667D02*
X7794881Y-10122286D01*
X7794881Y-10122286D02*
X7785357Y-10160381D01*
X7785357Y-10160381D02*
X7775833Y-10179429D01*
X7775833Y-10179429D02*
X7766310Y-10188952D01*
X7766310Y-10188952D02*
X7747262Y-10198476D01*
X7747262Y-10198476D02*
X7728214Y-10198476D01*
X7728214Y-10198476D02*
X7709167Y-10188952D01*
X7709167Y-10188952D02*
X7699643Y-10179429D01*
X7699643Y-10179429D02*
X7690119Y-10160381D01*
X7690119Y-10160381D02*
X7680595Y-10122286D01*
X7680595Y-10122286D02*
X7680595Y-10074667D01*
X7680595Y-10074667D02*
X7690119Y-10036571D01*
X7690119Y-10036571D02*
X7699643Y-10017524D01*
X7699643Y-10017524D02*
X7709167Y-10008000D01*
X7709167Y-10008000D02*
X7728214Y-9998476D01*
X7880595Y-10179429D02*
X7890119Y-10188952D01*
X7890119Y-10188952D02*
X7880595Y-10198476D01*
X7880595Y-10198476D02*
X7871071Y-10188952D01*
X7871071Y-10188952D02*
X7880595Y-10179429D01*
X7880595Y-10179429D02*
X7880595Y-10198476D01*
X8013929Y-9998476D02*
X8032976Y-9998476D01*
X8032976Y-9998476D02*
X8052024Y-10008000D01*
X8052024Y-10008000D02*
X8061548Y-10017524D01*
X8061548Y-10017524D02*
X8071071Y-10036571D01*
X8071071Y-10036571D02*
X8080595Y-10074667D01*
X8080595Y-10074667D02*
X8080595Y-10122286D01*
X8080595Y-10122286D02*
X8071071Y-10160381D01*
X8071071Y-10160381D02*
X8061548Y-10179429D01*
X8061548Y-10179429D02*
X8052024Y-10188952D01*
X8052024Y-10188952D02*
X8032976Y-10198476D01*
X8032976Y-10198476D02*
X8013929Y-10198476D01*
X8013929Y-10198476D02*
X7994881Y-10188952D01*
X7994881Y-10188952D02*
X7985357Y-10179429D01*
X7985357Y-10179429D02*
X7975833Y-10160381D01*
X7975833Y-10160381D02*
X7966310Y-10122286D01*
X7966310Y-10122286D02*
X7966310Y-10074667D01*
X7966310Y-10074667D02*
X7975833Y-10036571D01*
X7975833Y-10036571D02*
X7985357Y-10017524D01*
X7985357Y-10017524D02*
X7994881Y-10008000D01*
X7994881Y-10008000D02*
X8013929Y-9998476D01*
X8147262Y-9998476D02*
X8271071Y-9998476D01*
X8271071Y-9998476D02*
X8204405Y-10074667D01*
X8204405Y-10074667D02*
X8232976Y-10074667D01*
X8232976Y-10074667D02*
X8252024Y-10084190D01*
X8252024Y-10084190D02*
X8261548Y-10093714D01*
X8261548Y-10093714D02*
X8271071Y-10112762D01*
X8271071Y-10112762D02*
X8271071Y-10160381D01*
X8271071Y-10160381D02*
X8261548Y-10179429D01*
X8261548Y-10179429D02*
X8252024Y-10188952D01*
X8252024Y-10188952D02*
X8232976Y-10198476D01*
X8232976Y-10198476D02*
X8175833Y-10198476D01*
X8175833Y-10198476D02*
X8156786Y-10188952D01*
X8156786Y-10188952D02*
X8147262Y-10179429D01*
X8366310Y-10198476D02*
X8404405Y-10198476D01*
X8404405Y-10198476D02*
X8423453Y-10188952D01*
X8423453Y-10188952D02*
X8432976Y-10179429D01*
X8432976Y-10179429D02*
X8452024Y-10150857D01*
X8452024Y-10150857D02*
X8461548Y-10112762D01*
X8461548Y-10112762D02*
X8461548Y-10036571D01*
X8461548Y-10036571D02*
X8452024Y-10017524D01*
X8452024Y-10017524D02*
X8442500Y-10008000D01*
X8442500Y-10008000D02*
X8423453Y-9998476D01*
X8423453Y-9998476D02*
X8385357Y-9998476D01*
X8385357Y-9998476D02*
X8366310Y-10008000D01*
X8366310Y-10008000D02*
X8356786Y-10017524D01*
X8356786Y-10017524D02*
X8347262Y-10036571D01*
X8347262Y-10036571D02*
X8347262Y-10084190D01*
X8347262Y-10084190D02*
X8356786Y-10103238D01*
X8356786Y-10103238D02*
X8366310Y-10112762D01*
X8366310Y-10112762D02*
X8385357Y-10122286D01*
X8385357Y-10122286D02*
X8423453Y-10122286D01*
X8423453Y-10122286D02*
X8442500Y-10112762D01*
X8442500Y-10112762D02*
X8452024Y-10103238D01*
X8452024Y-10103238D02*
X8461548Y-10084190D01*
X8632976Y-10065143D02*
X8632976Y-10198476D01*
X8585357Y-9988952D02*
X8537738Y-10131810D01*
X8537738Y-10131810D02*
X8661548Y-10131810D01*
X8728214Y-9998476D02*
X8728214Y-10036571D01*
X8804405Y-9998476D02*
X8804405Y-10036571D01*
X9067262Y-10274667D02*
X9057738Y-10265143D01*
X9057738Y-10265143D02*
X9038691Y-10236571D01*
X9038691Y-10236571D02*
X9029167Y-10217524D01*
X9029167Y-10217524D02*
X9019643Y-10188952D01*
X9019643Y-10188952D02*
X9010119Y-10141333D01*
X9010119Y-10141333D02*
X9010119Y-10103238D01*
X9010119Y-10103238D02*
X9019643Y-10055619D01*
X9019643Y-10055619D02*
X9029167Y-10027048D01*
X9029167Y-10027048D02*
X9038691Y-10008000D01*
X9038691Y-10008000D02*
X9057738Y-9979429D01*
X9057738Y-9979429D02*
X9067262Y-9969905D01*
X9133929Y-10017524D02*
X9143453Y-10008000D01*
X9143453Y-10008000D02*
X9162500Y-9998476D01*
X9162500Y-9998476D02*
X9210119Y-9998476D01*
X9210119Y-9998476D02*
X9229167Y-10008000D01*
X9229167Y-10008000D02*
X9238691Y-10017524D01*
X9238691Y-10017524D02*
X9248214Y-10036571D01*
X9248214Y-10036571D02*
X9248214Y-10055619D01*
X9248214Y-10055619D02*
X9238691Y-10084190D01*
X9238691Y-10084190D02*
X9124405Y-10198476D01*
X9124405Y-10198476D02*
X9248214Y-10198476D01*
X9453929Y-10198476D02*
X9453929Y-9998476D01*
X9539643Y-10198476D02*
X9539643Y-10093714D01*
X9539643Y-10093714D02*
X9530119Y-10074667D01*
X9530119Y-10074667D02*
X9511072Y-10065143D01*
X9511072Y-10065143D02*
X9482500Y-10065143D01*
X9482500Y-10065143D02*
X9463453Y-10074667D01*
X9463453Y-10074667D02*
X9453929Y-10084190D01*
X9663453Y-10198476D02*
X9644405Y-10188952D01*
X9644405Y-10188952D02*
X9634881Y-10179429D01*
X9634881Y-10179429D02*
X9625357Y-10160381D01*
X9625357Y-10160381D02*
X9625357Y-10103238D01*
X9625357Y-10103238D02*
X9634881Y-10084190D01*
X9634881Y-10084190D02*
X9644405Y-10074667D01*
X9644405Y-10074667D02*
X9663453Y-10065143D01*
X9663453Y-10065143D02*
X9692024Y-10065143D01*
X9692024Y-10065143D02*
X9711072Y-10074667D01*
X9711072Y-10074667D02*
X9720595Y-10084190D01*
X9720595Y-10084190D02*
X9730119Y-10103238D01*
X9730119Y-10103238D02*
X9730119Y-10160381D01*
X9730119Y-10160381D02*
X9720595Y-10179429D01*
X9720595Y-10179429D02*
X9711072Y-10188952D01*
X9711072Y-10188952D02*
X9692024Y-10198476D01*
X9692024Y-10198476D02*
X9663453Y-10198476D01*
X9844405Y-10198476D02*
X9825357Y-10188952D01*
X9825357Y-10188952D02*
X9815834Y-10169905D01*
X9815834Y-10169905D02*
X9815834Y-9998476D01*
X9996786Y-10188952D02*
X9977738Y-10198476D01*
X9977738Y-10198476D02*
X9939643Y-10198476D01*
X9939643Y-10198476D02*
X9920595Y-10188952D01*
X9920595Y-10188952D02*
X9911072Y-10169905D01*
X9911072Y-10169905D02*
X9911072Y-10093714D01*
X9911072Y-10093714D02*
X9920595Y-10074667D01*
X9920595Y-10074667D02*
X9939643Y-10065143D01*
X9939643Y-10065143D02*
X9977738Y-10065143D01*
X9977738Y-10065143D02*
X9996786Y-10074667D01*
X9996786Y-10074667D02*
X10006310Y-10093714D01*
X10006310Y-10093714D02*
X10006310Y-10112762D01*
X10006310Y-10112762D02*
X9911072Y-10131810D01*
X10082500Y-10188952D02*
X10101548Y-10198476D01*
X10101548Y-10198476D02*
X10139643Y-10198476D01*
X10139643Y-10198476D02*
X10158691Y-10188952D01*
X10158691Y-10188952D02*
X10168215Y-10169905D01*
X10168215Y-10169905D02*
X10168215Y-10160381D01*
X10168215Y-10160381D02*
X10158691Y-10141333D01*
X10158691Y-10141333D02*
X10139643Y-10131810D01*
X10139643Y-10131810D02*
X10111072Y-10131810D01*
X10111072Y-10131810D02*
X10092024Y-10122286D01*
X10092024Y-10122286D02*
X10082500Y-10103238D01*
X10082500Y-10103238D02*
X10082500Y-10093714D01*
X10082500Y-10093714D02*
X10092024Y-10074667D01*
X10092024Y-10074667D02*
X10111072Y-10065143D01*
X10111072Y-10065143D02*
X10139643Y-10065143D01*
X10139643Y-10065143D02*
X10158691Y-10074667D01*
X10234881Y-10274667D02*
X10244405Y-10265143D01*
X10244405Y-10265143D02*
X10263453Y-10236571D01*
X10263453Y-10236571D02*
X10272976Y-10217524D01*
X10272976Y-10217524D02*
X10282500Y-10188952D01*
X10282500Y-10188952D02*
X10292024Y-10141333D01*
X10292024Y-10141333D02*
X10292024Y-10103238D01*
X10292024Y-10103238D02*
X10282500Y-10055619D01*
X10282500Y-10055619D02*
X10272976Y-10027048D01*
X10272976Y-10027048D02*
X10263453Y-10008000D01*
X10263453Y-10008000D02*
X10244405Y-9979429D01*
X10244405Y-9979429D02*
X10234881Y-9969905D01*
X10564405Y-10274667D02*
X10554881Y-10265143D01*
X10554881Y-10265143D02*
X10535834Y-10236571D01*
X10535834Y-10236571D02*
X10526310Y-10217524D01*
X10526310Y-10217524D02*
X10516786Y-10188952D01*
X10516786Y-10188952D02*
X10507262Y-10141333D01*
X10507262Y-10141333D02*
X10507262Y-10103238D01*
X10507262Y-10103238D02*
X10516786Y-10055619D01*
X10516786Y-10055619D02*
X10526310Y-10027048D01*
X10526310Y-10027048D02*
X10535834Y-10008000D01*
X10535834Y-10008000D02*
X10554881Y-9979429D01*
X10554881Y-9979429D02*
X10564405Y-9969905D01*
X10640595Y-10065143D02*
X10640595Y-10198476D01*
X10640595Y-10084190D02*
X10650119Y-10074667D01*
X10650119Y-10074667D02*
X10669167Y-10065143D01*
X10669167Y-10065143D02*
X10697738Y-10065143D01*
X10697738Y-10065143D02*
X10716786Y-10074667D01*
X10716786Y-10074667D02*
X10726310Y-10093714D01*
X10726310Y-10093714D02*
X10726310Y-10198476D01*
X10850119Y-10198476D02*
X10831072Y-10188952D01*
X10831072Y-10188952D02*
X10821548Y-10179429D01*
X10821548Y-10179429D02*
X10812024Y-10160381D01*
X10812024Y-10160381D02*
X10812024Y-10103238D01*
X10812024Y-10103238D02*
X10821548Y-10084190D01*
X10821548Y-10084190D02*
X10831072Y-10074667D01*
X10831072Y-10074667D02*
X10850119Y-10065143D01*
X10850119Y-10065143D02*
X10878691Y-10065143D01*
X10878691Y-10065143D02*
X10897738Y-10074667D01*
X10897738Y-10074667D02*
X10907262Y-10084190D01*
X10907262Y-10084190D02*
X10916786Y-10103238D01*
X10916786Y-10103238D02*
X10916786Y-10160381D01*
X10916786Y-10160381D02*
X10907262Y-10179429D01*
X10907262Y-10179429D02*
X10897738Y-10188952D01*
X10897738Y-10188952D02*
X10878691Y-10198476D01*
X10878691Y-10198476D02*
X10850119Y-10198476D01*
X10973929Y-10065143D02*
X11050119Y-10065143D01*
X11002500Y-9998476D02*
X11002500Y-10169905D01*
X11002500Y-10169905D02*
X11012024Y-10188952D01*
X11012024Y-10188952D02*
X11031072Y-10198476D01*
X11031072Y-10198476D02*
X11050119Y-10198476D01*
X11236786Y-10065143D02*
X11236786Y-10265143D01*
X11236786Y-10074667D02*
X11255833Y-10065143D01*
X11255833Y-10065143D02*
X11293929Y-10065143D01*
X11293929Y-10065143D02*
X11312976Y-10074667D01*
X11312976Y-10074667D02*
X11322500Y-10084190D01*
X11322500Y-10084190D02*
X11332024Y-10103238D01*
X11332024Y-10103238D02*
X11332024Y-10160381D01*
X11332024Y-10160381D02*
X11322500Y-10179429D01*
X11322500Y-10179429D02*
X11312976Y-10188952D01*
X11312976Y-10188952D02*
X11293929Y-10198476D01*
X11293929Y-10198476D02*
X11255833Y-10198476D01*
X11255833Y-10198476D02*
X11236786Y-10188952D01*
X11446310Y-10198476D02*
X11427262Y-10188952D01*
X11427262Y-10188952D02*
X11417738Y-10169905D01*
X11417738Y-10169905D02*
X11417738Y-9998476D01*
X11608214Y-10198476D02*
X11608214Y-10093714D01*
X11608214Y-10093714D02*
X11598691Y-10074667D01*
X11598691Y-10074667D02*
X11579643Y-10065143D01*
X11579643Y-10065143D02*
X11541548Y-10065143D01*
X11541548Y-10065143D02*
X11522500Y-10074667D01*
X11608214Y-10188952D02*
X11589167Y-10198476D01*
X11589167Y-10198476D02*
X11541548Y-10198476D01*
X11541548Y-10198476D02*
X11522500Y-10188952D01*
X11522500Y-10188952D02*
X11512976Y-10169905D01*
X11512976Y-10169905D02*
X11512976Y-10150857D01*
X11512976Y-10150857D02*
X11522500Y-10131810D01*
X11522500Y-10131810D02*
X11541548Y-10122286D01*
X11541548Y-10122286D02*
X11589167Y-10122286D01*
X11589167Y-10122286D02*
X11608214Y-10112762D01*
X11674881Y-10065143D02*
X11751072Y-10065143D01*
X11703453Y-9998476D02*
X11703453Y-10169905D01*
X11703453Y-10169905D02*
X11712976Y-10188952D01*
X11712976Y-10188952D02*
X11732024Y-10198476D01*
X11732024Y-10198476D02*
X11751072Y-10198476D01*
X11893929Y-10188952D02*
X11874881Y-10198476D01*
X11874881Y-10198476D02*
X11836786Y-10198476D01*
X11836786Y-10198476D02*
X11817738Y-10188952D01*
X11817738Y-10188952D02*
X11808214Y-10169905D01*
X11808214Y-10169905D02*
X11808214Y-10093714D01*
X11808214Y-10093714D02*
X11817738Y-10074667D01*
X11817738Y-10074667D02*
X11836786Y-10065143D01*
X11836786Y-10065143D02*
X11874881Y-10065143D01*
X11874881Y-10065143D02*
X11893929Y-10074667D01*
X11893929Y-10074667D02*
X11903453Y-10093714D01*
X11903453Y-10093714D02*
X11903453Y-10112762D01*
X11903453Y-10112762D02*
X11808214Y-10131810D01*
X12074881Y-10198476D02*
X12074881Y-9998476D01*
X12074881Y-10188952D02*
X12055834Y-10198476D01*
X12055834Y-10198476D02*
X12017738Y-10198476D01*
X12017738Y-10198476D02*
X11998691Y-10188952D01*
X11998691Y-10188952D02*
X11989167Y-10179429D01*
X11989167Y-10179429D02*
X11979643Y-10160381D01*
X11979643Y-10160381D02*
X11979643Y-10103238D01*
X11979643Y-10103238D02*
X11989167Y-10084190D01*
X11989167Y-10084190D02*
X11998691Y-10074667D01*
X11998691Y-10074667D02*
X12017738Y-10065143D01*
X12017738Y-10065143D02*
X12055834Y-10065143D01*
X12055834Y-10065143D02*
X12074881Y-10074667D01*
X12151072Y-10274667D02*
X12160595Y-10265143D01*
X12160595Y-10265143D02*
X12179643Y-10236571D01*
X12179643Y-10236571D02*
X12189167Y-10217524D01*
X12189167Y-10217524D02*
X12198691Y-10188952D01*
X12198691Y-10188952D02*
X12208214Y-10141333D01*
X12208214Y-10141333D02*
X12208214Y-10103238D01*
X12208214Y-10103238D02*
X12198691Y-10055619D01*
X12198691Y-10055619D02*
X12189167Y-10027048D01*
X12189167Y-10027048D02*
X12179643Y-10008000D01*
X12179643Y-10008000D02*
X12160595Y-9979429D01*
X12160595Y-9979429D02*
X12151072Y-9969905D01*
X5602500Y-10389000D02*
G75*
G03*
X5602500Y-10389000I-100000J0D01*
G01*
X5935833Y-10329143D02*
X5935833Y-10462476D01*
X5888214Y-10252952D02*
X5840595Y-10395810D01*
X5840595Y-10395810D02*
X5964405Y-10395810D01*
X6040595Y-10443429D02*
X6050119Y-10452952D01*
X6050119Y-10452952D02*
X6040595Y-10462476D01*
X6040595Y-10462476D02*
X6031071Y-10452952D01*
X6031071Y-10452952D02*
X6040595Y-10443429D01*
X6040595Y-10443429D02*
X6040595Y-10462476D01*
X6173928Y-10262476D02*
X6192976Y-10262476D01*
X6192976Y-10262476D02*
X6212024Y-10272000D01*
X6212024Y-10272000D02*
X6221548Y-10281524D01*
X6221548Y-10281524D02*
X6231071Y-10300571D01*
X6231071Y-10300571D02*
X6240595Y-10338667D01*
X6240595Y-10338667D02*
X6240595Y-10386286D01*
X6240595Y-10386286D02*
X6231071Y-10424381D01*
X6231071Y-10424381D02*
X6221548Y-10443429D01*
X6221548Y-10443429D02*
X6212024Y-10452952D01*
X6212024Y-10452952D02*
X6192976Y-10462476D01*
X6192976Y-10462476D02*
X6173928Y-10462476D01*
X6173928Y-10462476D02*
X6154881Y-10452952D01*
X6154881Y-10452952D02*
X6145357Y-10443429D01*
X6145357Y-10443429D02*
X6135833Y-10424381D01*
X6135833Y-10424381D02*
X6126309Y-10386286D01*
X6126309Y-10386286D02*
X6126309Y-10338667D01*
X6126309Y-10338667D02*
X6135833Y-10300571D01*
X6135833Y-10300571D02*
X6145357Y-10281524D01*
X6145357Y-10281524D02*
X6154881Y-10272000D01*
X6154881Y-10272000D02*
X6173928Y-10262476D01*
X6364405Y-10262476D02*
X6383452Y-10262476D01*
X6383452Y-10262476D02*
X6402500Y-10272000D01*
X6402500Y-10272000D02*
X6412024Y-10281524D01*
X6412024Y-10281524D02*
X6421548Y-10300571D01*
X6421548Y-10300571D02*
X6431071Y-10338667D01*
X6431071Y-10338667D02*
X6431071Y-10386286D01*
X6431071Y-10386286D02*
X6421548Y-10424381D01*
X6421548Y-10424381D02*
X6412024Y-10443429D01*
X6412024Y-10443429D02*
X6402500Y-10452952D01*
X6402500Y-10452952D02*
X6383452Y-10462476D01*
X6383452Y-10462476D02*
X6364405Y-10462476D01*
X6364405Y-10462476D02*
X6345357Y-10452952D01*
X6345357Y-10452952D02*
X6335833Y-10443429D01*
X6335833Y-10443429D02*
X6326309Y-10424381D01*
X6326309Y-10424381D02*
X6316786Y-10386286D01*
X6316786Y-10386286D02*
X6316786Y-10338667D01*
X6316786Y-10338667D02*
X6326309Y-10300571D01*
X6326309Y-10300571D02*
X6335833Y-10281524D01*
X6335833Y-10281524D02*
X6345357Y-10272000D01*
X6345357Y-10272000D02*
X6364405Y-10262476D01*
X6554881Y-10262476D02*
X6573929Y-10262476D01*
X6573929Y-10262476D02*
X6592976Y-10272000D01*
X6592976Y-10272000D02*
X6602500Y-10281524D01*
X6602500Y-10281524D02*
X6612024Y-10300571D01*
X6612024Y-10300571D02*
X6621548Y-10338667D01*
X6621548Y-10338667D02*
X6621548Y-10386286D01*
X6621548Y-10386286D02*
X6612024Y-10424381D01*
X6612024Y-10424381D02*
X6602500Y-10443429D01*
X6602500Y-10443429D02*
X6592976Y-10452952D01*
X6592976Y-10452952D02*
X6573929Y-10462476D01*
X6573929Y-10462476D02*
X6554881Y-10462476D01*
X6554881Y-10462476D02*
X6535833Y-10452952D01*
X6535833Y-10452952D02*
X6526309Y-10443429D01*
X6526309Y-10443429D02*
X6516786Y-10424381D01*
X6516786Y-10424381D02*
X6507262Y-10386286D01*
X6507262Y-10386286D02*
X6507262Y-10338667D01*
X6507262Y-10338667D02*
X6516786Y-10300571D01*
X6516786Y-10300571D02*
X6526309Y-10281524D01*
X6526309Y-10281524D02*
X6535833Y-10272000D01*
X6535833Y-10272000D02*
X6554881Y-10262476D01*
X6707262Y-10462476D02*
X6707262Y-10329143D01*
X6707262Y-10348190D02*
X6716786Y-10338667D01*
X6716786Y-10338667D02*
X6735833Y-10329143D01*
X6735833Y-10329143D02*
X6764405Y-10329143D01*
X6764405Y-10329143D02*
X6783452Y-10338667D01*
X6783452Y-10338667D02*
X6792976Y-10357714D01*
X6792976Y-10357714D02*
X6792976Y-10462476D01*
X6792976Y-10357714D02*
X6802500Y-10338667D01*
X6802500Y-10338667D02*
X6821548Y-10329143D01*
X6821548Y-10329143D02*
X6850119Y-10329143D01*
X6850119Y-10329143D02*
X6869167Y-10338667D01*
X6869167Y-10338667D02*
X6878690Y-10357714D01*
X6878690Y-10357714D02*
X6878690Y-10462476D01*
X6973929Y-10462476D02*
X6973929Y-10329143D01*
X6973929Y-10348190D02*
X6983452Y-10338667D01*
X6983452Y-10338667D02*
X7002500Y-10329143D01*
X7002500Y-10329143D02*
X7031071Y-10329143D01*
X7031071Y-10329143D02*
X7050119Y-10338667D01*
X7050119Y-10338667D02*
X7059643Y-10357714D01*
X7059643Y-10357714D02*
X7059643Y-10462476D01*
X7059643Y-10357714D02*
X7069167Y-10338667D01*
X7069167Y-10338667D02*
X7088214Y-10329143D01*
X7088214Y-10329143D02*
X7116786Y-10329143D01*
X7116786Y-10329143D02*
X7135833Y-10338667D01*
X7135833Y-10338667D02*
X7145357Y-10357714D01*
X7145357Y-10357714D02*
X7145357Y-10462476D01*
X7503452Y-10252952D02*
X7332024Y-10510095D01*
X7728214Y-10262476D02*
X7747262Y-10262476D01*
X7747262Y-10262476D02*
X7766310Y-10272000D01*
X7766310Y-10272000D02*
X7775833Y-10281524D01*
X7775833Y-10281524D02*
X7785357Y-10300571D01*
X7785357Y-10300571D02*
X7794881Y-10338667D01*
X7794881Y-10338667D02*
X7794881Y-10386286D01*
X7794881Y-10386286D02*
X7785357Y-10424381D01*
X7785357Y-10424381D02*
X7775833Y-10443429D01*
X7775833Y-10443429D02*
X7766310Y-10452952D01*
X7766310Y-10452952D02*
X7747262Y-10462476D01*
X7747262Y-10462476D02*
X7728214Y-10462476D01*
X7728214Y-10462476D02*
X7709167Y-10452952D01*
X7709167Y-10452952D02*
X7699643Y-10443429D01*
X7699643Y-10443429D02*
X7690119Y-10424381D01*
X7690119Y-10424381D02*
X7680595Y-10386286D01*
X7680595Y-10386286D02*
X7680595Y-10338667D01*
X7680595Y-10338667D02*
X7690119Y-10300571D01*
X7690119Y-10300571D02*
X7699643Y-10281524D01*
X7699643Y-10281524D02*
X7709167Y-10272000D01*
X7709167Y-10272000D02*
X7728214Y-10262476D01*
X7880595Y-10443429D02*
X7890119Y-10452952D01*
X7890119Y-10452952D02*
X7880595Y-10462476D01*
X7880595Y-10462476D02*
X7871071Y-10452952D01*
X7871071Y-10452952D02*
X7880595Y-10443429D01*
X7880595Y-10443429D02*
X7880595Y-10462476D01*
X8080595Y-10462476D02*
X7966310Y-10462476D01*
X8023452Y-10462476D02*
X8023452Y-10262476D01*
X8023452Y-10262476D02*
X8004405Y-10291048D01*
X8004405Y-10291048D02*
X7985357Y-10310095D01*
X7985357Y-10310095D02*
X7966310Y-10319619D01*
X8261548Y-10262476D02*
X8166310Y-10262476D01*
X8166310Y-10262476D02*
X8156786Y-10357714D01*
X8156786Y-10357714D02*
X8166310Y-10348190D01*
X8166310Y-10348190D02*
X8185357Y-10338667D01*
X8185357Y-10338667D02*
X8232976Y-10338667D01*
X8232976Y-10338667D02*
X8252024Y-10348190D01*
X8252024Y-10348190D02*
X8261548Y-10357714D01*
X8261548Y-10357714D02*
X8271071Y-10376762D01*
X8271071Y-10376762D02*
X8271071Y-10424381D01*
X8271071Y-10424381D02*
X8261548Y-10443429D01*
X8261548Y-10443429D02*
X8252024Y-10452952D01*
X8252024Y-10452952D02*
X8232976Y-10462476D01*
X8232976Y-10462476D02*
X8185357Y-10462476D01*
X8185357Y-10462476D02*
X8166310Y-10452952D01*
X8166310Y-10452952D02*
X8156786Y-10443429D01*
X8337738Y-10262476D02*
X8471072Y-10262476D01*
X8471072Y-10262476D02*
X8385357Y-10462476D01*
X8642500Y-10262476D02*
X8547262Y-10262476D01*
X8547262Y-10262476D02*
X8537738Y-10357714D01*
X8537738Y-10357714D02*
X8547262Y-10348190D01*
X8547262Y-10348190D02*
X8566310Y-10338667D01*
X8566310Y-10338667D02*
X8613929Y-10338667D01*
X8613929Y-10338667D02*
X8632976Y-10348190D01*
X8632976Y-10348190D02*
X8642500Y-10357714D01*
X8642500Y-10357714D02*
X8652024Y-10376762D01*
X8652024Y-10376762D02*
X8652024Y-10424381D01*
X8652024Y-10424381D02*
X8642500Y-10443429D01*
X8642500Y-10443429D02*
X8632976Y-10452952D01*
X8632976Y-10452952D02*
X8613929Y-10462476D01*
X8613929Y-10462476D02*
X8566310Y-10462476D01*
X8566310Y-10462476D02*
X8547262Y-10452952D01*
X8547262Y-10452952D02*
X8537738Y-10443429D01*
X8728214Y-10262476D02*
X8728214Y-10300571D01*
X8804405Y-10262476D02*
X8804405Y-10300571D01*
X9067262Y-10538667D02*
X9057738Y-10529143D01*
X9057738Y-10529143D02*
X9038691Y-10500571D01*
X9038691Y-10500571D02*
X9029167Y-10481524D01*
X9029167Y-10481524D02*
X9019643Y-10452952D01*
X9019643Y-10452952D02*
X9010119Y-10405333D01*
X9010119Y-10405333D02*
X9010119Y-10367238D01*
X9010119Y-10367238D02*
X9019643Y-10319619D01*
X9019643Y-10319619D02*
X9029167Y-10291048D01*
X9029167Y-10291048D02*
X9038691Y-10272000D01*
X9038691Y-10272000D02*
X9057738Y-10243429D01*
X9057738Y-10243429D02*
X9067262Y-10233905D01*
X9229167Y-10329143D02*
X9229167Y-10462476D01*
X9181548Y-10252952D02*
X9133929Y-10395810D01*
X9133929Y-10395810D02*
X9257738Y-10395810D01*
X9453929Y-10462476D02*
X9453929Y-10262476D01*
X9539643Y-10462476D02*
X9539643Y-10357714D01*
X9539643Y-10357714D02*
X9530119Y-10338667D01*
X9530119Y-10338667D02*
X9511072Y-10329143D01*
X9511072Y-10329143D02*
X9482500Y-10329143D01*
X9482500Y-10329143D02*
X9463453Y-10338667D01*
X9463453Y-10338667D02*
X9453929Y-10348190D01*
X9663453Y-10462476D02*
X9644405Y-10452952D01*
X9644405Y-10452952D02*
X9634881Y-10443429D01*
X9634881Y-10443429D02*
X9625357Y-10424381D01*
X9625357Y-10424381D02*
X9625357Y-10367238D01*
X9625357Y-10367238D02*
X9634881Y-10348190D01*
X9634881Y-10348190D02*
X9644405Y-10338667D01*
X9644405Y-10338667D02*
X9663453Y-10329143D01*
X9663453Y-10329143D02*
X9692024Y-10329143D01*
X9692024Y-10329143D02*
X9711072Y-10338667D01*
X9711072Y-10338667D02*
X9720595Y-10348190D01*
X9720595Y-10348190D02*
X9730119Y-10367238D01*
X9730119Y-10367238D02*
X9730119Y-10424381D01*
X9730119Y-10424381D02*
X9720595Y-10443429D01*
X9720595Y-10443429D02*
X9711072Y-10452952D01*
X9711072Y-10452952D02*
X9692024Y-10462476D01*
X9692024Y-10462476D02*
X9663453Y-10462476D01*
X9844405Y-10462476D02*
X9825357Y-10452952D01*
X9825357Y-10452952D02*
X9815834Y-10433905D01*
X9815834Y-10433905D02*
X9815834Y-10262476D01*
X9996786Y-10452952D02*
X9977738Y-10462476D01*
X9977738Y-10462476D02*
X9939643Y-10462476D01*
X9939643Y-10462476D02*
X9920595Y-10452952D01*
X9920595Y-10452952D02*
X9911072Y-10433905D01*
X9911072Y-10433905D02*
X9911072Y-10357714D01*
X9911072Y-10357714D02*
X9920595Y-10338667D01*
X9920595Y-10338667D02*
X9939643Y-10329143D01*
X9939643Y-10329143D02*
X9977738Y-10329143D01*
X9977738Y-10329143D02*
X9996786Y-10338667D01*
X9996786Y-10338667D02*
X10006310Y-10357714D01*
X10006310Y-10357714D02*
X10006310Y-10376762D01*
X10006310Y-10376762D02*
X9911072Y-10395810D01*
X10082500Y-10452952D02*
X10101548Y-10462476D01*
X10101548Y-10462476D02*
X10139643Y-10462476D01*
X10139643Y-10462476D02*
X10158691Y-10452952D01*
X10158691Y-10452952D02*
X10168215Y-10433905D01*
X10168215Y-10433905D02*
X10168215Y-10424381D01*
X10168215Y-10424381D02*
X10158691Y-10405333D01*
X10158691Y-10405333D02*
X10139643Y-10395810D01*
X10139643Y-10395810D02*
X10111072Y-10395810D01*
X10111072Y-10395810D02*
X10092024Y-10386286D01*
X10092024Y-10386286D02*
X10082500Y-10367238D01*
X10082500Y-10367238D02*
X10082500Y-10357714D01*
X10082500Y-10357714D02*
X10092024Y-10338667D01*
X10092024Y-10338667D02*
X10111072Y-10329143D01*
X10111072Y-10329143D02*
X10139643Y-10329143D01*
X10139643Y-10329143D02*
X10158691Y-10338667D01*
X10234881Y-10538667D02*
X10244405Y-10529143D01*
X10244405Y-10529143D02*
X10263453Y-10500571D01*
X10263453Y-10500571D02*
X10272976Y-10481524D01*
X10272976Y-10481524D02*
X10282500Y-10452952D01*
X10282500Y-10452952D02*
X10292024Y-10405333D01*
X10292024Y-10405333D02*
X10292024Y-10367238D01*
X10292024Y-10367238D02*
X10282500Y-10319619D01*
X10282500Y-10319619D02*
X10272976Y-10291048D01*
X10272976Y-10291048D02*
X10263453Y-10272000D01*
X10263453Y-10272000D02*
X10244405Y-10243429D01*
X10244405Y-10243429D02*
X10234881Y-10233905D01*
X10564405Y-10538667D02*
X10554881Y-10529143D01*
X10554881Y-10529143D02*
X10535834Y-10500571D01*
X10535834Y-10500571D02*
X10526310Y-10481524D01*
X10526310Y-10481524D02*
X10516786Y-10452952D01*
X10516786Y-10452952D02*
X10507262Y-10405333D01*
X10507262Y-10405333D02*
X10507262Y-10367238D01*
X10507262Y-10367238D02*
X10516786Y-10319619D01*
X10516786Y-10319619D02*
X10526310Y-10291048D01*
X10526310Y-10291048D02*
X10535834Y-10272000D01*
X10535834Y-10272000D02*
X10554881Y-10243429D01*
X10554881Y-10243429D02*
X10564405Y-10233905D01*
X10640595Y-10329143D02*
X10640595Y-10462476D01*
X10640595Y-10348190D02*
X10650119Y-10338667D01*
X10650119Y-10338667D02*
X10669167Y-10329143D01*
X10669167Y-10329143D02*
X10697738Y-10329143D01*
X10697738Y-10329143D02*
X10716786Y-10338667D01*
X10716786Y-10338667D02*
X10726310Y-10357714D01*
X10726310Y-10357714D02*
X10726310Y-10462476D01*
X10850119Y-10462476D02*
X10831072Y-10452952D01*
X10831072Y-10452952D02*
X10821548Y-10443429D01*
X10821548Y-10443429D02*
X10812024Y-10424381D01*
X10812024Y-10424381D02*
X10812024Y-10367238D01*
X10812024Y-10367238D02*
X10821548Y-10348190D01*
X10821548Y-10348190D02*
X10831072Y-10338667D01*
X10831072Y-10338667D02*
X10850119Y-10329143D01*
X10850119Y-10329143D02*
X10878691Y-10329143D01*
X10878691Y-10329143D02*
X10897738Y-10338667D01*
X10897738Y-10338667D02*
X10907262Y-10348190D01*
X10907262Y-10348190D02*
X10916786Y-10367238D01*
X10916786Y-10367238D02*
X10916786Y-10424381D01*
X10916786Y-10424381D02*
X10907262Y-10443429D01*
X10907262Y-10443429D02*
X10897738Y-10452952D01*
X10897738Y-10452952D02*
X10878691Y-10462476D01*
X10878691Y-10462476D02*
X10850119Y-10462476D01*
X10973929Y-10329143D02*
X11050119Y-10329143D01*
X11002500Y-10262476D02*
X11002500Y-10433905D01*
X11002500Y-10433905D02*
X11012024Y-10452952D01*
X11012024Y-10452952D02*
X11031072Y-10462476D01*
X11031072Y-10462476D02*
X11050119Y-10462476D01*
X11236786Y-10329143D02*
X11236786Y-10529143D01*
X11236786Y-10338667D02*
X11255833Y-10329143D01*
X11255833Y-10329143D02*
X11293929Y-10329143D01*
X11293929Y-10329143D02*
X11312976Y-10338667D01*
X11312976Y-10338667D02*
X11322500Y-10348190D01*
X11322500Y-10348190D02*
X11332024Y-10367238D01*
X11332024Y-10367238D02*
X11332024Y-10424381D01*
X11332024Y-10424381D02*
X11322500Y-10443429D01*
X11322500Y-10443429D02*
X11312976Y-10452952D01*
X11312976Y-10452952D02*
X11293929Y-10462476D01*
X11293929Y-10462476D02*
X11255833Y-10462476D01*
X11255833Y-10462476D02*
X11236786Y-10452952D01*
X11446310Y-10462476D02*
X11427262Y-10452952D01*
X11427262Y-10452952D02*
X11417738Y-10433905D01*
X11417738Y-10433905D02*
X11417738Y-10262476D01*
X11608214Y-10462476D02*
X11608214Y-10357714D01*
X11608214Y-10357714D02*
X11598691Y-10338667D01*
X11598691Y-10338667D02*
X11579643Y-10329143D01*
X11579643Y-10329143D02*
X11541548Y-10329143D01*
X11541548Y-10329143D02*
X11522500Y-10338667D01*
X11608214Y-10452952D02*
X11589167Y-10462476D01*
X11589167Y-10462476D02*
X11541548Y-10462476D01*
X11541548Y-10462476D02*
X11522500Y-10452952D01*
X11522500Y-10452952D02*
X11512976Y-10433905D01*
X11512976Y-10433905D02*
X11512976Y-10414857D01*
X11512976Y-10414857D02*
X11522500Y-10395810D01*
X11522500Y-10395810D02*
X11541548Y-10386286D01*
X11541548Y-10386286D02*
X11589167Y-10386286D01*
X11589167Y-10386286D02*
X11608214Y-10376762D01*
X11674881Y-10329143D02*
X11751072Y-10329143D01*
X11703453Y-10262476D02*
X11703453Y-10433905D01*
X11703453Y-10433905D02*
X11712976Y-10452952D01*
X11712976Y-10452952D02*
X11732024Y-10462476D01*
X11732024Y-10462476D02*
X11751072Y-10462476D01*
X11893929Y-10452952D02*
X11874881Y-10462476D01*
X11874881Y-10462476D02*
X11836786Y-10462476D01*
X11836786Y-10462476D02*
X11817738Y-10452952D01*
X11817738Y-10452952D02*
X11808214Y-10433905D01*
X11808214Y-10433905D02*
X11808214Y-10357714D01*
X11808214Y-10357714D02*
X11817738Y-10338667D01*
X11817738Y-10338667D02*
X11836786Y-10329143D01*
X11836786Y-10329143D02*
X11874881Y-10329143D01*
X11874881Y-10329143D02*
X11893929Y-10338667D01*
X11893929Y-10338667D02*
X11903453Y-10357714D01*
X11903453Y-10357714D02*
X11903453Y-10376762D01*
X11903453Y-10376762D02*
X11808214Y-10395810D01*
X12074881Y-10462476D02*
X12074881Y-10262476D01*
X12074881Y-10452952D02*
X12055834Y-10462476D01*
X12055834Y-10462476D02*
X12017738Y-10462476D01*
X12017738Y-10462476D02*
X11998691Y-10452952D01*
X11998691Y-10452952D02*
X11989167Y-10443429D01*
X11989167Y-10443429D02*
X11979643Y-10424381D01*
X11979643Y-10424381D02*
X11979643Y-10367238D01*
X11979643Y-10367238D02*
X11989167Y-10348190D01*
X11989167Y-10348190D02*
X11998691Y-10338667D01*
X11998691Y-10338667D02*
X12017738Y-10329143D01*
X12017738Y-10329143D02*
X12055834Y-10329143D01*
X12055834Y-10329143D02*
X12074881Y-10338667D01*
X12151072Y-10538667D02*
X12160595Y-10529143D01*
X12160595Y-10529143D02*
X12179643Y-10500571D01*
X12179643Y-10500571D02*
X12189167Y-10481524D01*
X12189167Y-10481524D02*
X12198691Y-10452952D01*
X12198691Y-10452952D02*
X12208214Y-10405333D01*
X12208214Y-10405333D02*
X12208214Y-10367238D01*
X12208214Y-10367238D02*
X12198691Y-10319619D01*
X12198691Y-10319619D02*
X12189167Y-10291048D01*
X12189167Y-10291048D02*
X12179643Y-10272000D01*
X12179643Y-10272000D02*
X12160595Y-10243429D01*
X12160595Y-10243429D02*
X12151072Y-10233905D01*
M02*
