%TF.GenerationSoftware,KiCad,Pcbnew,(7.0.0)*%
%TF.CreationDate,2023-04-21T02:07:09-06:00*%
%TF.ProjectId,Phase_B_ATMEGA_v3,50686173-655f-4425-9f41-544d4547415f,rev?*%
%TF.SameCoordinates,Original*%
%TF.FileFunction,Copper,L1,Top*%
%TF.FilePolarity,Positive*%
%FSLAX46Y46*%
G04 Gerber Fmt 4.6, Leading zero omitted, Abs format (unit mm)*
G04 Created by KiCad (PCBNEW (7.0.0)) date 2023-04-21 02:07:09*
%MOMM*%
%LPD*%
G01*
G04 APERTURE LIST*
G04 Aperture macros list*
%AMRoundRect*
0 Rectangle with rounded corners*
0 $1 Rounding radius*
0 $2 $3 $4 $5 $6 $7 $8 $9 X,Y pos of 4 corners*
0 Add a 4 corners polygon primitive as box body*
4,1,4,$2,$3,$4,$5,$6,$7,$8,$9,$2,$3,0*
0 Add four circle primitives for the rounded corners*
1,1,$1+$1,$2,$3*
1,1,$1+$1,$4,$5*
1,1,$1+$1,$6,$7*
1,1,$1+$1,$8,$9*
0 Add four rect primitives between the rounded corners*
20,1,$1+$1,$2,$3,$4,$5,0*
20,1,$1+$1,$4,$5,$6,$7,0*
20,1,$1+$1,$6,$7,$8,$9,0*
20,1,$1+$1,$8,$9,$2,$3,0*%
G04 Aperture macros list end*
%TA.AperFunction,SMDPad,CuDef*%
%ADD10R,1.200000X1.400000*%
%TD*%
%TA.AperFunction,SMDPad,CuDef*%
%ADD11RoundRect,0.150000X-0.512500X-0.150000X0.512500X-0.150000X0.512500X0.150000X-0.512500X0.150000X0*%
%TD*%
%TA.AperFunction,SMDPad,CuDef*%
%ADD12R,1.500000X0.550000*%
%TD*%
%TA.AperFunction,SMDPad,CuDef*%
%ADD13R,0.550000X1.500000*%
%TD*%
%TA.AperFunction,SMDPad,CuDef*%
%ADD14RoundRect,0.100000X-0.100000X0.637500X-0.100000X-0.637500X0.100000X-0.637500X0.100000X0.637500X0*%
%TD*%
%TA.AperFunction,ComponentPad*%
%ADD15R,1.500000X1.500000*%
%TD*%
%TA.AperFunction,ComponentPad*%
%ADD16C,1.500000*%
%TD*%
%TA.AperFunction,SMDPad,CuDef*%
%ADD17R,0.700000X1.000000*%
%TD*%
%TA.AperFunction,SMDPad,CuDef*%
%ADD18R,1.500000X2.000000*%
%TD*%
%TA.AperFunction,SMDPad,CuDef*%
%ADD19RoundRect,0.200000X0.275000X-0.200000X0.275000X0.200000X-0.275000X0.200000X-0.275000X-0.200000X0*%
%TD*%
%TA.AperFunction,SMDPad,CuDef*%
%ADD20RoundRect,0.200000X-0.200000X-0.275000X0.200000X-0.275000X0.200000X0.275000X-0.200000X0.275000X0*%
%TD*%
%TA.AperFunction,SMDPad,CuDef*%
%ADD21RoundRect,0.200000X-0.275000X0.200000X-0.275000X-0.200000X0.275000X-0.200000X0.275000X0.200000X0*%
%TD*%
%TA.AperFunction,SMDPad,CuDef*%
%ADD22RoundRect,0.250000X-0.262500X-0.450000X0.262500X-0.450000X0.262500X0.450000X-0.262500X0.450000X0*%
%TD*%
%TA.AperFunction,SMDPad,CuDef*%
%ADD23RoundRect,0.250000X0.450000X-0.262500X0.450000X0.262500X-0.450000X0.262500X-0.450000X-0.262500X0*%
%TD*%
%TA.AperFunction,ComponentPad*%
%ADD24R,2.000000X2.000000*%
%TD*%
%TA.AperFunction,ComponentPad*%
%ADD25C,2.000000*%
%TD*%
%TA.AperFunction,ComponentPad*%
%ADD26R,1.700000X1.700000*%
%TD*%
%TA.AperFunction,ComponentPad*%
%ADD27O,1.700000X1.700000*%
%TD*%
%TA.AperFunction,SMDPad,CuDef*%
%ADD28R,2.000000X0.500000*%
%TD*%
%TA.AperFunction,SMDPad,CuDef*%
%ADD29R,1.700000X2.000000*%
%TD*%
%TA.AperFunction,SMDPad,CuDef*%
%ADD30RoundRect,0.250000X-0.312500X-1.450000X0.312500X-1.450000X0.312500X1.450000X-0.312500X1.450000X0*%
%TD*%
%TA.AperFunction,SMDPad,CuDef*%
%ADD31RoundRect,0.243750X-0.243750X-0.456250X0.243750X-0.456250X0.243750X0.456250X-0.243750X0.456250X0*%
%TD*%
%TA.AperFunction,SMDPad,CuDef*%
%ADD32RoundRect,0.243750X0.456250X-0.243750X0.456250X0.243750X-0.456250X0.243750X-0.456250X-0.243750X0*%
%TD*%
%TA.AperFunction,SMDPad,CuDef*%
%ADD33RoundRect,0.225000X-0.250000X0.225000X-0.250000X-0.225000X0.250000X-0.225000X0.250000X0.225000X0*%
%TD*%
%TA.AperFunction,SMDPad,CuDef*%
%ADD34RoundRect,0.225000X0.225000X0.250000X-0.225000X0.250000X-0.225000X-0.250000X0.225000X-0.250000X0*%
%TD*%
%TA.AperFunction,SMDPad,CuDef*%
%ADD35RoundRect,0.250000X0.250000X0.475000X-0.250000X0.475000X-0.250000X-0.475000X0.250000X-0.475000X0*%
%TD*%
%TA.AperFunction,SMDPad,CuDef*%
%ADD36RoundRect,0.225000X0.250000X-0.225000X0.250000X0.225000X-0.250000X0.225000X-0.250000X-0.225000X0*%
%TD*%
%TA.AperFunction,ViaPad*%
%ADD37C,0.800000*%
%TD*%
%TA.AperFunction,Conductor*%
%ADD38C,0.203200*%
%TD*%
G04 APERTURE END LIST*
D10*
%TO.P,Y1,4,4*%
%TO.N,GND*%
X87724999Y-87999999D03*
%TO.P,Y1,3,3*%
%TO.N,XTAL2*%
X87724999Y-85799999D03*
%TO.P,Y1,2,2*%
%TO.N,GND*%
X89424999Y-85799999D03*
%TO.P,Y1,1,1*%
%TO.N,XTAL1*%
X89424999Y-87999999D03*
%TD*%
D11*
%TO.P,U5,5,VOUT*%
%TO.N,+3.3V*%
X81350000Y-87800000D03*
%TO.P,U5,4,BP*%
%TO.N,Net-(U5-BP)*%
X81350000Y-89700000D03*
%TO.P,U5,3,ON/~{OFF}*%
%TO.N,+5V*%
X79075000Y-89700000D03*
%TO.P,U5,2,GND*%
%TO.N,GND*%
X79075000Y-88750000D03*
%TO.P,U5,1,VIN*%
%TO.N,+5V*%
X79075000Y-87800000D03*
%TD*%
%TO.P,U4,1,I/O1*%
%TO.N,USB_CONN_D-*%
X72512500Y-73350000D03*
%TO.P,U4,2,GND*%
%TO.N,GND*%
X72512500Y-74300000D03*
%TO.P,U4,3,I/O2*%
%TO.N,USB_CONN_D+*%
X72512500Y-75250000D03*
%TO.P,U4,4,I/O2*%
%TO.N,USB_D+*%
X74787500Y-75250000D03*
%TO.P,U4,5,VBUS*%
%TO.N,+5V*%
X74787500Y-74300000D03*
%TO.P,U4,6,I/O1*%
%TO.N,USB_D-*%
X74787500Y-73350000D03*
%TD*%
D12*
%TO.P,U3,1,PE6*%
%TO.N,SH_CP*%
X82174999Y-73299999D03*
%TO.P,U3,2,UVCC*%
%TO.N,+5V*%
X82174999Y-74099999D03*
%TO.P,U3,3,D-*%
%TO.N,USB_D-*%
X82174999Y-74899999D03*
%TO.P,U3,4,D+*%
%TO.N,USB_D+*%
X82174999Y-75699999D03*
%TO.P,U3,5,UGND*%
%TO.N,GND*%
X82174999Y-76499999D03*
%TO.P,U3,6,UCAP*%
%TO.N,/UCAP*%
X82174999Y-77299999D03*
%TO.P,U3,7,VBUS*%
%TO.N,+5V*%
X82174999Y-78099999D03*
%TO.P,U3,8,PB0*%
%TO.N,unconnected-(U3-PB0-Pad8)*%
X82174999Y-78899999D03*
%TO.P,U3,9,PB1*%
%TO.N,SCK*%
X82174999Y-79699999D03*
%TO.P,U3,10,PB2*%
%TO.N,MOSI*%
X82174999Y-80499999D03*
%TO.P,U3,11,PB3*%
%TO.N,MISO*%
X82174999Y-81299999D03*
D13*
%TO.P,U3,12,PB7*%
%TO.N,Dig3*%
X83874999Y-82999999D03*
%TO.P,U3,13,~{RESET}*%
%TO.N,RST*%
X84674999Y-82999999D03*
%TO.P,U3,14,VCC*%
%TO.N,+5V*%
X85474999Y-82999999D03*
%TO.P,U3,15,GND*%
%TO.N,GND*%
X86274999Y-82999999D03*
%TO.P,U3,16,XTAL2*%
%TO.N,XTAL2*%
X87074999Y-82999999D03*
%TO.P,U3,17,XTAL1*%
%TO.N,XTAL1*%
X87874999Y-82999999D03*
%TO.P,U3,18,PD0*%
%TO.N,Button_2*%
X88674999Y-82999999D03*
%TO.P,U3,19,PD1*%
%TO.N,Button_1*%
X89474999Y-82999999D03*
%TO.P,U3,20,PD2*%
%TO.N,TX*%
X90274999Y-82999999D03*
%TO.P,U3,21,PD3*%
%TO.N,RX*%
X91074999Y-82999999D03*
%TO.P,U3,22,PD5*%
%TO.N,unconnected-(U3-PD5-Pad22)*%
X91874999Y-82999999D03*
D12*
%TO.P,U3,23,GND*%
%TO.N,GND*%
X93574999Y-81299999D03*
%TO.P,U3,24,AVCC*%
%TO.N,+5V*%
X93574999Y-80499999D03*
%TO.P,U3,25,PD4*%
%TO.N,GREEN_LED*%
X93574999Y-79699999D03*
%TO.P,U3,26,PD6*%
%TO.N,Dig2*%
X93574999Y-78899999D03*
%TO.P,U3,27,PD7*%
%TO.N,Buzzer*%
X93574999Y-78099999D03*
%TO.P,U3,28,PB4*%
%TO.N,ST_CP*%
X93574999Y-77299999D03*
%TO.P,U3,29,PB5*%
%TO.N,DS*%
X93574999Y-76499999D03*
%TO.P,U3,30,PB6*%
%TO.N,Dig4*%
X93574999Y-75699999D03*
%TO.P,U3,31,PC6*%
%TO.N,RED_LED*%
X93574999Y-74899999D03*
%TO.P,U3,32,PC7*%
%TO.N,Dig1*%
X93574999Y-74099999D03*
%TO.P,U3,33,~{HWB}/PE2*%
%TO.N,GND*%
X93574999Y-73299999D03*
D13*
%TO.P,U3,34,VCC*%
%TO.N,+5V*%
X91874999Y-71599999D03*
%TO.P,U3,35,GND*%
%TO.N,GND*%
X91074999Y-71599999D03*
%TO.P,U3,36,PF7*%
%TO.N,unconnected-(U3-PF7-Pad36)*%
X90274999Y-71599999D03*
%TO.P,U3,37,PF6*%
%TO.N,unconnected-(U3-PF6-Pad37)*%
X89474999Y-71599999D03*
%TO.P,U3,38,PF5*%
%TO.N,unconnected-(U3-PF5-Pad38)*%
X88674999Y-71599999D03*
%TO.P,U3,39,PF4*%
%TO.N,unconnected-(U3-PF4-Pad39)*%
X87874999Y-71599999D03*
%TO.P,U3,40,PF1*%
%TO.N,unconnected-(U3-PF1-Pad40)*%
X87074999Y-71599999D03*
%TO.P,U3,41,PF0*%
%TO.N,unconnected-(U3-PF0-Pad41)*%
X86274999Y-71599999D03*
%TO.P,U3,42,AREF*%
%TO.N,/AREF*%
X85474999Y-71599999D03*
%TO.P,U3,43,GND*%
%TO.N,GND*%
X84674999Y-71599999D03*
%TO.P,U3,44,AVCC*%
%TO.N,+5V*%
X83874999Y-71599999D03*
%TD*%
D14*
%TO.P,U2,1,QB*%
%TO.N,b*%
X76350000Y-53437500D03*
%TO.P,U2,2,QC*%
%TO.N,c*%
X75700000Y-53437500D03*
%TO.P,U2,3,QD*%
%TO.N,d*%
X75050000Y-53437500D03*
%TO.P,U2,4,QE*%
%TO.N,e*%
X74400000Y-53437500D03*
%TO.P,U2,5,QF*%
%TO.N,f*%
X73750000Y-53437500D03*
%TO.P,U2,6,QG*%
%TO.N,g*%
X73100000Y-53437500D03*
%TO.P,U2,7,QH*%
%TO.N,dp*%
X72450000Y-53437500D03*
%TO.P,U2,8,GND*%
%TO.N,GND*%
X71800000Y-53437500D03*
%TO.P,U2,9,QH'*%
%TO.N,unconnected-(U2-QH'-Pad9)*%
X71800000Y-59162500D03*
%TO.P,U2,10,~{SRCLR}*%
%TO.N,+5V*%
X72450000Y-59162500D03*
%TO.P,U2,11,SRCLK*%
%TO.N,SH_CP*%
X73100000Y-59162500D03*
%TO.P,U2,12,RCLK*%
%TO.N,ST_CP*%
X73750000Y-59162500D03*
%TO.P,U2,13,~{OE}*%
%TO.N,GND*%
X74400000Y-59162500D03*
%TO.P,U2,14,SER*%
%TO.N,DS*%
X75050000Y-59162500D03*
%TO.P,U2,15,QA*%
%TO.N,a*%
X75700000Y-59162500D03*
%TO.P,U2,16,VCC*%
%TO.N,+5V*%
X76350000Y-59162500D03*
%TD*%
D15*
%TO.P,U1,1,e*%
%TO.N,Net-(U1-e)*%
X104724999Y-67777499D03*
D16*
%TO.P,U1,2,d*%
%TO.N,Net-(U1-d)*%
X107265000Y-67777500D03*
%TO.P,U1,3,DPX*%
%TO.N,Net-(U1-DPX)*%
X109805000Y-67777500D03*
%TO.P,U1,4,c*%
%TO.N,Net-(U1-c)*%
X112345000Y-67777500D03*
%TO.P,U1,5,g*%
%TO.N,Net-(U1-g)*%
X114885000Y-67777500D03*
%TO.P,U1,6,CA4*%
%TO.N,Dig4*%
X117425000Y-67777500D03*
%TO.P,U1,7,b*%
%TO.N,Net-(U1-b)*%
X117425000Y-52537500D03*
%TO.P,U1,8,CA3*%
%TO.N,Dig3*%
X114885000Y-52537500D03*
%TO.P,U1,9,CA2*%
%TO.N,Dig2*%
X112345000Y-52537500D03*
%TO.P,U1,10,f*%
%TO.N,Net-(U1-f)*%
X109805000Y-52537500D03*
%TO.P,U1,11,a*%
%TO.N,Net-(U1-a)*%
X107265000Y-52537500D03*
%TO.P,U1,12,CA1*%
%TO.N,Dig1*%
X104725000Y-52537500D03*
%TD*%
D17*
%TO.P,S3,4*%
%TO.N,N/C*%
X66224999Y-88799999D03*
%TO.P,S3,2*%
X69924999Y-88799999D03*
%TO.P,S3,3*%
%TO.N,RST*%
X66224999Y-82799999D03*
%TO.P,S3,1*%
%TO.N,GND*%
X69924999Y-82799999D03*
%TD*%
D18*
%TO.P,S2,A1,NO_1*%
%TO.N,unconnected-(S2-NO_1-PadA1)*%
X107987499Y-89449999D03*
%TO.P,S2,B1,NO_2*%
%TO.N,Button_2*%
X107987499Y-75149999D03*
%TO.P,S2,C1,COM_1*%
%TO.N,+5V*%
X112987499Y-89449999D03*
%TO.P,S2,D1,COM_2*%
%TO.N,unconnected-(S2-COM_2-PadD1)*%
X112987499Y-75149999D03*
%TD*%
%TO.P,S1,A1,NO_1*%
%TO.N,unconnected-(S1-NO_1-PadA1)*%
X122487499Y-89449999D03*
%TO.P,S1,B1,NO_2*%
%TO.N,Button_1*%
X122487499Y-75149999D03*
%TO.P,S1,C1,COM_1*%
%TO.N,+5V*%
X127487499Y-89449999D03*
%TO.P,S1,D1,COM_2*%
%TO.N,unconnected-(S1-COM_2-PadD1)*%
X127487499Y-75149999D03*
%TD*%
D19*
%TO.P,R17,2*%
%TO.N,Net-(J3-Pin_5)*%
X104075000Y-92300000D03*
%TO.P,R17,1*%
%TO.N,+3.3V*%
X104075000Y-93950000D03*
%TD*%
D20*
%TO.P,R16,1*%
%TO.N,+5V*%
X59825000Y-65300000D03*
%TO.P,R16,2*%
%TO.N,Net-(D3-A)*%
X61475000Y-65300000D03*
%TD*%
%TO.P,R15,2*%
%TO.N,USB_CONN_D-*%
X69225000Y-73800000D03*
%TO.P,R15,1*%
%TO.N,NJ2D-*%
X67575000Y-73800000D03*
%TD*%
%TO.P,R14,2*%
%TO.N,USB_CONN_D+*%
X69225000Y-75300000D03*
%TO.P,R14,1*%
%TO.N,NJ2D+*%
X67575000Y-75300000D03*
%TD*%
D21*
%TO.P,R13,2*%
%TO.N,RST*%
X66650000Y-81125000D03*
%TO.P,R13,1*%
%TO.N,+5V*%
X66650000Y-79475000D03*
%TD*%
D22*
%TO.P,R12,2*%
%TO.N,Net-(U1-DPX)*%
X84225000Y-61300000D03*
%TO.P,R12,1*%
%TO.N,dp*%
X82400000Y-61300000D03*
%TD*%
%TO.P,R11,2*%
%TO.N,Net-(U1-g)*%
X84225000Y-57300000D03*
%TO.P,R11,1*%
%TO.N,g*%
X82400000Y-57300000D03*
%TD*%
%TO.P,R10,1*%
%TO.N,f*%
X82400000Y-51300000D03*
%TO.P,R10,2*%
%TO.N,Net-(U1-f)*%
X84225000Y-51300000D03*
%TD*%
%TO.P,R9,1*%
%TO.N,e*%
X82400000Y-65300000D03*
%TO.P,R9,2*%
%TO.N,Net-(U1-e)*%
X84225000Y-65300000D03*
%TD*%
%TO.P,R8,1*%
%TO.N,d*%
X82400000Y-63300000D03*
%TO.P,R8,2*%
%TO.N,Net-(U1-d)*%
X84225000Y-63300000D03*
%TD*%
%TO.P,R7,1*%
%TO.N,c*%
X82400000Y-59300000D03*
%TO.P,R7,2*%
%TO.N,Net-(U1-c)*%
X84225000Y-59300000D03*
%TD*%
%TO.P,R6,1*%
%TO.N,b*%
X82400000Y-55300000D03*
%TO.P,R6,2*%
%TO.N,Net-(U1-b)*%
X84225000Y-55300000D03*
%TD*%
%TO.P,R5,2*%
%TO.N,Net-(U1-a)*%
X84225000Y-53300000D03*
%TO.P,R5,1*%
%TO.N,a*%
X82400000Y-53300000D03*
%TD*%
D23*
%TO.P,R4,1*%
%TO.N,GREEN_LED*%
X139575000Y-70125000D03*
%TO.P,R4,2*%
%TO.N,Net-(D2-A)*%
X139575000Y-68300000D03*
%TD*%
%TO.P,R3,1*%
%TO.N,RED_LED*%
X139575000Y-63625000D03*
%TO.P,R3,2*%
%TO.N,Net-(D1-A)*%
X139575000Y-61800000D03*
%TD*%
D22*
%TO.P,R2,1*%
%TO.N,Button_2*%
X108162500Y-71800000D03*
%TO.P,R2,2*%
%TO.N,GND*%
X109987500Y-71800000D03*
%TD*%
%TO.P,R1,1*%
%TO.N,Button_1*%
X122575000Y-71800000D03*
%TO.P,R1,2*%
%TO.N,GND*%
X124400000Y-71800000D03*
%TD*%
D24*
%TO.P,LS1,1,1*%
%TO.N,Buzzer*%
X135274999Y-79299999D03*
D25*
%TO.P,LS1,2,2*%
%TO.N,GND*%
X142875000Y-79300000D03*
%TD*%
D26*
%TO.P,J3,1,Pin_1*%
%TO.N,GND*%
X101574999Y-85299999D03*
D27*
%TO.P,J3,2,Pin_2*%
%TO.N,TX*%
X99034999Y-85299999D03*
%TO.P,J3,3,Pin_3*%
%TO.N,unconnected-(J3-Pin_3-Pad3)*%
X101574999Y-87839999D03*
%TO.P,J3,4,Pin_4*%
%TO.N,+3.3V*%
X99034999Y-87839999D03*
%TO.P,J3,5,Pin_5*%
%TO.N,Net-(J3-Pin_5)*%
X101574999Y-90379999D03*
%TO.P,J3,6,Pin_6*%
%TO.N,+3.3V*%
X99034999Y-90379999D03*
%TO.P,J3,7,Pin_7*%
%TO.N,RX*%
X101574999Y-92919999D03*
%TO.P,J3,8,Pin_8*%
%TO.N,+3.3V*%
X99034999Y-92919999D03*
%TD*%
D28*
%TO.P,J2,1,VBUS*%
%TO.N,Net-(J2-VBUS)*%
X62849999Y-73199999D03*
%TO.P,J2,2,D-*%
%TO.N,NJ2D-*%
X62849999Y-73999999D03*
%TO.P,J2,3,D+*%
%TO.N,NJ2D+*%
X62849999Y-74799999D03*
%TO.P,J2,4,ID*%
%TO.N,unconnected-(J2-ID-Pad4)*%
X62849999Y-75599999D03*
%TO.P,J2,5,GND*%
%TO.N,GND*%
X62849999Y-76399999D03*
D29*
%TO.P,J2,6,Shield*%
%TO.N,unconnected-(J2-Shield-Pad6)*%
X62749999Y-70349999D03*
X62749999Y-79249999D03*
X57299999Y-70349999D03*
X57299999Y-79249999D03*
%TD*%
D26*
%TO.P,J1,1,MISO*%
%TO.N,MISO*%
X73784999Y-81274999D03*
D27*
%TO.P,J1,2,VCC*%
%TO.N,+5V*%
X76324999Y-81274999D03*
%TO.P,J1,3,SCK*%
%TO.N,SCK*%
X73784999Y-83814999D03*
%TO.P,J1,4,MOSI*%
%TO.N,MOSI*%
X76324999Y-83814999D03*
%TO.P,J1,5,~{RST}*%
%TO.N,RST*%
X73784999Y-86354999D03*
%TO.P,J1,6,GND*%
%TO.N,GND*%
X76324999Y-86354999D03*
%TD*%
D30*
%TO.P,F1,1*%
%TO.N,Net-(J2-VBUS)*%
X66012500Y-68800000D03*
%TO.P,F1,2*%
%TO.N,+5V*%
X70287500Y-68800000D03*
%TD*%
D31*
%TO.P,D3,1,K*%
%TO.N,GND*%
X59275000Y-67300000D03*
%TO.P,D3,2,A*%
%TO.N,Net-(D3-A)*%
X61150000Y-67300000D03*
%TD*%
D32*
%TO.P,D2,1,K*%
%TO.N,GND*%
X142075000Y-70175000D03*
%TO.P,D2,2,A*%
%TO.N,Net-(D2-A)*%
X142075000Y-68300000D03*
%TD*%
%TO.P,D1,1,K*%
%TO.N,GND*%
X142075000Y-63675000D03*
%TO.P,D1,2,A*%
%TO.N,Net-(D1-A)*%
X142075000Y-61800000D03*
%TD*%
D33*
%TO.P,C15,2*%
%TO.N,GND*%
X81350000Y-92850000D03*
%TO.P,C15,1*%
%TO.N,Net-(U5-BP)*%
X81350000Y-91300000D03*
%TD*%
%TO.P,C14,2*%
%TO.N,GND*%
X83075000Y-89350000D03*
%TO.P,C14,1*%
%TO.N,+3.3V*%
X83075000Y-87800000D03*
%TD*%
%TO.P,C13,2*%
%TO.N,GND*%
X78850000Y-92850000D03*
%TO.P,C13,1*%
%TO.N,+5V*%
X78850000Y-91300000D03*
%TD*%
D34*
%TO.P,C12,1*%
%TO.N,/AREF*%
X84625000Y-69800000D03*
%TO.P,C12,2*%
%TO.N,GND*%
X83075000Y-69800000D03*
%TD*%
%TO.P,C11,1*%
%TO.N,+5V*%
X68575000Y-60800000D03*
%TO.P,C11,2*%
%TO.N,GND*%
X67025000Y-60800000D03*
%TD*%
%TO.P,C10,1*%
%TO.N,+5V*%
X68575000Y-62300000D03*
%TO.P,C10,2*%
%TO.N,GND*%
X67025000Y-62300000D03*
%TD*%
%TO.P,C9,1*%
%TO.N,/UCAP*%
X80150000Y-77300000D03*
%TO.P,C9,2*%
%TO.N,GND*%
X78600000Y-77300000D03*
%TD*%
D35*
%TO.P,C8,1*%
%TO.N,+5V*%
X68712500Y-64300000D03*
%TO.P,C8,2*%
%TO.N,GND*%
X66812500Y-64300000D03*
%TD*%
D34*
%TO.P,C7,1*%
%TO.N,+5V*%
X68575000Y-53300000D03*
%TO.P,C7,2*%
%TO.N,GND*%
X67025000Y-53300000D03*
%TD*%
%TO.P,C6,1*%
%TO.N,+5V*%
X68575000Y-54800000D03*
%TO.P,C6,2*%
%TO.N,GND*%
X67025000Y-54800000D03*
%TD*%
%TO.P,C5,1*%
%TO.N,+5V*%
X68575000Y-56300000D03*
%TO.P,C5,2*%
%TO.N,GND*%
X67025000Y-56300000D03*
%TD*%
%TO.P,C4,1*%
%TO.N,+5V*%
X68575000Y-57800000D03*
%TO.P,C4,2*%
%TO.N,GND*%
X67025000Y-57800000D03*
%TD*%
D33*
%TO.P,C3,2*%
%TO.N,GND*%
X87575000Y-91350000D03*
%TO.P,C3,1*%
%TO.N,XTAL2*%
X87575000Y-89800000D03*
%TD*%
D36*
%TO.P,C2,2*%
%TO.N,XTAL1*%
X89075000Y-89800000D03*
%TO.P,C2,1*%
%TO.N,GND*%
X89075000Y-91350000D03*
%TD*%
D34*
%TO.P,C1,1*%
%TO.N,+5V*%
X68575000Y-59300000D03*
%TO.P,C1,2*%
%TO.N,GND*%
X67025000Y-59300000D03*
%TD*%
D37*
%TO.N,+5V*%
X79275000Y-69300000D03*
X77729247Y-69845753D03*
X72275000Y-71300000D03*
X72275000Y-77300000D03*
%TO.N,+3.3V*%
X84275000Y-87800000D03*
X84775000Y-91300000D03*
%TO.N,RX*%
X92275000Y-86024500D03*
X91925049Y-84425451D03*
%TO.N,RST*%
X65075000Y-82975000D03*
X71575000Y-82975000D03*
%TO.N,Dig3*%
X84075000Y-81500000D03*
X98345339Y-79802547D03*
X109575000Y-73500000D03*
X120575000Y-72000000D03*
X120087299Y-50987701D03*
X106575000Y-73500000D03*
%TO.N,Dig2*%
X119575000Y-71000000D03*
X119075000Y-51000000D03*
%TO.N,Dig1*%
X92075000Y-74000000D03*
X94075000Y-56024500D03*
%TO.N,Net-(U1-b)*%
X102575000Y-54000000D03*
X117075000Y-54000000D03*
%TO.N,ST_CP*%
X96350500Y-74000000D03*
X95475180Y-77229620D03*
%TO.N,DS*%
X97075000Y-72000000D03*
X97075000Y-76500000D03*
%TO.N,Dig4*%
X98075000Y-75624500D03*
X99494503Y-73919503D03*
X102515497Y-66559503D03*
X114575000Y-66000000D03*
%TO.N,Dig2*%
X99246398Y-78171398D03*
X95018379Y-78824500D03*
%TO.N,Buzzer*%
X95931553Y-78118849D03*
X99337652Y-76762652D03*
%TO.N,Button_2*%
X90049695Y-80000000D03*
X97281755Y-80775500D03*
%TO.N,Button_1*%
X90665955Y-80786910D03*
X96575000Y-81500000D03*
%TO.N,e*%
X77236779Y-57961779D03*
X77287779Y-55300000D03*
%TO.N,d*%
X78012279Y-57300000D03*
X75223299Y-52201062D03*
%TO.N,dp*%
X72575000Y-51800000D03*
X78736779Y-56461779D03*
%TO.N,c*%
X79530024Y-55668533D03*
X79350500Y-52024500D03*
%TO.N,g*%
X80075000Y-50575500D03*
X80236779Y-54961779D03*
%TO.N,b*%
X81075000Y-52300000D03*
X81075000Y-54300000D03*
%TO.N,+5V*%
X69800000Y-63212500D03*
X76575000Y-60300000D03*
X72575000Y-61084600D03*
%TO.N,GND*%
X77575000Y-77300000D03*
X77575000Y-88800000D03*
X95075000Y-73300000D03*
X91075000Y-72800000D03*
X82075000Y-69800000D03*
X125575000Y-71800000D03*
X111075000Y-71800000D03*
X83575000Y-76800000D03*
X84575000Y-72800000D03*
X86075000Y-84300000D03*
X95075000Y-81300000D03*
X71075000Y-52300000D03*
X74530300Y-60359600D03*
X65800000Y-53300000D03*
X65800000Y-54800000D03*
X65800000Y-56300000D03*
X65800000Y-57800000D03*
X65800000Y-59300000D03*
X65800000Y-60800000D03*
X65800000Y-62300000D03*
X65800000Y-64300000D03*
X58575000Y-68300000D03*
X63075000Y-77300000D03*
X73575000Y-76000000D03*
X89075000Y-92300000D03*
X87575000Y-92300000D03*
X79075000Y-93800000D03*
X81575000Y-93800000D03*
X69575000Y-83800000D03*
X84075000Y-89300000D03*
X86575000Y-88300000D03*
X90575000Y-85800000D03*
X143575000Y-63800000D03*
X143575000Y-70300000D03*
%TD*%
D38*
%TO.N,+5V*%
X89175000Y-75874695D02*
X89175000Y-78100000D01*
X91875000Y-73174695D02*
X89175000Y-75874695D01*
X91875000Y-71600000D02*
X91875000Y-73174695D01*
X83572183Y-69000000D02*
X83872183Y-69300000D01*
X79575000Y-69000000D02*
X83572183Y-69000000D01*
X79275000Y-69300000D02*
X79575000Y-69000000D01*
X83872183Y-69300000D02*
X83850000Y-69322183D01*
X84172183Y-69000000D02*
X83872183Y-69300000D01*
X76575000Y-69500000D02*
X76920753Y-69845753D01*
X76920753Y-69845753D02*
X77729247Y-69845753D01*
X71375000Y-64300000D02*
X78325000Y-71250000D01*
X68712500Y-64300000D02*
X71375000Y-64300000D01*
X78325000Y-71250000D02*
X76575000Y-69500000D01*
X81175000Y-74100000D02*
X78325000Y-71250000D01*
X70287500Y-68800000D02*
X70287500Y-67100000D01*
X70287500Y-67100000D02*
X68712500Y-65525000D01*
X70987500Y-69500000D02*
X73575000Y-69500000D01*
X70287500Y-68800000D02*
X70987500Y-69500000D01*
X70287500Y-69312500D02*
X72275000Y-71300000D01*
X70287500Y-68800000D02*
X70287500Y-69312500D01*
%TO.N,Net-(J2-VBUS)*%
X66012500Y-70037500D02*
X62850000Y-73200000D01*
X66012500Y-68800000D02*
X66012500Y-70037500D01*
%TO.N,XTAL1*%
X91300000Y-85499695D02*
X90575305Y-84775000D01*
%TO.N,+5V*%
X68575000Y-62300000D02*
X68575000Y-62800000D01*
X68575000Y-62800000D02*
X68575000Y-63300000D01*
X68575000Y-53300000D02*
X68575000Y-62800000D01*
X70100000Y-79475000D02*
X72275000Y-77300000D01*
X66650000Y-79475000D02*
X70100000Y-79475000D01*
X76625000Y-91300000D02*
X75850000Y-92075000D01*
X78850000Y-91300000D02*
X76625000Y-91300000D01*
X78850000Y-91300000D02*
X78850000Y-89925000D01*
X78850000Y-89925000D02*
X79075000Y-89700000D01*
X93375000Y-82800000D02*
X92075000Y-81500000D01*
X92075000Y-81500000D02*
X92075000Y-81000000D01*
X106587500Y-82800000D02*
X93375000Y-82800000D01*
X112987500Y-89200000D02*
X106587500Y-82800000D01*
X112987500Y-89450000D02*
X112987500Y-89200000D01*
%TO.N,+3.3V*%
X84275000Y-87800000D02*
X83075000Y-87800000D01*
X87245000Y-93770000D02*
X84775000Y-91300000D01*
X98185000Y-93770000D02*
X87245000Y-93770000D01*
X99035000Y-92920000D02*
X98185000Y-93770000D01*
X99035000Y-90380000D02*
X99035000Y-92920000D01*
X99035000Y-87840000D02*
X99035000Y-90380000D01*
X103930000Y-94095000D02*
X100210000Y-94095000D01*
X104075000Y-93950000D02*
X103930000Y-94095000D01*
X100210000Y-94095000D02*
X99035000Y-92920000D01*
%TO.N,Net-(J3-Pin_5)*%
X103495000Y-92300000D02*
X104075000Y-92300000D01*
X101575000Y-90380000D02*
X103495000Y-92300000D01*
%TO.N,RX*%
X100400000Y-91745000D02*
X101575000Y-92920000D01*
X100400000Y-87425000D02*
X100400000Y-91745000D01*
X99450000Y-86475000D02*
X100400000Y-87425000D01*
X92725500Y-86475000D02*
X99450000Y-86475000D01*
X92275000Y-86024500D02*
X92725500Y-86475000D01*
X91625451Y-84425451D02*
X91925049Y-84425451D01*
X91075000Y-83875000D02*
X91625451Y-84425451D01*
X91075000Y-83000000D02*
X91075000Y-83875000D01*
%TO.N,TX*%
X91775000Y-85300000D02*
X99035000Y-85300000D01*
X90275000Y-83000000D02*
X90275000Y-83800000D01*
X90275000Y-83800000D02*
X91775000Y-85300000D01*
%TO.N,XTAL1*%
X91300000Y-86100304D02*
X91300000Y-85499695D01*
X89575000Y-86825000D02*
X90575305Y-86825000D01*
X89425000Y-86975000D02*
X89575000Y-86825000D01*
X90575305Y-86825000D02*
X91300000Y-86100304D01*
X89425000Y-88000000D02*
X89425000Y-86975000D01*
X88250000Y-84775000D02*
X90575305Y-84775000D01*
X88150000Y-84675000D02*
X88250000Y-84775000D01*
X88150000Y-84275000D02*
X88150000Y-84675000D01*
%TO.N,XTAL2*%
X87075000Y-85150000D02*
X87075000Y-83000000D01*
X87725000Y-85800000D02*
X87075000Y-85150000D01*
%TO.N,XTAL1*%
X87875000Y-83000000D02*
X87875000Y-84000000D01*
X87875000Y-84000000D02*
X88150000Y-84275000D01*
%TO.N,RST*%
X66050000Y-82975000D02*
X66225000Y-82800000D01*
X73785000Y-86355000D02*
X71575000Y-84145000D01*
X71575000Y-84145000D02*
X71575000Y-82975000D01*
X65075000Y-82975000D02*
X66050000Y-82975000D01*
X84675000Y-84000000D02*
X84675000Y-83000000D01*
X84200000Y-84475000D02*
X84675000Y-84000000D01*
X80575000Y-84475000D02*
X84200000Y-84475000D01*
X74960000Y-87530000D02*
X77520000Y-87530000D01*
X77520000Y-87530000D02*
X80575000Y-84475000D01*
X73785000Y-86355000D02*
X74960000Y-87530000D01*
%TO.N,MISO*%
X72575000Y-82485000D02*
X73785000Y-81275000D01*
X72575000Y-84266701D02*
X72575000Y-82485000D01*
X73298299Y-84990000D02*
X72575000Y-84266701D01*
X82175000Y-81300000D02*
X78485000Y-84990000D01*
X78485000Y-84990000D02*
X73298299Y-84990000D01*
%TO.N,MOSI*%
X79640000Y-80500000D02*
X76325000Y-83815000D01*
X82175000Y-80500000D02*
X79640000Y-80500000D01*
%TO.N,SCK*%
X76786701Y-82475000D02*
X75125000Y-82475000D01*
X79561701Y-79700000D02*
X76786701Y-82475000D01*
X75125000Y-82475000D02*
X73785000Y-83815000D01*
X82175000Y-79700000D02*
X79561701Y-79700000D01*
%TO.N,+5V*%
X76325000Y-81275000D02*
X79500000Y-78100000D01*
X79500000Y-78100000D02*
X82175000Y-78100000D01*
%TO.N,Dig3*%
X84075000Y-82800000D02*
X83875000Y-83000000D01*
X84075000Y-81500000D02*
X84075000Y-82800000D01*
%TO.N,Dig2*%
X94942879Y-78900000D02*
X93575000Y-78900000D01*
X95018379Y-78824500D02*
X94942879Y-78900000D01*
%TO.N,GREEN_LED*%
X98612652Y-77462348D02*
X96375000Y-79700000D01*
X96375000Y-79700000D02*
X93575000Y-79700000D01*
X105574999Y-69500000D02*
X98612652Y-76462347D01*
X134075000Y-69500000D02*
X105574999Y-69500000D01*
X98612652Y-76462347D02*
X98612652Y-77462348D01*
X134700000Y-70125000D02*
X134075000Y-69500000D01*
X139575000Y-70125000D02*
X134700000Y-70125000D01*
%TO.N,Buzzer*%
X135275000Y-71336396D02*
X135275000Y-79300000D01*
X133938604Y-70000000D02*
X135275000Y-71336396D01*
X106393198Y-70000000D02*
X133938604Y-70000000D01*
X99337652Y-76762652D02*
X99630546Y-76762652D01*
X99630546Y-76762652D02*
X106393198Y-70000000D01*
%TO.N,Dig2*%
X119075000Y-70500000D02*
X119575000Y-71000000D01*
X106624903Y-70500000D02*
X119075000Y-70500000D01*
X99246398Y-77878505D02*
X106624903Y-70500000D01*
X99246398Y-78171398D02*
X99246398Y-77878505D01*
%TO.N,Dig3*%
X100272453Y-79802547D02*
X98345339Y-79802547D01*
X106575000Y-73500000D02*
X100272453Y-79802547D01*
X119075000Y-73500000D02*
X109575000Y-73500000D01*
X120087299Y-52487701D02*
X120087299Y-50987701D01*
X120575000Y-72000000D02*
X119075000Y-73500000D01*
X117850000Y-54725000D02*
X120087299Y-52487701D01*
X116011840Y-54725000D02*
X117850000Y-54725000D01*
X114885000Y-53598160D02*
X116011840Y-54725000D01*
X114885000Y-52537500D02*
X114885000Y-53598160D01*
%TO.N,Dig2*%
X113882500Y-51000000D02*
X112345000Y-52537500D01*
X119075000Y-51000000D02*
X113882500Y-51000000D01*
%TO.N,Dig1*%
X93475000Y-74000000D02*
X93575000Y-74100000D01*
X92075000Y-74000000D02*
X93475000Y-74000000D01*
%TO.N,/AREF*%
X84625000Y-69800000D02*
X85475000Y-70650000D01*
X85475000Y-70650000D02*
X85475000Y-71600000D01*
%TO.N,+5V*%
X83850000Y-71575000D02*
X83875000Y-71600000D01*
X83850000Y-69322183D02*
X83850000Y-71575000D01*
X91875000Y-70600000D02*
X90275000Y-69000000D01*
X90275000Y-69000000D02*
X84172183Y-69000000D01*
X91875000Y-71600000D02*
X91875000Y-70600000D01*
%TO.N,Dig1*%
X104725000Y-53598160D02*
X102298660Y-56024500D01*
X104725000Y-52537500D02*
X104725000Y-53598160D01*
X102298660Y-56024500D02*
X94075000Y-56024500D01*
%TO.N,Net-(U1-b)*%
X102575000Y-54000000D02*
X101275000Y-55300000D01*
X101275000Y-55300000D02*
X84225000Y-55300000D01*
X117425000Y-53650000D02*
X117075000Y-54000000D01*
X117425000Y-52537500D02*
X117425000Y-53650000D01*
%TO.N,+5V*%
X83850000Y-74775000D02*
X84075000Y-75000000D01*
X83850000Y-71625000D02*
X83850000Y-74775000D01*
X83875000Y-71600000D02*
X83850000Y-71625000D01*
X84075000Y-75000000D02*
X83175000Y-74100000D01*
X84575000Y-75500000D02*
X84075000Y-75000000D01*
X83300305Y-78100000D02*
X89175000Y-78100000D01*
X89175000Y-78100000D02*
X92075000Y-81000000D01*
X85475000Y-80274695D02*
X83300305Y-78100000D01*
X85475000Y-83000000D02*
X85475000Y-80274695D01*
X92075000Y-81000000D02*
X92575000Y-80500000D01*
X92575000Y-80500000D02*
X93575000Y-80500000D01*
X83175000Y-74100000D02*
X82175000Y-74100000D01*
X84575000Y-76825305D02*
X84575000Y-75500000D01*
X82175000Y-78100000D02*
X83300305Y-78100000D01*
X83300305Y-78100000D02*
X84575000Y-76825305D01*
%TO.N,/UCAP*%
X80150000Y-77300000D02*
X82175000Y-77300000D01*
%TO.N,USB_D-*%
X81049999Y-74900000D02*
X82175000Y-74900000D01*
X80874999Y-75075000D02*
X81049999Y-74900000D01*
X76512500Y-75075000D02*
X80874999Y-75075000D01*
X75750000Y-74312500D02*
X76512500Y-75075000D01*
X75750000Y-73963604D02*
X75750000Y-74312500D01*
X75486396Y-73700000D02*
X75750000Y-73963604D01*
X75137500Y-73700000D02*
X75486396Y-73700000D01*
X74787500Y-73350000D02*
X75137500Y-73700000D01*
%TO.N,USB_D+*%
X81049999Y-75700000D02*
X82175000Y-75700000D01*
X80874999Y-75525000D02*
X81049999Y-75700000D01*
X76051103Y-75250000D02*
X76326103Y-75525000D01*
X76326103Y-75525000D02*
X80874999Y-75525000D01*
X74787500Y-75250000D02*
X76051103Y-75250000D01*
%TO.N,USB_CONN_D-*%
X70088603Y-73800000D02*
X69225000Y-73800000D01*
X70538603Y-73350000D02*
X70088603Y-73800000D01*
X72512500Y-73350000D02*
X70538603Y-73350000D01*
%TO.N,USB_CONN_D+*%
X70724999Y-73800001D02*
X69225000Y-75300000D01*
X71062501Y-73800001D02*
X70724999Y-73800001D01*
X71550000Y-74287500D02*
X71062501Y-73800001D01*
X72162500Y-74900000D02*
X71813604Y-74900000D01*
X72512500Y-75250000D02*
X72162500Y-74900000D01*
X71813604Y-74900000D02*
X71550000Y-74636396D01*
X71550000Y-74636396D02*
X71550000Y-74287500D01*
%TO.N,GND*%
X73575000Y-75011341D02*
X73575000Y-76000000D01*
X72863659Y-74300000D02*
X73575000Y-75011341D01*
X72512500Y-74300000D02*
X72863659Y-74300000D01*
%TO.N,NJ2D-*%
X63100000Y-74250000D02*
X62850000Y-74000000D01*
X63986369Y-74250000D02*
X63100000Y-74250000D01*
%TO.N,NJ2D+*%
X63013603Y-74800000D02*
X62850000Y-74800000D01*
X63263603Y-75050000D02*
X63013603Y-74800000D01*
X64150000Y-75050000D02*
X63263603Y-75050000D01*
%TO.N,NJ2D-*%
X67575000Y-73800000D02*
X66525001Y-74849999D01*
X64586368Y-74849999D02*
X63986369Y-74250000D01*
%TO.N,NJ2D+*%
X64150000Y-75300000D02*
X64150000Y-75050000D01*
%TO.N,NJ2D-*%
X66525001Y-74849999D02*
X64586368Y-74849999D01*
%TO.N,NJ2D+*%
X67575000Y-75300000D02*
X64150000Y-75300000D01*
%TO.N,+5V*%
X74787500Y-74300000D02*
X74403249Y-74300000D01*
X76575000Y-69500000D02*
X73575000Y-69500000D01*
X74403249Y-74300000D02*
X73575000Y-73471751D01*
X73575000Y-73471751D02*
X73575000Y-69500000D01*
X82175000Y-74100000D02*
X81175000Y-74100000D01*
%TO.N,SH_CP*%
X73300000Y-64425000D02*
X82175000Y-73300000D01*
X73100000Y-60584295D02*
X73300000Y-60784295D01*
X73100000Y-59162500D02*
X73100000Y-60584295D01*
X73300000Y-60784295D02*
X73300000Y-64425000D01*
%TO.N,ST_CP*%
X73750000Y-60604605D02*
X73750000Y-59162500D01*
X74645395Y-61500000D02*
X73750000Y-60604605D01*
X75075000Y-61500000D02*
X74645395Y-61500000D01*
%TO.N,+5V*%
X72450000Y-60959600D02*
X72450000Y-59162500D01*
X72575000Y-61084600D02*
X72450000Y-60959600D01*
%TO.N,ST_CP*%
X80575000Y-67000000D02*
X75075000Y-61500000D01*
X91075000Y-67000000D02*
X80575000Y-67000000D01*
X96350500Y-74000000D02*
X96350500Y-72275500D01*
X96350500Y-72275500D02*
X91075000Y-67000000D01*
X95404800Y-77300000D02*
X95475180Y-77229620D01*
X93575000Y-77300000D02*
X95404800Y-77300000D01*
%TO.N,DS*%
X75050000Y-59853995D02*
X75050000Y-59162500D01*
X91400000Y-66325000D02*
X81521005Y-66325000D01*
X81521005Y-66325000D02*
X75050000Y-59853995D01*
X97075000Y-72000000D02*
X91400000Y-66325000D01*
X93575000Y-76500000D02*
X92700000Y-76500000D01*
X92700000Y-76500000D02*
X97075000Y-76500000D01*
%TO.N,Dig4*%
X97999500Y-75700000D02*
X93575000Y-75700000D01*
X98075000Y-75624500D02*
X97999500Y-75700000D01*
X99655497Y-73919503D02*
X99494503Y-73919503D01*
X102515497Y-67940497D02*
X104075000Y-69500000D01*
X104075000Y-69500000D02*
X99655497Y-73919503D01*
X102515497Y-66559503D02*
X102515497Y-67940497D01*
X114627780Y-66000000D02*
X114575000Y-66000000D01*
X116405280Y-67777500D02*
X114627780Y-66000000D01*
X117425000Y-67777500D02*
X116405280Y-67777500D01*
%TO.N,Buzzer*%
X95912704Y-78100000D02*
X93575000Y-78100000D01*
X95931553Y-78118849D02*
X95912704Y-78100000D01*
%TO.N,RED_LED*%
X99538604Y-74900000D02*
X93575000Y-74900000D01*
X105438604Y-69000000D02*
X99538604Y-74900000D01*
X134200000Y-69000000D02*
X105438604Y-69000000D01*
X139575000Y-63625000D02*
X134200000Y-69000000D01*
%TO.N,Net-(D1-A)*%
X139575000Y-61800000D02*
X142075000Y-61800000D01*
%TO.N,Net-(D2-A)*%
X139575000Y-68300000D02*
X142075000Y-68300000D01*
%TO.N,+5V*%
X112987500Y-89450000D02*
X114312500Y-90775000D01*
X114312500Y-90775000D02*
X126162500Y-90775000D01*
X126162500Y-90775000D02*
X127487500Y-89450000D01*
%TO.N,Button_1*%
X89475000Y-81977865D02*
X89475000Y-83000000D01*
X90665955Y-80786910D02*
X89475000Y-81977865D01*
%TO.N,Button_2*%
X88675000Y-81374695D02*
X88675000Y-83000000D01*
X90049695Y-80000000D02*
X88675000Y-81374695D01*
X107987500Y-75587500D02*
X107987500Y-75150000D01*
X97281755Y-80775500D02*
X102799500Y-80775500D01*
X102799500Y-80775500D02*
X107987500Y-75587500D01*
%TO.N,Button_1*%
X116575000Y-81500000D02*
X96575000Y-81500000D01*
X116575000Y-81062500D02*
X116575000Y-81500000D01*
X122487500Y-75150000D02*
X116575000Y-81062500D01*
X122487500Y-71887500D02*
X122575000Y-71800000D01*
X122487500Y-75150000D02*
X122487500Y-71887500D01*
%TO.N,Button_2*%
X107987500Y-71975000D02*
X107987500Y-75150000D01*
X108162500Y-71800000D02*
X107987500Y-71975000D01*
%TO.N,XTAL1*%
X89425000Y-89450000D02*
X89075000Y-89800000D01*
X89425000Y-88000000D02*
X89425000Y-89450000D01*
%TO.N,XTAL2*%
X85850000Y-88600305D02*
X85850000Y-87675000D01*
X85850000Y-87675000D02*
X87725000Y-85800000D01*
X87049695Y-89800000D02*
X85850000Y-88600305D01*
X87575000Y-89800000D02*
X87049695Y-89800000D01*
%TO.N,+3.3V*%
X81350000Y-87800000D02*
X83075000Y-87800000D01*
%TO.N,Net-(U5-BP)*%
X81350000Y-89700000D02*
X81350000Y-91300000D01*
%TO.N,RST*%
X66650000Y-82375000D02*
X66225000Y-82800000D01*
X66650000Y-81125000D02*
X66650000Y-82375000D01*
%TO.N,+5V*%
X75850000Y-92075000D02*
X67575000Y-83800000D01*
X67575000Y-83800000D02*
X67575000Y-80400000D01*
X67575000Y-80400000D02*
X66650000Y-79475000D01*
X85275000Y-89125305D02*
X82325305Y-92075000D01*
X82325305Y-92075000D02*
X75850000Y-92075000D01*
X85475000Y-83000000D02*
X85275000Y-83200000D01*
X85275000Y-83200000D02*
X85275000Y-89125305D01*
X79459251Y-87800000D02*
X79075000Y-87800000D01*
X80075000Y-88415749D02*
X79459251Y-87800000D01*
X80075000Y-89084251D02*
X80075000Y-88415749D01*
X79459251Y-89700000D02*
X80075000Y-89084251D01*
X79075000Y-89700000D02*
X79459251Y-89700000D01*
X61875000Y-63250000D02*
X59825000Y-65300000D01*
X68575000Y-63300000D02*
X68525000Y-63250000D01*
X68525000Y-63250000D02*
X61875000Y-63250000D01*
X68712500Y-64300000D02*
X68712500Y-65525000D01*
X69800000Y-63212500D02*
X68712500Y-64300000D01*
X68575000Y-63300000D02*
X68575000Y-64162500D01*
%TO.N,e*%
X77300000Y-60200000D02*
X82400000Y-65300000D01*
X77300000Y-58025000D02*
X77300000Y-60200000D01*
X75075000Y-55300000D02*
X77287779Y-55300000D01*
X74400000Y-54625000D02*
X75075000Y-55300000D01*
X74400000Y-53437500D02*
X74400000Y-54625000D01*
X77236779Y-57961779D02*
X77300000Y-58025000D01*
%TO.N,d*%
X75223299Y-52201062D02*
X75050000Y-52374361D01*
X78012279Y-58912279D02*
X78012279Y-57300000D01*
X82400000Y-63300000D02*
X78012279Y-58912279D01*
X75050000Y-52374361D02*
X75050000Y-53437500D01*
%TO.N,dp*%
X72575000Y-53312500D02*
X72450000Y-53437500D01*
X72575000Y-51800000D02*
X72575000Y-53312500D01*
X78736779Y-57636779D02*
X78736779Y-56461779D01*
X82400000Y-61300000D02*
X78736779Y-57636779D01*
%TO.N,c*%
X75700000Y-52748959D02*
X75700000Y-53437500D01*
X76424459Y-52024500D02*
X75700000Y-52748959D01*
X79350500Y-52024500D02*
X76424459Y-52024500D01*
X79530024Y-56430024D02*
X79530024Y-55668533D01*
X82400000Y-59300000D02*
X79530024Y-56430024D01*
%TO.N,g*%
X73100000Y-52638604D02*
X73100000Y-53437500D01*
X75163104Y-50575500D02*
X73100000Y-52638604D01*
X80075000Y-50575500D02*
X75163104Y-50575500D01*
X80236779Y-55136779D02*
X80236779Y-54961779D01*
X82400000Y-57300000D02*
X80236779Y-55136779D01*
%TO.N,b*%
X76487500Y-53300000D02*
X76350000Y-53437500D01*
X80075000Y-53300000D02*
X76487500Y-53300000D01*
X81075000Y-52300000D02*
X80075000Y-53300000D01*
X82075000Y-55300000D02*
X81075000Y-54300000D01*
X82400000Y-55300000D02*
X82075000Y-55300000D01*
%TO.N,a*%
X75700000Y-58473959D02*
X75700000Y-59162500D01*
X80873959Y-53300000D02*
X75700000Y-58473959D01*
X82400000Y-53300000D02*
X80873959Y-53300000D01*
%TO.N,f*%
X73750000Y-52625000D02*
X73750000Y-53437500D01*
X75075000Y-51300000D02*
X73750000Y-52625000D01*
X82400000Y-51300000D02*
X75075000Y-51300000D01*
%TO.N,+5V*%
X76575000Y-59387500D02*
X76350000Y-59162500D01*
X76575000Y-60300000D02*
X76575000Y-59387500D01*
%TO.N,GND*%
X111075000Y-71800000D02*
X109987500Y-71800000D01*
X91075000Y-72800000D02*
X91075000Y-71600000D01*
X93575000Y-73300000D02*
X95075000Y-73300000D01*
X83275000Y-76500000D02*
X82175000Y-76500000D01*
X83575000Y-76800000D02*
X83275000Y-76500000D01*
X78600000Y-77300000D02*
X77575000Y-77300000D01*
%TO.N,Net-(D3-A)*%
X61150000Y-65625000D02*
X61475000Y-65300000D01*
X61150000Y-67300000D02*
X61150000Y-65625000D01*
%TO.N,GND*%
X62850000Y-77075000D02*
X63075000Y-77300000D01*
X62850000Y-76400000D02*
X62850000Y-77075000D01*
X69925000Y-83450000D02*
X69575000Y-83800000D01*
X69925000Y-82800000D02*
X69925000Y-83450000D01*
X125575000Y-71800000D02*
X124400000Y-71800000D01*
X142200000Y-63800000D02*
X142075000Y-63675000D01*
X143575000Y-63800000D02*
X142200000Y-63800000D01*
X142200000Y-70300000D02*
X142075000Y-70175000D01*
X143575000Y-70300000D02*
X142200000Y-70300000D01*
X77575000Y-88800000D02*
X79025000Y-88800000D01*
X79025000Y-88800000D02*
X79075000Y-88750000D01*
X89075000Y-92300000D02*
X89075000Y-91350000D01*
X87575000Y-92300000D02*
X87575000Y-91350000D01*
X78850000Y-92850000D02*
X78850000Y-93575000D01*
X78850000Y-93575000D02*
X79075000Y-93800000D01*
X81350000Y-93575000D02*
X81575000Y-93800000D01*
X81350000Y-92850000D02*
X81350000Y-93575000D01*
X83125000Y-89300000D02*
X83075000Y-89350000D01*
X84075000Y-89300000D02*
X83125000Y-89300000D01*
X87425000Y-88300000D02*
X87725000Y-88000000D01*
X86575000Y-88300000D02*
X87425000Y-88300000D01*
X90575000Y-85800000D02*
X89425000Y-85800000D01*
X86275000Y-84100000D02*
X86075000Y-84300000D01*
X86275000Y-83000000D02*
X86275000Y-84100000D01*
X95075000Y-81300000D02*
X93575000Y-81300000D01*
X82075000Y-69800000D02*
X83075000Y-69800000D01*
X84575000Y-72800000D02*
X84575000Y-71700000D01*
X84575000Y-71700000D02*
X84675000Y-71600000D01*
X71800000Y-53025000D02*
X71075000Y-52300000D01*
X71800000Y-53437500D02*
X71800000Y-53025000D01*
X74400000Y-60229300D02*
X74400000Y-59162500D01*
X74530300Y-60359600D02*
X74400000Y-60229300D01*
%TO.N,+5V*%
X68575000Y-64162500D02*
X68712500Y-64300000D01*
%TO.N,GND*%
X65800000Y-53300000D02*
X67025000Y-53300000D01*
X65800000Y-54800000D02*
X67025000Y-54800000D01*
X65800000Y-56300000D02*
X67025000Y-56300000D01*
X65800000Y-57800000D02*
X67025000Y-57800000D01*
X65800000Y-59300000D02*
X67025000Y-59300000D01*
X65800000Y-60800000D02*
X67025000Y-60800000D01*
X65800000Y-62300000D02*
X67025000Y-62300000D01*
X65800000Y-64300000D02*
X66812500Y-64300000D01*
X59275000Y-67300000D02*
X59275000Y-67600000D01*
X59275000Y-67600000D02*
X58575000Y-68300000D01*
%TO.N,Net-(U1-a)*%
X102442220Y-53300000D02*
X104279720Y-51462500D01*
X106190000Y-51462500D02*
X107265000Y-52537500D01*
X84225000Y-53300000D02*
X102442220Y-53300000D01*
X104279720Y-51462500D02*
X106190000Y-51462500D01*
%TO.N,Net-(U1-f)*%
X104093324Y-51012500D02*
X103805824Y-51300000D01*
X108280000Y-51012500D02*
X104093324Y-51012500D01*
X103805824Y-51300000D02*
X84225000Y-51300000D01*
X109805000Y-52537500D02*
X108280000Y-51012500D01*
%TO.N,Net-(U1-g)*%
X114885000Y-67777500D02*
X104407500Y-57300000D01*
X104407500Y-57300000D02*
X84225000Y-57300000D01*
%TO.N,Net-(U1-c)*%
X103867500Y-59300000D02*
X84225000Y-59300000D01*
X112345000Y-67777500D02*
X103867500Y-59300000D01*
%TO.N,Net-(U1-DPX)*%
X103327500Y-61300000D02*
X84225000Y-61300000D01*
X109805000Y-67777500D02*
X103327500Y-61300000D01*
%TO.N,Net-(U1-d)*%
X102787500Y-63300000D02*
X84225000Y-63300000D01*
X107265000Y-67777500D02*
X102787500Y-63300000D01*
%TO.N,Net-(U1-e)*%
X102247500Y-65300000D02*
X102075000Y-65300000D01*
X104725000Y-67777500D02*
X102247500Y-65300000D01*
X84225000Y-65300000D02*
X102075000Y-65300000D01*
%TD*%
M02*
