%TF.GenerationSoftware,KiCad,Pcbnew,(7.0.0)*%
%TF.CreationDate,2023-04-21T02:07:09-06:00*%
%TF.ProjectId,Phase_B_ATMEGA_v3,50686173-655f-4425-9f41-544d4547415f,rev?*%
%TF.SameCoordinates,Original*%
%TF.FileFunction,Legend,Bot*%
%TF.FilePolarity,Positive*%
%FSLAX46Y46*%
G04 Gerber Fmt 4.6, Leading zero omitted, Abs format (unit mm)*
G04 Created by KiCad (PCBNEW (7.0.0)) date 2023-04-21 02:07:09*
%MOMM*%
%LPD*%
G01*
G04 APERTURE LIST*
%ADD10C,0.150000*%
%ADD11C,0.120000*%
G04 APERTURE END LIST*
D10*
X136036904Y-88198571D02*
X135703571Y-88198571D01*
X135560714Y-88722380D02*
X136036904Y-88722380D01*
X136036904Y-88722380D02*
X136036904Y-87722380D01*
X136036904Y-87722380D02*
X135560714Y-87722380D01*
X135132142Y-88722380D02*
X135132142Y-87722380D01*
X135132142Y-87722380D02*
X134560714Y-88722380D01*
X134560714Y-88722380D02*
X134560714Y-87722380D01*
X133560714Y-87770000D02*
X133655952Y-87722380D01*
X133655952Y-87722380D02*
X133798809Y-87722380D01*
X133798809Y-87722380D02*
X133941666Y-87770000D01*
X133941666Y-87770000D02*
X134036904Y-87865238D01*
X134036904Y-87865238D02*
X134084523Y-87960476D01*
X134084523Y-87960476D02*
X134132142Y-88150952D01*
X134132142Y-88150952D02*
X134132142Y-88293809D01*
X134132142Y-88293809D02*
X134084523Y-88484285D01*
X134084523Y-88484285D02*
X134036904Y-88579523D01*
X134036904Y-88579523D02*
X133941666Y-88674761D01*
X133941666Y-88674761D02*
X133798809Y-88722380D01*
X133798809Y-88722380D02*
X133703571Y-88722380D01*
X133703571Y-88722380D02*
X133560714Y-88674761D01*
X133560714Y-88674761D02*
X133513095Y-88627142D01*
X133513095Y-88627142D02*
X133513095Y-88293809D01*
X133513095Y-88293809D02*
X133703571Y-88293809D01*
X132513095Y-88722380D02*
X132846428Y-88246190D01*
X133084523Y-88722380D02*
X133084523Y-87722380D01*
X133084523Y-87722380D02*
X132703571Y-87722380D01*
X132703571Y-87722380D02*
X132608333Y-87770000D01*
X132608333Y-87770000D02*
X132560714Y-87817619D01*
X132560714Y-87817619D02*
X132513095Y-87912857D01*
X132513095Y-87912857D02*
X132513095Y-88055714D01*
X132513095Y-88055714D02*
X132560714Y-88150952D01*
X132560714Y-88150952D02*
X132608333Y-88198571D01*
X132608333Y-88198571D02*
X132703571Y-88246190D01*
X132703571Y-88246190D02*
X133084523Y-88246190D01*
X131579761Y-87722380D02*
X130960714Y-87722380D01*
X130960714Y-87722380D02*
X131294047Y-88103333D01*
X131294047Y-88103333D02*
X131151190Y-88103333D01*
X131151190Y-88103333D02*
X131055952Y-88150952D01*
X131055952Y-88150952D02*
X131008333Y-88198571D01*
X131008333Y-88198571D02*
X130960714Y-88293809D01*
X130960714Y-88293809D02*
X130960714Y-88531904D01*
X130960714Y-88531904D02*
X131008333Y-88627142D01*
X131008333Y-88627142D02*
X131055952Y-88674761D01*
X131055952Y-88674761D02*
X131151190Y-88722380D01*
X131151190Y-88722380D02*
X131436904Y-88722380D01*
X131436904Y-88722380D02*
X131532142Y-88674761D01*
X131532142Y-88674761D02*
X131579761Y-88627142D01*
X130579761Y-87817619D02*
X130532142Y-87770000D01*
X130532142Y-87770000D02*
X130436904Y-87722380D01*
X130436904Y-87722380D02*
X130198809Y-87722380D01*
X130198809Y-87722380D02*
X130103571Y-87770000D01*
X130103571Y-87770000D02*
X130055952Y-87817619D01*
X130055952Y-87817619D02*
X130008333Y-87912857D01*
X130008333Y-87912857D02*
X130008333Y-88008095D01*
X130008333Y-88008095D02*
X130055952Y-88150952D01*
X130055952Y-88150952D02*
X130627380Y-88722380D01*
X130627380Y-88722380D02*
X130008333Y-88722380D01*
X129627380Y-87817619D02*
X129579761Y-87770000D01*
X129579761Y-87770000D02*
X129484523Y-87722380D01*
X129484523Y-87722380D02*
X129246428Y-87722380D01*
X129246428Y-87722380D02*
X129151190Y-87770000D01*
X129151190Y-87770000D02*
X129103571Y-87817619D01*
X129103571Y-87817619D02*
X129055952Y-87912857D01*
X129055952Y-87912857D02*
X129055952Y-88008095D01*
X129055952Y-88008095D02*
X129103571Y-88150952D01*
X129103571Y-88150952D02*
X129674999Y-88722380D01*
X129674999Y-88722380D02*
X129055952Y-88722380D01*
X128436904Y-87722380D02*
X128341666Y-87722380D01*
X128341666Y-87722380D02*
X128246428Y-87770000D01*
X128246428Y-87770000D02*
X128198809Y-87817619D01*
X128198809Y-87817619D02*
X128151190Y-87912857D01*
X128151190Y-87912857D02*
X128103571Y-88103333D01*
X128103571Y-88103333D02*
X128103571Y-88341428D01*
X128103571Y-88341428D02*
X128151190Y-88531904D01*
X128151190Y-88531904D02*
X128198809Y-88627142D01*
X128198809Y-88627142D02*
X128246428Y-88674761D01*
X128246428Y-88674761D02*
X128341666Y-88722380D01*
X128341666Y-88722380D02*
X128436904Y-88722380D01*
X128436904Y-88722380D02*
X128532142Y-88674761D01*
X128532142Y-88674761D02*
X128579761Y-88627142D01*
X128579761Y-88627142D02*
X128627380Y-88531904D01*
X128627380Y-88531904D02*
X128674999Y-88341428D01*
X128674999Y-88341428D02*
X128674999Y-88103333D01*
X128674999Y-88103333D02*
X128627380Y-87912857D01*
X128627380Y-87912857D02*
X128579761Y-87817619D01*
X128579761Y-87817619D02*
X128532142Y-87770000D01*
X128532142Y-87770000D02*
X128436904Y-87722380D01*
X127074999Y-88198571D02*
X126741666Y-88198571D01*
X126598809Y-88722380D02*
X127074999Y-88722380D01*
X127074999Y-88722380D02*
X127074999Y-87722380D01*
X127074999Y-87722380D02*
X126598809Y-87722380D01*
X126170237Y-88722380D02*
X126170237Y-88055714D01*
X126170237Y-88150952D02*
X126122618Y-88103333D01*
X126122618Y-88103333D02*
X126027380Y-88055714D01*
X126027380Y-88055714D02*
X125884523Y-88055714D01*
X125884523Y-88055714D02*
X125789285Y-88103333D01*
X125789285Y-88103333D02*
X125741666Y-88198571D01*
X125741666Y-88198571D02*
X125741666Y-88722380D01*
X125741666Y-88198571D02*
X125694047Y-88103333D01*
X125694047Y-88103333D02*
X125598809Y-88055714D01*
X125598809Y-88055714D02*
X125455952Y-88055714D01*
X125455952Y-88055714D02*
X125360713Y-88103333D01*
X125360713Y-88103333D02*
X125313094Y-88198571D01*
X125313094Y-88198571D02*
X125313094Y-88722380D01*
X124836904Y-88722380D02*
X124836904Y-87722380D01*
X124836904Y-88103333D02*
X124741666Y-88055714D01*
X124741666Y-88055714D02*
X124551190Y-88055714D01*
X124551190Y-88055714D02*
X124455952Y-88103333D01*
X124455952Y-88103333D02*
X124408333Y-88150952D01*
X124408333Y-88150952D02*
X124360714Y-88246190D01*
X124360714Y-88246190D02*
X124360714Y-88531904D01*
X124360714Y-88531904D02*
X124408333Y-88627142D01*
X124408333Y-88627142D02*
X124455952Y-88674761D01*
X124455952Y-88674761D02*
X124551190Y-88722380D01*
X124551190Y-88722380D02*
X124741666Y-88722380D01*
X124741666Y-88722380D02*
X124836904Y-88674761D01*
X123551190Y-88674761D02*
X123646428Y-88722380D01*
X123646428Y-88722380D02*
X123836904Y-88722380D01*
X123836904Y-88722380D02*
X123932142Y-88674761D01*
X123932142Y-88674761D02*
X123979761Y-88579523D01*
X123979761Y-88579523D02*
X123979761Y-88198571D01*
X123979761Y-88198571D02*
X123932142Y-88103333D01*
X123932142Y-88103333D02*
X123836904Y-88055714D01*
X123836904Y-88055714D02*
X123646428Y-88055714D01*
X123646428Y-88055714D02*
X123551190Y-88103333D01*
X123551190Y-88103333D02*
X123503571Y-88198571D01*
X123503571Y-88198571D02*
X123503571Y-88293809D01*
X123503571Y-88293809D02*
X123979761Y-88389047D01*
X122646428Y-88722380D02*
X122646428Y-87722380D01*
X122646428Y-88674761D02*
X122741666Y-88722380D01*
X122741666Y-88722380D02*
X122932142Y-88722380D01*
X122932142Y-88722380D02*
X123027380Y-88674761D01*
X123027380Y-88674761D02*
X123074999Y-88627142D01*
X123074999Y-88627142D02*
X123122618Y-88531904D01*
X123122618Y-88531904D02*
X123122618Y-88246190D01*
X123122618Y-88246190D02*
X123074999Y-88150952D01*
X123074999Y-88150952D02*
X123027380Y-88103333D01*
X123027380Y-88103333D02*
X122932142Y-88055714D01*
X122932142Y-88055714D02*
X122741666Y-88055714D01*
X122741666Y-88055714D02*
X122646428Y-88103333D01*
X121741666Y-88722380D02*
X121741666Y-87722380D01*
X121741666Y-88674761D02*
X121836904Y-88722380D01*
X121836904Y-88722380D02*
X122027380Y-88722380D01*
X122027380Y-88722380D02*
X122122618Y-88674761D01*
X122122618Y-88674761D02*
X122170237Y-88627142D01*
X122170237Y-88627142D02*
X122217856Y-88531904D01*
X122217856Y-88531904D02*
X122217856Y-88246190D01*
X122217856Y-88246190D02*
X122170237Y-88150952D01*
X122170237Y-88150952D02*
X122122618Y-88103333D01*
X122122618Y-88103333D02*
X122027380Y-88055714D01*
X122027380Y-88055714D02*
X121836904Y-88055714D01*
X121836904Y-88055714D02*
X121741666Y-88103333D01*
X120884523Y-88674761D02*
X120979761Y-88722380D01*
X120979761Y-88722380D02*
X121170237Y-88722380D01*
X121170237Y-88722380D02*
X121265475Y-88674761D01*
X121265475Y-88674761D02*
X121313094Y-88579523D01*
X121313094Y-88579523D02*
X121313094Y-88198571D01*
X121313094Y-88198571D02*
X121265475Y-88103333D01*
X121265475Y-88103333D02*
X121170237Y-88055714D01*
X121170237Y-88055714D02*
X120979761Y-88055714D01*
X120979761Y-88055714D02*
X120884523Y-88103333D01*
X120884523Y-88103333D02*
X120836904Y-88198571D01*
X120836904Y-88198571D02*
X120836904Y-88293809D01*
X120836904Y-88293809D02*
X121313094Y-88389047D01*
X119979761Y-88722380D02*
X119979761Y-87722380D01*
X119979761Y-88674761D02*
X120074999Y-88722380D01*
X120074999Y-88722380D02*
X120265475Y-88722380D01*
X120265475Y-88722380D02*
X120360713Y-88674761D01*
X120360713Y-88674761D02*
X120408332Y-88627142D01*
X120408332Y-88627142D02*
X120455951Y-88531904D01*
X120455951Y-88531904D02*
X120455951Y-88246190D01*
X120455951Y-88246190D02*
X120408332Y-88150952D01*
X120408332Y-88150952D02*
X120360713Y-88103333D01*
X120360713Y-88103333D02*
X120265475Y-88055714D01*
X120265475Y-88055714D02*
X120074999Y-88055714D01*
X120074999Y-88055714D02*
X119979761Y-88103333D01*
X118951189Y-88674761D02*
X118808332Y-88722380D01*
X118808332Y-88722380D02*
X118570237Y-88722380D01*
X118570237Y-88722380D02*
X118474999Y-88674761D01*
X118474999Y-88674761D02*
X118427380Y-88627142D01*
X118427380Y-88627142D02*
X118379761Y-88531904D01*
X118379761Y-88531904D02*
X118379761Y-88436666D01*
X118379761Y-88436666D02*
X118427380Y-88341428D01*
X118427380Y-88341428D02*
X118474999Y-88293809D01*
X118474999Y-88293809D02*
X118570237Y-88246190D01*
X118570237Y-88246190D02*
X118760713Y-88198571D01*
X118760713Y-88198571D02*
X118855951Y-88150952D01*
X118855951Y-88150952D02*
X118903570Y-88103333D01*
X118903570Y-88103333D02*
X118951189Y-88008095D01*
X118951189Y-88008095D02*
X118951189Y-87912857D01*
X118951189Y-87912857D02*
X118903570Y-87817619D01*
X118903570Y-87817619D02*
X118855951Y-87770000D01*
X118855951Y-87770000D02*
X118760713Y-87722380D01*
X118760713Y-87722380D02*
X118522618Y-87722380D01*
X118522618Y-87722380D02*
X118379761Y-87770000D01*
X118046427Y-88055714D02*
X117808332Y-88722380D01*
X117570237Y-88055714D02*
X117808332Y-88722380D01*
X117808332Y-88722380D02*
X117903570Y-88960476D01*
X117903570Y-88960476D02*
X117951189Y-89008095D01*
X117951189Y-89008095D02*
X118046427Y-89055714D01*
X117236903Y-88674761D02*
X117141665Y-88722380D01*
X117141665Y-88722380D02*
X116951189Y-88722380D01*
X116951189Y-88722380D02*
X116855951Y-88674761D01*
X116855951Y-88674761D02*
X116808332Y-88579523D01*
X116808332Y-88579523D02*
X116808332Y-88531904D01*
X116808332Y-88531904D02*
X116855951Y-88436666D01*
X116855951Y-88436666D02*
X116951189Y-88389047D01*
X116951189Y-88389047D02*
X117094046Y-88389047D01*
X117094046Y-88389047D02*
X117189284Y-88341428D01*
X117189284Y-88341428D02*
X117236903Y-88246190D01*
X117236903Y-88246190D02*
X117236903Y-88198571D01*
X117236903Y-88198571D02*
X117189284Y-88103333D01*
X117189284Y-88103333D02*
X117094046Y-88055714D01*
X117094046Y-88055714D02*
X116951189Y-88055714D01*
X116951189Y-88055714D02*
X116855951Y-88103333D01*
X116522617Y-88055714D02*
X116141665Y-88055714D01*
X116379760Y-87722380D02*
X116379760Y-88579523D01*
X116379760Y-88579523D02*
X116332141Y-88674761D01*
X116332141Y-88674761D02*
X116236903Y-88722380D01*
X116236903Y-88722380D02*
X116141665Y-88722380D01*
X115427379Y-88674761D02*
X115522617Y-88722380D01*
X115522617Y-88722380D02*
X115713093Y-88722380D01*
X115713093Y-88722380D02*
X115808331Y-88674761D01*
X115808331Y-88674761D02*
X115855950Y-88579523D01*
X115855950Y-88579523D02*
X115855950Y-88198571D01*
X115855950Y-88198571D02*
X115808331Y-88103333D01*
X115808331Y-88103333D02*
X115713093Y-88055714D01*
X115713093Y-88055714D02*
X115522617Y-88055714D01*
X115522617Y-88055714D02*
X115427379Y-88103333D01*
X115427379Y-88103333D02*
X115379760Y-88198571D01*
X115379760Y-88198571D02*
X115379760Y-88293809D01*
X115379760Y-88293809D02*
X115855950Y-88389047D01*
X114951188Y-88722380D02*
X114951188Y-88055714D01*
X114951188Y-88150952D02*
X114903569Y-88103333D01*
X114903569Y-88103333D02*
X114808331Y-88055714D01*
X114808331Y-88055714D02*
X114665474Y-88055714D01*
X114665474Y-88055714D02*
X114570236Y-88103333D01*
X114570236Y-88103333D02*
X114522617Y-88198571D01*
X114522617Y-88198571D02*
X114522617Y-88722380D01*
X114522617Y-88198571D02*
X114474998Y-88103333D01*
X114474998Y-88103333D02*
X114379760Y-88055714D01*
X114379760Y-88055714D02*
X114236903Y-88055714D01*
X114236903Y-88055714D02*
X114141664Y-88103333D01*
X114141664Y-88103333D02*
X114094045Y-88198571D01*
X114094045Y-88198571D02*
X114094045Y-88722380D01*
X113665474Y-88674761D02*
X113570236Y-88722380D01*
X113570236Y-88722380D02*
X113379760Y-88722380D01*
X113379760Y-88722380D02*
X113284522Y-88674761D01*
X113284522Y-88674761D02*
X113236903Y-88579523D01*
X113236903Y-88579523D02*
X113236903Y-88531904D01*
X113236903Y-88531904D02*
X113284522Y-88436666D01*
X113284522Y-88436666D02*
X113379760Y-88389047D01*
X113379760Y-88389047D02*
X113522617Y-88389047D01*
X113522617Y-88389047D02*
X113617855Y-88341428D01*
X113617855Y-88341428D02*
X113665474Y-88246190D01*
X113665474Y-88246190D02*
X113665474Y-88198571D01*
X113665474Y-88198571D02*
X113617855Y-88103333D01*
X113617855Y-88103333D02*
X113522617Y-88055714D01*
X113522617Y-88055714D02*
X113379760Y-88055714D01*
X113379760Y-88055714D02*
X113284522Y-88103333D01*
X136036904Y-90342380D02*
X136036904Y-89342380D01*
X136036904Y-89342380D02*
X135798809Y-89342380D01*
X135798809Y-89342380D02*
X135655952Y-89390000D01*
X135655952Y-89390000D02*
X135560714Y-89485238D01*
X135560714Y-89485238D02*
X135513095Y-89580476D01*
X135513095Y-89580476D02*
X135465476Y-89770952D01*
X135465476Y-89770952D02*
X135465476Y-89913809D01*
X135465476Y-89913809D02*
X135513095Y-90104285D01*
X135513095Y-90104285D02*
X135560714Y-90199523D01*
X135560714Y-90199523D02*
X135655952Y-90294761D01*
X135655952Y-90294761D02*
X135798809Y-90342380D01*
X135798809Y-90342380D02*
X136036904Y-90342380D01*
X135036904Y-89342380D02*
X135036904Y-90151904D01*
X135036904Y-90151904D02*
X134989285Y-90247142D01*
X134989285Y-90247142D02*
X134941666Y-90294761D01*
X134941666Y-90294761D02*
X134846428Y-90342380D01*
X134846428Y-90342380D02*
X134655952Y-90342380D01*
X134655952Y-90342380D02*
X134560714Y-90294761D01*
X134560714Y-90294761D02*
X134513095Y-90247142D01*
X134513095Y-90247142D02*
X134465476Y-90151904D01*
X134465476Y-90151904D02*
X134465476Y-89342380D01*
X133436904Y-90294761D02*
X133294047Y-90342380D01*
X133294047Y-90342380D02*
X133055952Y-90342380D01*
X133055952Y-90342380D02*
X132960714Y-90294761D01*
X132960714Y-90294761D02*
X132913095Y-90247142D01*
X132913095Y-90247142D02*
X132865476Y-90151904D01*
X132865476Y-90151904D02*
X132865476Y-90056666D01*
X132865476Y-90056666D02*
X132913095Y-89961428D01*
X132913095Y-89961428D02*
X132960714Y-89913809D01*
X132960714Y-89913809D02*
X133055952Y-89866190D01*
X133055952Y-89866190D02*
X133246428Y-89818571D01*
X133246428Y-89818571D02*
X133341666Y-89770952D01*
X133341666Y-89770952D02*
X133389285Y-89723333D01*
X133389285Y-89723333D02*
X133436904Y-89628095D01*
X133436904Y-89628095D02*
X133436904Y-89532857D01*
X133436904Y-89532857D02*
X133389285Y-89437619D01*
X133389285Y-89437619D02*
X133341666Y-89390000D01*
X133341666Y-89390000D02*
X133246428Y-89342380D01*
X133246428Y-89342380D02*
X133008333Y-89342380D01*
X133008333Y-89342380D02*
X132865476Y-89390000D01*
X132436904Y-89675714D02*
X132436904Y-90675714D01*
X132436904Y-89723333D02*
X132341666Y-89675714D01*
X132341666Y-89675714D02*
X132151190Y-89675714D01*
X132151190Y-89675714D02*
X132055952Y-89723333D01*
X132055952Y-89723333D02*
X132008333Y-89770952D01*
X132008333Y-89770952D02*
X131960714Y-89866190D01*
X131960714Y-89866190D02*
X131960714Y-90151904D01*
X131960714Y-90151904D02*
X132008333Y-90247142D01*
X132008333Y-90247142D02*
X132055952Y-90294761D01*
X132055952Y-90294761D02*
X132151190Y-90342380D01*
X132151190Y-90342380D02*
X132341666Y-90342380D01*
X132341666Y-90342380D02*
X132436904Y-90294761D01*
X131532142Y-90342380D02*
X131532142Y-89675714D01*
X131532142Y-89866190D02*
X131484523Y-89770952D01*
X131484523Y-89770952D02*
X131436904Y-89723333D01*
X131436904Y-89723333D02*
X131341666Y-89675714D01*
X131341666Y-89675714D02*
X131246428Y-89675714D01*
X130913094Y-90342380D02*
X130913094Y-89675714D01*
X130913094Y-89342380D02*
X130960713Y-89390000D01*
X130960713Y-89390000D02*
X130913094Y-89437619D01*
X130913094Y-89437619D02*
X130865475Y-89390000D01*
X130865475Y-89390000D02*
X130913094Y-89342380D01*
X130913094Y-89342380D02*
X130913094Y-89437619D01*
X130436904Y-89675714D02*
X130436904Y-90342380D01*
X130436904Y-89770952D02*
X130389285Y-89723333D01*
X130389285Y-89723333D02*
X130294047Y-89675714D01*
X130294047Y-89675714D02*
X130151190Y-89675714D01*
X130151190Y-89675714D02*
X130055952Y-89723333D01*
X130055952Y-89723333D02*
X130008333Y-89818571D01*
X130008333Y-89818571D02*
X130008333Y-90342380D01*
X129103571Y-89675714D02*
X129103571Y-90485238D01*
X129103571Y-90485238D02*
X129151190Y-90580476D01*
X129151190Y-90580476D02*
X129198809Y-90628095D01*
X129198809Y-90628095D02*
X129294047Y-90675714D01*
X129294047Y-90675714D02*
X129436904Y-90675714D01*
X129436904Y-90675714D02*
X129532142Y-90628095D01*
X129103571Y-90294761D02*
X129198809Y-90342380D01*
X129198809Y-90342380D02*
X129389285Y-90342380D01*
X129389285Y-90342380D02*
X129484523Y-90294761D01*
X129484523Y-90294761D02*
X129532142Y-90247142D01*
X129532142Y-90247142D02*
X129579761Y-90151904D01*
X129579761Y-90151904D02*
X129579761Y-89866190D01*
X129579761Y-89866190D02*
X129532142Y-89770952D01*
X129532142Y-89770952D02*
X129484523Y-89723333D01*
X129484523Y-89723333D02*
X129389285Y-89675714D01*
X129389285Y-89675714D02*
X129198809Y-89675714D01*
X129198809Y-89675714D02*
X129103571Y-89723333D01*
X128074999Y-89437619D02*
X128027380Y-89390000D01*
X128027380Y-89390000D02*
X127932142Y-89342380D01*
X127932142Y-89342380D02*
X127694047Y-89342380D01*
X127694047Y-89342380D02*
X127598809Y-89390000D01*
X127598809Y-89390000D02*
X127551190Y-89437619D01*
X127551190Y-89437619D02*
X127503571Y-89532857D01*
X127503571Y-89532857D02*
X127503571Y-89628095D01*
X127503571Y-89628095D02*
X127551190Y-89770952D01*
X127551190Y-89770952D02*
X128122618Y-90342380D01*
X128122618Y-90342380D02*
X127503571Y-90342380D01*
X126884523Y-89342380D02*
X126789285Y-89342380D01*
X126789285Y-89342380D02*
X126694047Y-89390000D01*
X126694047Y-89390000D02*
X126646428Y-89437619D01*
X126646428Y-89437619D02*
X126598809Y-89532857D01*
X126598809Y-89532857D02*
X126551190Y-89723333D01*
X126551190Y-89723333D02*
X126551190Y-89961428D01*
X126551190Y-89961428D02*
X126598809Y-90151904D01*
X126598809Y-90151904D02*
X126646428Y-90247142D01*
X126646428Y-90247142D02*
X126694047Y-90294761D01*
X126694047Y-90294761D02*
X126789285Y-90342380D01*
X126789285Y-90342380D02*
X126884523Y-90342380D01*
X126884523Y-90342380D02*
X126979761Y-90294761D01*
X126979761Y-90294761D02*
X127027380Y-90247142D01*
X127027380Y-90247142D02*
X127074999Y-90151904D01*
X127074999Y-90151904D02*
X127122618Y-89961428D01*
X127122618Y-89961428D02*
X127122618Y-89723333D01*
X127122618Y-89723333D02*
X127074999Y-89532857D01*
X127074999Y-89532857D02*
X127027380Y-89437619D01*
X127027380Y-89437619D02*
X126979761Y-89390000D01*
X126979761Y-89390000D02*
X126884523Y-89342380D01*
X126170237Y-89437619D02*
X126122618Y-89390000D01*
X126122618Y-89390000D02*
X126027380Y-89342380D01*
X126027380Y-89342380D02*
X125789285Y-89342380D01*
X125789285Y-89342380D02*
X125694047Y-89390000D01*
X125694047Y-89390000D02*
X125646428Y-89437619D01*
X125646428Y-89437619D02*
X125598809Y-89532857D01*
X125598809Y-89532857D02*
X125598809Y-89628095D01*
X125598809Y-89628095D02*
X125646428Y-89770952D01*
X125646428Y-89770952D02*
X126217856Y-90342380D01*
X126217856Y-90342380D02*
X125598809Y-90342380D01*
X125265475Y-89342380D02*
X124646428Y-89342380D01*
X124646428Y-89342380D02*
X124979761Y-89723333D01*
X124979761Y-89723333D02*
X124836904Y-89723333D01*
X124836904Y-89723333D02*
X124741666Y-89770952D01*
X124741666Y-89770952D02*
X124694047Y-89818571D01*
X124694047Y-89818571D02*
X124646428Y-89913809D01*
X124646428Y-89913809D02*
X124646428Y-90151904D01*
X124646428Y-90151904D02*
X124694047Y-90247142D01*
X124694047Y-90247142D02*
X124741666Y-90294761D01*
X124741666Y-90294761D02*
X124836904Y-90342380D01*
X124836904Y-90342380D02*
X125122618Y-90342380D01*
X125122618Y-90342380D02*
X125217856Y-90294761D01*
X125217856Y-90294761D02*
X125265475Y-90247142D01*
X136084523Y-91676666D02*
X135608333Y-91676666D01*
X136179761Y-91962380D02*
X135846428Y-90962380D01*
X135846428Y-90962380D02*
X135513095Y-91962380D01*
X135036904Y-91962380D02*
X135132142Y-91914761D01*
X135132142Y-91914761D02*
X135179761Y-91819523D01*
X135179761Y-91819523D02*
X135179761Y-90962380D01*
X134274999Y-91914761D02*
X134370237Y-91962380D01*
X134370237Y-91962380D02*
X134560713Y-91962380D01*
X134560713Y-91962380D02*
X134655951Y-91914761D01*
X134655951Y-91914761D02*
X134703570Y-91819523D01*
X134703570Y-91819523D02*
X134703570Y-91438571D01*
X134703570Y-91438571D02*
X134655951Y-91343333D01*
X134655951Y-91343333D02*
X134560713Y-91295714D01*
X134560713Y-91295714D02*
X134370237Y-91295714D01*
X134370237Y-91295714D02*
X134274999Y-91343333D01*
X134274999Y-91343333D02*
X134227380Y-91438571D01*
X134227380Y-91438571D02*
X134227380Y-91533809D01*
X134227380Y-91533809D02*
X134703570Y-91629047D01*
X133894046Y-91962380D02*
X133370237Y-91295714D01*
X133894046Y-91295714D02*
X133370237Y-91962380D01*
X132389284Y-91962380D02*
X132389284Y-90962380D01*
X131817856Y-91962380D02*
X132246427Y-91390952D01*
X131817856Y-90962380D02*
X132389284Y-91533809D01*
X131246427Y-91962380D02*
X131341665Y-91914761D01*
X131341665Y-91914761D02*
X131389284Y-91867142D01*
X131389284Y-91867142D02*
X131436903Y-91771904D01*
X131436903Y-91771904D02*
X131436903Y-91486190D01*
X131436903Y-91486190D02*
X131389284Y-91390952D01*
X131389284Y-91390952D02*
X131341665Y-91343333D01*
X131341665Y-91343333D02*
X131246427Y-91295714D01*
X131246427Y-91295714D02*
X131103570Y-91295714D01*
X131103570Y-91295714D02*
X131008332Y-91343333D01*
X131008332Y-91343333D02*
X130960713Y-91390952D01*
X130960713Y-91390952D02*
X130913094Y-91486190D01*
X130913094Y-91486190D02*
X130913094Y-91771904D01*
X130913094Y-91771904D02*
X130960713Y-91867142D01*
X130960713Y-91867142D02*
X131008332Y-91914761D01*
X131008332Y-91914761D02*
X131103570Y-91962380D01*
X131103570Y-91962380D02*
X131246427Y-91962380D01*
X130484522Y-91295714D02*
X130484522Y-91962380D01*
X130484522Y-91390952D02*
X130436903Y-91343333D01*
X130436903Y-91343333D02*
X130341665Y-91295714D01*
X130341665Y-91295714D02*
X130198808Y-91295714D01*
X130198808Y-91295714D02*
X130103570Y-91343333D01*
X130103570Y-91343333D02*
X130055951Y-91438571D01*
X130055951Y-91438571D02*
X130055951Y-91962380D01*
X129151189Y-91962380D02*
X129151189Y-90962380D01*
X129151189Y-91914761D02*
X129246427Y-91962380D01*
X129246427Y-91962380D02*
X129436903Y-91962380D01*
X129436903Y-91962380D02*
X129532141Y-91914761D01*
X129532141Y-91914761D02*
X129579760Y-91867142D01*
X129579760Y-91867142D02*
X129627379Y-91771904D01*
X129627379Y-91771904D02*
X129627379Y-91486190D01*
X129627379Y-91486190D02*
X129579760Y-91390952D01*
X129579760Y-91390952D02*
X129532141Y-91343333D01*
X129532141Y-91343333D02*
X129436903Y-91295714D01*
X129436903Y-91295714D02*
X129246427Y-91295714D01*
X129246427Y-91295714D02*
X129151189Y-91343333D01*
X128674998Y-91962380D02*
X128674998Y-91295714D01*
X128674998Y-91486190D02*
X128627379Y-91390952D01*
X128627379Y-91390952D02*
X128579760Y-91343333D01*
X128579760Y-91343333D02*
X128484522Y-91295714D01*
X128484522Y-91295714D02*
X128389284Y-91295714D01*
X127627379Y-91962380D02*
X127627379Y-91438571D01*
X127627379Y-91438571D02*
X127674998Y-91343333D01*
X127674998Y-91343333D02*
X127770236Y-91295714D01*
X127770236Y-91295714D02*
X127960712Y-91295714D01*
X127960712Y-91295714D02*
X128055950Y-91343333D01*
X127627379Y-91914761D02*
X127722617Y-91962380D01*
X127722617Y-91962380D02*
X127960712Y-91962380D01*
X127960712Y-91962380D02*
X128055950Y-91914761D01*
X128055950Y-91914761D02*
X128103569Y-91819523D01*
X128103569Y-91819523D02*
X128103569Y-91724285D01*
X128103569Y-91724285D02*
X128055950Y-91629047D01*
X128055950Y-91629047D02*
X127960712Y-91581428D01*
X127960712Y-91581428D02*
X127722617Y-91581428D01*
X127722617Y-91581428D02*
X127627379Y-91533809D01*
X126722617Y-91914761D02*
X126817855Y-91962380D01*
X126817855Y-91962380D02*
X127008331Y-91962380D01*
X127008331Y-91962380D02*
X127103569Y-91914761D01*
X127103569Y-91914761D02*
X127151188Y-91867142D01*
X127151188Y-91867142D02*
X127198807Y-91771904D01*
X127198807Y-91771904D02*
X127198807Y-91486190D01*
X127198807Y-91486190D02*
X127151188Y-91390952D01*
X127151188Y-91390952D02*
X127103569Y-91343333D01*
X127103569Y-91343333D02*
X127008331Y-91295714D01*
X127008331Y-91295714D02*
X126817855Y-91295714D01*
X126817855Y-91295714D02*
X126722617Y-91343333D01*
X126294045Y-91962380D02*
X126294045Y-90962380D01*
X126198807Y-91581428D02*
X125913093Y-91962380D01*
X125913093Y-91295714D02*
X126294045Y-91676666D01*
X125484521Y-91962380D02*
X125484521Y-91295714D01*
X125484521Y-90962380D02*
X125532140Y-91010000D01*
X125532140Y-91010000D02*
X125484521Y-91057619D01*
X125484521Y-91057619D02*
X125436902Y-91010000D01*
X125436902Y-91010000D02*
X125484521Y-90962380D01*
X125484521Y-90962380D02*
X125484521Y-91057619D01*
X135465476Y-93582380D02*
X135798809Y-93106190D01*
X136036904Y-93582380D02*
X136036904Y-92582380D01*
X136036904Y-92582380D02*
X135655952Y-92582380D01*
X135655952Y-92582380D02*
X135560714Y-92630000D01*
X135560714Y-92630000D02*
X135513095Y-92677619D01*
X135513095Y-92677619D02*
X135465476Y-92772857D01*
X135465476Y-92772857D02*
X135465476Y-92915714D01*
X135465476Y-92915714D02*
X135513095Y-93010952D01*
X135513095Y-93010952D02*
X135560714Y-93058571D01*
X135560714Y-93058571D02*
X135655952Y-93106190D01*
X135655952Y-93106190D02*
X136036904Y-93106190D01*
X134655952Y-93534761D02*
X134751190Y-93582380D01*
X134751190Y-93582380D02*
X134941666Y-93582380D01*
X134941666Y-93582380D02*
X135036904Y-93534761D01*
X135036904Y-93534761D02*
X135084523Y-93439523D01*
X135084523Y-93439523D02*
X135084523Y-93058571D01*
X135084523Y-93058571D02*
X135036904Y-92963333D01*
X135036904Y-92963333D02*
X134941666Y-92915714D01*
X134941666Y-92915714D02*
X134751190Y-92915714D01*
X134751190Y-92915714D02*
X134655952Y-92963333D01*
X134655952Y-92963333D02*
X134608333Y-93058571D01*
X134608333Y-93058571D02*
X134608333Y-93153809D01*
X134608333Y-93153809D02*
X135084523Y-93249047D01*
X134274999Y-92915714D02*
X134036904Y-93582380D01*
X134036904Y-93582380D02*
X133798809Y-92915714D01*
X132865475Y-92677619D02*
X132817856Y-92630000D01*
X132817856Y-92630000D02*
X132722618Y-92582380D01*
X132722618Y-92582380D02*
X132484523Y-92582380D01*
X132484523Y-92582380D02*
X132389285Y-92630000D01*
X132389285Y-92630000D02*
X132341666Y-92677619D01*
X132341666Y-92677619D02*
X132294047Y-92772857D01*
X132294047Y-92772857D02*
X132294047Y-92868095D01*
X132294047Y-92868095D02*
X132341666Y-93010952D01*
X132341666Y-93010952D02*
X132913094Y-93582380D01*
X132913094Y-93582380D02*
X132294047Y-93582380D01*
X131865475Y-93487142D02*
X131817856Y-93534761D01*
X131817856Y-93534761D02*
X131865475Y-93582380D01*
X131865475Y-93582380D02*
X131913094Y-93534761D01*
X131913094Y-93534761D02*
X131865475Y-93487142D01*
X131865475Y-93487142D02*
X131865475Y-93582380D01*
X131198809Y-92582380D02*
X131103571Y-92582380D01*
X131103571Y-92582380D02*
X131008333Y-92630000D01*
X131008333Y-92630000D02*
X130960714Y-92677619D01*
X130960714Y-92677619D02*
X130913095Y-92772857D01*
X130913095Y-92772857D02*
X130865476Y-92963333D01*
X130865476Y-92963333D02*
X130865476Y-93201428D01*
X130865476Y-93201428D02*
X130913095Y-93391904D01*
X130913095Y-93391904D02*
X130960714Y-93487142D01*
X130960714Y-93487142D02*
X131008333Y-93534761D01*
X131008333Y-93534761D02*
X131103571Y-93582380D01*
X131103571Y-93582380D02*
X131198809Y-93582380D01*
X131198809Y-93582380D02*
X131294047Y-93534761D01*
X131294047Y-93534761D02*
X131341666Y-93487142D01*
X131341666Y-93487142D02*
X131389285Y-93391904D01*
X131389285Y-93391904D02*
X131436904Y-93201428D01*
X131436904Y-93201428D02*
X131436904Y-92963333D01*
X131436904Y-92963333D02*
X131389285Y-92772857D01*
X131389285Y-92772857D02*
X131341666Y-92677619D01*
X131341666Y-92677619D02*
X131294047Y-92630000D01*
X131294047Y-92630000D02*
X131198809Y-92582380D01*
%TO.C,J1*%
X75388333Y-77872380D02*
X75388333Y-78586666D01*
X75388333Y-78586666D02*
X75435952Y-78729523D01*
X75435952Y-78729523D02*
X75531190Y-78824761D01*
X75531190Y-78824761D02*
X75674047Y-78872380D01*
X75674047Y-78872380D02*
X75769285Y-78872380D01*
X74388333Y-78872380D02*
X74959761Y-78872380D01*
X74674047Y-78872380D02*
X74674047Y-77872380D01*
X74674047Y-77872380D02*
X74769285Y-78015238D01*
X74769285Y-78015238D02*
X74864523Y-78110476D01*
X74864523Y-78110476D02*
X74959761Y-78158095D01*
D11*
X77655000Y-87685000D02*
X72455000Y-87685000D01*
X75055000Y-82545000D02*
X72455000Y-82545000D01*
X77655000Y-79945000D02*
X77655000Y-87685000D01*
X73785000Y-79945000D02*
X72455000Y-79945000D01*
X72455000Y-82545000D02*
X72455000Y-87685000D01*
X77655000Y-79945000D02*
X75055000Y-79945000D01*
X75055000Y-79945000D02*
X75055000Y-82545000D01*
X72455000Y-79945000D02*
X72455000Y-81275000D01*
%TD*%
M02*
