%TF.GenerationSoftware,KiCad,Pcbnew,(7.0.0)*%
%TF.CreationDate,2023-06-01T06:11:30-06:00*%
%TF.ProjectId,Phase_D_STM32_v1,50686173-655f-4445-9f53-544d33325f76,rev?*%
%TF.SameCoordinates,Original*%
%TF.FileFunction,Drillmap*%
%TF.FilePolarity,Positive*%
%FSLAX45Y45*%
G04 Gerber Fmt 4.5, Leading zero omitted, Abs format (unit mm)*
G04 Created by KiCad (PCBNEW (7.0.0)) date 2023-06-01 06:11:30*
%MOMM*%
%LPD*%
G01*
G04 APERTURE LIST*
%ADD10C,0.100000*%
%ADD11C,0.200000*%
G04 APERTURE END LIST*
D10*
X19005000Y-4219000D02*
X26505000Y-4219000D01*
X26505000Y-4219000D02*
X26505000Y-14219000D01*
X26505000Y-14219000D02*
X19005000Y-14219000D01*
X19005000Y-14219000D02*
X19005000Y-4219000D01*
D11*
D10*
X20073000Y-4810000D02*
X20173000Y-4910000D01*
X20173000Y-4810000D02*
X20073000Y-4910000D01*
X20073000Y-5064000D02*
X20173000Y-5164000D01*
X20173000Y-5064000D02*
X20073000Y-5164000D01*
X20073000Y-5318000D02*
X20173000Y-5418000D01*
X20173000Y-5318000D02*
X20073000Y-5418000D01*
X20073000Y-5572000D02*
X20173000Y-5672000D01*
X20173000Y-5572000D02*
X20073000Y-5672000D01*
X20073000Y-5826000D02*
X20173000Y-5926000D01*
X20173000Y-5826000D02*
X20073000Y-5926000D01*
X20073000Y-6080000D02*
X20173000Y-6180000D01*
X20173000Y-6080000D02*
X20073000Y-6180000D01*
X20073000Y-6334000D02*
X20173000Y-6434000D01*
X20173000Y-6334000D02*
X20073000Y-6434000D01*
X20073000Y-6588000D02*
X20173000Y-6688000D01*
X20173000Y-6588000D02*
X20073000Y-6688000D01*
X20073000Y-6842000D02*
X20173000Y-6942000D01*
X20173000Y-6842000D02*
X20073000Y-6942000D01*
X20073000Y-7096000D02*
X20173000Y-7196000D01*
X20173000Y-7096000D02*
X20073000Y-7196000D01*
X20073000Y-7350000D02*
X20173000Y-7450000D01*
X20173000Y-7350000D02*
X20073000Y-7450000D01*
X20073000Y-7604000D02*
X20173000Y-7704000D01*
X20173000Y-7604000D02*
X20073000Y-7704000D01*
X20073000Y-7858000D02*
X20173000Y-7958000D01*
X20173000Y-7858000D02*
X20073000Y-7958000D01*
X20073000Y-8112000D02*
X20173000Y-8212000D01*
X20173000Y-8112000D02*
X20073000Y-8212000D01*
X20073000Y-8366000D02*
X20173000Y-8466000D01*
X20173000Y-8366000D02*
X20073000Y-8466000D01*
X20073000Y-8620000D02*
X20173000Y-8720000D01*
X20173000Y-8620000D02*
X20073000Y-8720000D01*
X20073000Y-8874000D02*
X20173000Y-8974000D01*
X20173000Y-8874000D02*
X20073000Y-8974000D01*
X20073000Y-9128000D02*
X20173000Y-9228000D01*
X20173000Y-9128000D02*
X20073000Y-9228000D01*
X20073000Y-9382000D02*
X20173000Y-9482000D01*
X20173000Y-9382000D02*
X20073000Y-9482000D01*
X20073000Y-9636000D02*
X20173000Y-9736000D01*
X20173000Y-9636000D02*
X20073000Y-9736000D01*
X20073000Y-9890000D02*
X20173000Y-9990000D01*
X20173000Y-9890000D02*
X20073000Y-9990000D01*
X20073000Y-10144000D02*
X20173000Y-10244000D01*
X20173000Y-10144000D02*
X20073000Y-10244000D01*
X20073000Y-10398000D02*
X20173000Y-10498000D01*
X20173000Y-10398000D02*
X20073000Y-10498000D01*
X20073000Y-10652000D02*
X20173000Y-10752000D01*
X20173000Y-10652000D02*
X20073000Y-10752000D01*
X20073000Y-10906000D02*
X20173000Y-11006000D01*
X20173000Y-10906000D02*
X20073000Y-11006000D01*
X20327000Y-4810000D02*
X20427000Y-4910000D01*
X20427000Y-4810000D02*
X20327000Y-4910000D01*
X20327000Y-5064000D02*
X20427000Y-5164000D01*
X20427000Y-5064000D02*
X20327000Y-5164000D01*
X20327000Y-5318000D02*
X20427000Y-5418000D01*
X20427000Y-5318000D02*
X20327000Y-5418000D01*
X20327000Y-5572000D02*
X20427000Y-5672000D01*
X20427000Y-5572000D02*
X20327000Y-5672000D01*
X20327000Y-5826000D02*
X20427000Y-5926000D01*
X20427000Y-5826000D02*
X20327000Y-5926000D01*
X20327000Y-6080000D02*
X20427000Y-6180000D01*
X20427000Y-6080000D02*
X20327000Y-6180000D01*
X20327000Y-6334000D02*
X20427000Y-6434000D01*
X20427000Y-6334000D02*
X20327000Y-6434000D01*
X20327000Y-6588000D02*
X20427000Y-6688000D01*
X20427000Y-6588000D02*
X20327000Y-6688000D01*
X20327000Y-6842000D02*
X20427000Y-6942000D01*
X20427000Y-6842000D02*
X20327000Y-6942000D01*
X20327000Y-7096000D02*
X20427000Y-7196000D01*
X20427000Y-7096000D02*
X20327000Y-7196000D01*
X20327000Y-7350000D02*
X20427000Y-7450000D01*
X20427000Y-7350000D02*
X20327000Y-7450000D01*
X20327000Y-7604000D02*
X20427000Y-7704000D01*
X20427000Y-7604000D02*
X20327000Y-7704000D01*
X20327000Y-7858000D02*
X20427000Y-7958000D01*
X20427000Y-7858000D02*
X20327000Y-7958000D01*
X20327000Y-8112000D02*
X20427000Y-8212000D01*
X20427000Y-8112000D02*
X20327000Y-8212000D01*
X20327000Y-8366000D02*
X20427000Y-8466000D01*
X20427000Y-8366000D02*
X20327000Y-8466000D01*
X20327000Y-8620000D02*
X20427000Y-8720000D01*
X20427000Y-8620000D02*
X20327000Y-8720000D01*
X20327000Y-8874000D02*
X20427000Y-8974000D01*
X20427000Y-8874000D02*
X20327000Y-8974000D01*
X20327000Y-9128000D02*
X20427000Y-9228000D01*
X20427000Y-9128000D02*
X20327000Y-9228000D01*
X20327000Y-9382000D02*
X20427000Y-9482000D01*
X20427000Y-9382000D02*
X20327000Y-9482000D01*
X20327000Y-9636000D02*
X20427000Y-9736000D01*
X20427000Y-9636000D02*
X20327000Y-9736000D01*
X20327000Y-9890000D02*
X20427000Y-9990000D01*
X20427000Y-9890000D02*
X20327000Y-9990000D01*
X20327000Y-10144000D02*
X20427000Y-10244000D01*
X20427000Y-10144000D02*
X20327000Y-10244000D01*
X20327000Y-10398000D02*
X20427000Y-10498000D01*
X20427000Y-10398000D02*
X20327000Y-10498000D01*
X20327000Y-10652000D02*
X20427000Y-10752000D01*
X20427000Y-10652000D02*
X20327000Y-10752000D01*
X20327000Y-10906000D02*
X20427000Y-11006000D01*
X20427000Y-10906000D02*
X20327000Y-11006000D01*
X22290000Y-11572000D02*
X22390000Y-11672000D01*
X22390000Y-11572000D02*
X22290000Y-11672000D01*
X22544000Y-11572000D02*
X22644000Y-11672000D01*
X22644000Y-11572000D02*
X22544000Y-11672000D01*
X22798000Y-11572000D02*
X22898000Y-11672000D01*
X22898000Y-11572000D02*
X22798000Y-11672000D01*
X23052000Y-11572000D02*
X23152000Y-11672000D01*
X23152000Y-11572000D02*
X23052000Y-11672000D01*
X25153000Y-4810000D02*
X25253000Y-4910000D01*
X25253000Y-4810000D02*
X25153000Y-4910000D01*
X25153000Y-5064000D02*
X25253000Y-5164000D01*
X25253000Y-5064000D02*
X25153000Y-5164000D01*
X25153000Y-5318000D02*
X25253000Y-5418000D01*
X25253000Y-5318000D02*
X25153000Y-5418000D01*
X25153000Y-5572000D02*
X25253000Y-5672000D01*
X25253000Y-5572000D02*
X25153000Y-5672000D01*
X25153000Y-5826000D02*
X25253000Y-5926000D01*
X25253000Y-5826000D02*
X25153000Y-5926000D01*
X25153000Y-6080000D02*
X25253000Y-6180000D01*
X25253000Y-6080000D02*
X25153000Y-6180000D01*
X25153000Y-6334000D02*
X25253000Y-6434000D01*
X25253000Y-6334000D02*
X25153000Y-6434000D01*
X25153000Y-6588000D02*
X25253000Y-6688000D01*
X25253000Y-6588000D02*
X25153000Y-6688000D01*
X25153000Y-6842000D02*
X25253000Y-6942000D01*
X25253000Y-6842000D02*
X25153000Y-6942000D01*
X25153000Y-7096000D02*
X25253000Y-7196000D01*
X25253000Y-7096000D02*
X25153000Y-7196000D01*
X25153000Y-7350000D02*
X25253000Y-7450000D01*
X25253000Y-7350000D02*
X25153000Y-7450000D01*
X25153000Y-7604000D02*
X25253000Y-7704000D01*
X25253000Y-7604000D02*
X25153000Y-7704000D01*
X25153000Y-7858000D02*
X25253000Y-7958000D01*
X25253000Y-7858000D02*
X25153000Y-7958000D01*
X25153000Y-8112000D02*
X25253000Y-8212000D01*
X25253000Y-8112000D02*
X25153000Y-8212000D01*
X25153000Y-8366000D02*
X25253000Y-8466000D01*
X25253000Y-8366000D02*
X25153000Y-8466000D01*
X25153000Y-8620000D02*
X25253000Y-8720000D01*
X25253000Y-8620000D02*
X25153000Y-8720000D01*
X25153000Y-8874000D02*
X25253000Y-8974000D01*
X25253000Y-8874000D02*
X25153000Y-8974000D01*
X25153000Y-9128000D02*
X25253000Y-9228000D01*
X25253000Y-9128000D02*
X25153000Y-9228000D01*
X25153000Y-9382000D02*
X25253000Y-9482000D01*
X25253000Y-9382000D02*
X25153000Y-9482000D01*
X25153000Y-9636000D02*
X25253000Y-9736000D01*
X25253000Y-9636000D02*
X25153000Y-9736000D01*
X25153000Y-9890000D02*
X25253000Y-9990000D01*
X25253000Y-9890000D02*
X25153000Y-9990000D01*
X25153000Y-10144000D02*
X25253000Y-10244000D01*
X25253000Y-10144000D02*
X25153000Y-10244000D01*
X25153000Y-10398000D02*
X25253000Y-10498000D01*
X25253000Y-10398000D02*
X25153000Y-10498000D01*
X25153000Y-10652000D02*
X25253000Y-10752000D01*
X25253000Y-10652000D02*
X25153000Y-10752000D01*
X25153000Y-10906000D02*
X25253000Y-11006000D01*
X25253000Y-10906000D02*
X25153000Y-11006000D01*
X25407000Y-4810000D02*
X25507000Y-4910000D01*
X25507000Y-4810000D02*
X25407000Y-4910000D01*
X25407000Y-5064000D02*
X25507000Y-5164000D01*
X25507000Y-5064000D02*
X25407000Y-5164000D01*
X25407000Y-5318000D02*
X25507000Y-5418000D01*
X25507000Y-5318000D02*
X25407000Y-5418000D01*
X25407000Y-5572000D02*
X25507000Y-5672000D01*
X25507000Y-5572000D02*
X25407000Y-5672000D01*
X25407000Y-5826000D02*
X25507000Y-5926000D01*
X25507000Y-5826000D02*
X25407000Y-5926000D01*
X25407000Y-6080000D02*
X25507000Y-6180000D01*
X25507000Y-6080000D02*
X25407000Y-6180000D01*
X25407000Y-6334000D02*
X25507000Y-6434000D01*
X25507000Y-6334000D02*
X25407000Y-6434000D01*
X25407000Y-6588000D02*
X25507000Y-6688000D01*
X25507000Y-6588000D02*
X25407000Y-6688000D01*
X25407000Y-6842000D02*
X25507000Y-6942000D01*
X25507000Y-6842000D02*
X25407000Y-6942000D01*
X25407000Y-7096000D02*
X25507000Y-7196000D01*
X25507000Y-7096000D02*
X25407000Y-7196000D01*
X25407000Y-7350000D02*
X25507000Y-7450000D01*
X25507000Y-7350000D02*
X25407000Y-7450000D01*
X25407000Y-7604000D02*
X25507000Y-7704000D01*
X25507000Y-7604000D02*
X25407000Y-7704000D01*
X25407000Y-7858000D02*
X25507000Y-7958000D01*
X25507000Y-7858000D02*
X25407000Y-7958000D01*
X25407000Y-8112000D02*
X25507000Y-8212000D01*
X25507000Y-8112000D02*
X25407000Y-8212000D01*
X25407000Y-8366000D02*
X25507000Y-8466000D01*
X25507000Y-8366000D02*
X25407000Y-8466000D01*
X25407000Y-8620000D02*
X25507000Y-8720000D01*
X25507000Y-8620000D02*
X25407000Y-8720000D01*
X25407000Y-8874000D02*
X25507000Y-8974000D01*
X25507000Y-8874000D02*
X25407000Y-8974000D01*
X25407000Y-9128000D02*
X25507000Y-9228000D01*
X25507000Y-9128000D02*
X25407000Y-9228000D01*
X25407000Y-9382000D02*
X25507000Y-9482000D01*
X25507000Y-9382000D02*
X25407000Y-9482000D01*
X25407000Y-9636000D02*
X25507000Y-9736000D01*
X25507000Y-9636000D02*
X25407000Y-9736000D01*
X25407000Y-9890000D02*
X25507000Y-9990000D01*
X25507000Y-9890000D02*
X25407000Y-9990000D01*
X25407000Y-10144000D02*
X25507000Y-10244000D01*
X25507000Y-10144000D02*
X25407000Y-10244000D01*
X25407000Y-10398000D02*
X25507000Y-10498000D01*
X25507000Y-10398000D02*
X25407000Y-10498000D01*
X25407000Y-10652000D02*
X25507000Y-10752000D01*
X25507000Y-10652000D02*
X25407000Y-10752000D01*
X25407000Y-10906000D02*
X25507000Y-11006000D01*
X25507000Y-10906000D02*
X25407000Y-11006000D01*
D11*
X19247619Y-14517476D02*
X19247619Y-14317476D01*
X19247619Y-14317476D02*
X19295238Y-14317476D01*
X19295238Y-14317476D02*
X19323810Y-14327000D01*
X19323810Y-14327000D02*
X19342857Y-14346048D01*
X19342857Y-14346048D02*
X19352381Y-14365095D01*
X19352381Y-14365095D02*
X19361905Y-14403190D01*
X19361905Y-14403190D02*
X19361905Y-14431762D01*
X19361905Y-14431762D02*
X19352381Y-14469857D01*
X19352381Y-14469857D02*
X19342857Y-14488905D01*
X19342857Y-14488905D02*
X19323810Y-14507952D01*
X19323810Y-14507952D02*
X19295238Y-14517476D01*
X19295238Y-14517476D02*
X19247619Y-14517476D01*
X19447619Y-14517476D02*
X19447619Y-14384143D01*
X19447619Y-14422238D02*
X19457143Y-14403190D01*
X19457143Y-14403190D02*
X19466667Y-14393667D01*
X19466667Y-14393667D02*
X19485714Y-14384143D01*
X19485714Y-14384143D02*
X19504762Y-14384143D01*
X19571429Y-14517476D02*
X19571429Y-14384143D01*
X19571429Y-14317476D02*
X19561905Y-14327000D01*
X19561905Y-14327000D02*
X19571429Y-14336524D01*
X19571429Y-14336524D02*
X19580952Y-14327000D01*
X19580952Y-14327000D02*
X19571429Y-14317476D01*
X19571429Y-14317476D02*
X19571429Y-14336524D01*
X19695238Y-14517476D02*
X19676190Y-14507952D01*
X19676190Y-14507952D02*
X19666667Y-14488905D01*
X19666667Y-14488905D02*
X19666667Y-14317476D01*
X19800000Y-14517476D02*
X19780952Y-14507952D01*
X19780952Y-14507952D02*
X19771429Y-14488905D01*
X19771429Y-14488905D02*
X19771429Y-14317476D01*
X19996190Y-14517476D02*
X19996190Y-14317476D01*
X19996190Y-14317476D02*
X20062857Y-14460333D01*
X20062857Y-14460333D02*
X20129524Y-14317476D01*
X20129524Y-14317476D02*
X20129524Y-14517476D01*
X20310476Y-14517476D02*
X20310476Y-14412714D01*
X20310476Y-14412714D02*
X20300952Y-14393667D01*
X20300952Y-14393667D02*
X20281905Y-14384143D01*
X20281905Y-14384143D02*
X20243809Y-14384143D01*
X20243809Y-14384143D02*
X20224762Y-14393667D01*
X20310476Y-14507952D02*
X20291429Y-14517476D01*
X20291429Y-14517476D02*
X20243809Y-14517476D01*
X20243809Y-14517476D02*
X20224762Y-14507952D01*
X20224762Y-14507952D02*
X20215238Y-14488905D01*
X20215238Y-14488905D02*
X20215238Y-14469857D01*
X20215238Y-14469857D02*
X20224762Y-14450809D01*
X20224762Y-14450809D02*
X20243809Y-14441286D01*
X20243809Y-14441286D02*
X20291429Y-14441286D01*
X20291429Y-14441286D02*
X20310476Y-14431762D01*
X20405714Y-14384143D02*
X20405714Y-14584143D01*
X20405714Y-14393667D02*
X20424762Y-14384143D01*
X20424762Y-14384143D02*
X20462857Y-14384143D01*
X20462857Y-14384143D02*
X20481905Y-14393667D01*
X20481905Y-14393667D02*
X20491429Y-14403190D01*
X20491429Y-14403190D02*
X20500952Y-14422238D01*
X20500952Y-14422238D02*
X20500952Y-14479381D01*
X20500952Y-14479381D02*
X20491429Y-14498428D01*
X20491429Y-14498428D02*
X20481905Y-14507952D01*
X20481905Y-14507952D02*
X20462857Y-14517476D01*
X20462857Y-14517476D02*
X20424762Y-14517476D01*
X20424762Y-14517476D02*
X20405714Y-14507952D01*
X20586667Y-14498428D02*
X20596190Y-14507952D01*
X20596190Y-14507952D02*
X20586667Y-14517476D01*
X20586667Y-14517476D02*
X20577143Y-14507952D01*
X20577143Y-14507952D02*
X20586667Y-14498428D01*
X20586667Y-14498428D02*
X20586667Y-14517476D01*
X20586667Y-14393667D02*
X20596190Y-14403190D01*
X20596190Y-14403190D02*
X20586667Y-14412714D01*
X20586667Y-14412714D02*
X20577143Y-14403190D01*
X20577143Y-14403190D02*
X20586667Y-14393667D01*
X20586667Y-14393667D02*
X20586667Y-14412714D01*
D10*
X18900000Y-14814000D02*
X19000000Y-14914000D01*
X19000000Y-14814000D02*
X18900000Y-14914000D01*
D11*
X19352381Y-14937476D02*
X19238095Y-14937476D01*
X19295238Y-14937476D02*
X19295238Y-14737476D01*
X19295238Y-14737476D02*
X19276190Y-14766048D01*
X19276190Y-14766048D02*
X19257143Y-14785095D01*
X19257143Y-14785095D02*
X19238095Y-14794619D01*
X19438095Y-14918428D02*
X19447619Y-14927952D01*
X19447619Y-14927952D02*
X19438095Y-14937476D01*
X19438095Y-14937476D02*
X19428571Y-14927952D01*
X19428571Y-14927952D02*
X19438095Y-14918428D01*
X19438095Y-14918428D02*
X19438095Y-14937476D01*
X19571429Y-14737476D02*
X19590476Y-14737476D01*
X19590476Y-14737476D02*
X19609524Y-14747000D01*
X19609524Y-14747000D02*
X19619048Y-14756524D01*
X19619048Y-14756524D02*
X19628571Y-14775571D01*
X19628571Y-14775571D02*
X19638095Y-14813667D01*
X19638095Y-14813667D02*
X19638095Y-14861286D01*
X19638095Y-14861286D02*
X19628571Y-14899381D01*
X19628571Y-14899381D02*
X19619048Y-14918428D01*
X19619048Y-14918428D02*
X19609524Y-14927952D01*
X19609524Y-14927952D02*
X19590476Y-14937476D01*
X19590476Y-14937476D02*
X19571429Y-14937476D01*
X19571429Y-14937476D02*
X19552381Y-14927952D01*
X19552381Y-14927952D02*
X19542857Y-14918428D01*
X19542857Y-14918428D02*
X19533333Y-14899381D01*
X19533333Y-14899381D02*
X19523810Y-14861286D01*
X19523810Y-14861286D02*
X19523810Y-14813667D01*
X19523810Y-14813667D02*
X19533333Y-14775571D01*
X19533333Y-14775571D02*
X19542857Y-14756524D01*
X19542857Y-14756524D02*
X19552381Y-14747000D01*
X19552381Y-14747000D02*
X19571429Y-14737476D01*
X19761905Y-14737476D02*
X19780952Y-14737476D01*
X19780952Y-14737476D02*
X19800000Y-14747000D01*
X19800000Y-14747000D02*
X19809524Y-14756524D01*
X19809524Y-14756524D02*
X19819048Y-14775571D01*
X19819048Y-14775571D02*
X19828571Y-14813667D01*
X19828571Y-14813667D02*
X19828571Y-14861286D01*
X19828571Y-14861286D02*
X19819048Y-14899381D01*
X19819048Y-14899381D02*
X19809524Y-14918428D01*
X19809524Y-14918428D02*
X19800000Y-14927952D01*
X19800000Y-14927952D02*
X19780952Y-14937476D01*
X19780952Y-14937476D02*
X19761905Y-14937476D01*
X19761905Y-14937476D02*
X19742857Y-14927952D01*
X19742857Y-14927952D02*
X19733333Y-14918428D01*
X19733333Y-14918428D02*
X19723810Y-14899381D01*
X19723810Y-14899381D02*
X19714286Y-14861286D01*
X19714286Y-14861286D02*
X19714286Y-14813667D01*
X19714286Y-14813667D02*
X19723810Y-14775571D01*
X19723810Y-14775571D02*
X19733333Y-14756524D01*
X19733333Y-14756524D02*
X19742857Y-14747000D01*
X19742857Y-14747000D02*
X19761905Y-14737476D01*
X19952381Y-14737476D02*
X19971429Y-14737476D01*
X19971429Y-14737476D02*
X19990476Y-14747000D01*
X19990476Y-14747000D02*
X20000000Y-14756524D01*
X20000000Y-14756524D02*
X20009524Y-14775571D01*
X20009524Y-14775571D02*
X20019048Y-14813667D01*
X20019048Y-14813667D02*
X20019048Y-14861286D01*
X20019048Y-14861286D02*
X20009524Y-14899381D01*
X20009524Y-14899381D02*
X20000000Y-14918428D01*
X20000000Y-14918428D02*
X19990476Y-14927952D01*
X19990476Y-14927952D02*
X19971429Y-14937476D01*
X19971429Y-14937476D02*
X19952381Y-14937476D01*
X19952381Y-14937476D02*
X19933333Y-14927952D01*
X19933333Y-14927952D02*
X19923810Y-14918428D01*
X19923810Y-14918428D02*
X19914286Y-14899381D01*
X19914286Y-14899381D02*
X19904762Y-14861286D01*
X19904762Y-14861286D02*
X19904762Y-14813667D01*
X19904762Y-14813667D02*
X19914286Y-14775571D01*
X19914286Y-14775571D02*
X19923810Y-14756524D01*
X19923810Y-14756524D02*
X19933333Y-14747000D01*
X19933333Y-14747000D02*
X19952381Y-14737476D01*
X20104762Y-14937476D02*
X20104762Y-14804143D01*
X20104762Y-14823190D02*
X20114286Y-14813667D01*
X20114286Y-14813667D02*
X20133333Y-14804143D01*
X20133333Y-14804143D02*
X20161905Y-14804143D01*
X20161905Y-14804143D02*
X20180952Y-14813667D01*
X20180952Y-14813667D02*
X20190476Y-14832714D01*
X20190476Y-14832714D02*
X20190476Y-14937476D01*
X20190476Y-14832714D02*
X20200000Y-14813667D01*
X20200000Y-14813667D02*
X20219048Y-14804143D01*
X20219048Y-14804143D02*
X20247619Y-14804143D01*
X20247619Y-14804143D02*
X20266667Y-14813667D01*
X20266667Y-14813667D02*
X20276191Y-14832714D01*
X20276191Y-14832714D02*
X20276191Y-14937476D01*
X20371429Y-14937476D02*
X20371429Y-14804143D01*
X20371429Y-14823190D02*
X20380952Y-14813667D01*
X20380952Y-14813667D02*
X20400000Y-14804143D01*
X20400000Y-14804143D02*
X20428572Y-14804143D01*
X20428572Y-14804143D02*
X20447619Y-14813667D01*
X20447619Y-14813667D02*
X20457143Y-14832714D01*
X20457143Y-14832714D02*
X20457143Y-14937476D01*
X20457143Y-14832714D02*
X20466667Y-14813667D01*
X20466667Y-14813667D02*
X20485714Y-14804143D01*
X20485714Y-14804143D02*
X20514286Y-14804143D01*
X20514286Y-14804143D02*
X20533333Y-14813667D01*
X20533333Y-14813667D02*
X20542857Y-14832714D01*
X20542857Y-14832714D02*
X20542857Y-14937476D01*
X20900952Y-14727952D02*
X20729524Y-14985095D01*
X21125714Y-14737476D02*
X21144762Y-14737476D01*
X21144762Y-14737476D02*
X21163810Y-14747000D01*
X21163810Y-14747000D02*
X21173333Y-14756524D01*
X21173333Y-14756524D02*
X21182857Y-14775571D01*
X21182857Y-14775571D02*
X21192381Y-14813667D01*
X21192381Y-14813667D02*
X21192381Y-14861286D01*
X21192381Y-14861286D02*
X21182857Y-14899381D01*
X21182857Y-14899381D02*
X21173333Y-14918428D01*
X21173333Y-14918428D02*
X21163810Y-14927952D01*
X21163810Y-14927952D02*
X21144762Y-14937476D01*
X21144762Y-14937476D02*
X21125714Y-14937476D01*
X21125714Y-14937476D02*
X21106667Y-14927952D01*
X21106667Y-14927952D02*
X21097143Y-14918428D01*
X21097143Y-14918428D02*
X21087619Y-14899381D01*
X21087619Y-14899381D02*
X21078095Y-14861286D01*
X21078095Y-14861286D02*
X21078095Y-14813667D01*
X21078095Y-14813667D02*
X21087619Y-14775571D01*
X21087619Y-14775571D02*
X21097143Y-14756524D01*
X21097143Y-14756524D02*
X21106667Y-14747000D01*
X21106667Y-14747000D02*
X21125714Y-14737476D01*
X21278095Y-14918428D02*
X21287619Y-14927952D01*
X21287619Y-14927952D02*
X21278095Y-14937476D01*
X21278095Y-14937476D02*
X21268572Y-14927952D01*
X21268572Y-14927952D02*
X21278095Y-14918428D01*
X21278095Y-14918428D02*
X21278095Y-14937476D01*
X21411429Y-14737476D02*
X21430476Y-14737476D01*
X21430476Y-14737476D02*
X21449524Y-14747000D01*
X21449524Y-14747000D02*
X21459048Y-14756524D01*
X21459048Y-14756524D02*
X21468572Y-14775571D01*
X21468572Y-14775571D02*
X21478095Y-14813667D01*
X21478095Y-14813667D02*
X21478095Y-14861286D01*
X21478095Y-14861286D02*
X21468572Y-14899381D01*
X21468572Y-14899381D02*
X21459048Y-14918428D01*
X21459048Y-14918428D02*
X21449524Y-14927952D01*
X21449524Y-14927952D02*
X21430476Y-14937476D01*
X21430476Y-14937476D02*
X21411429Y-14937476D01*
X21411429Y-14937476D02*
X21392381Y-14927952D01*
X21392381Y-14927952D02*
X21382857Y-14918428D01*
X21382857Y-14918428D02*
X21373333Y-14899381D01*
X21373333Y-14899381D02*
X21363810Y-14861286D01*
X21363810Y-14861286D02*
X21363810Y-14813667D01*
X21363810Y-14813667D02*
X21373333Y-14775571D01*
X21373333Y-14775571D02*
X21382857Y-14756524D01*
X21382857Y-14756524D02*
X21392381Y-14747000D01*
X21392381Y-14747000D02*
X21411429Y-14737476D01*
X21544762Y-14737476D02*
X21668572Y-14737476D01*
X21668572Y-14737476D02*
X21601905Y-14813667D01*
X21601905Y-14813667D02*
X21630476Y-14813667D01*
X21630476Y-14813667D02*
X21649524Y-14823190D01*
X21649524Y-14823190D02*
X21659048Y-14832714D01*
X21659048Y-14832714D02*
X21668572Y-14851762D01*
X21668572Y-14851762D02*
X21668572Y-14899381D01*
X21668572Y-14899381D02*
X21659048Y-14918428D01*
X21659048Y-14918428D02*
X21649524Y-14927952D01*
X21649524Y-14927952D02*
X21630476Y-14937476D01*
X21630476Y-14937476D02*
X21573333Y-14937476D01*
X21573333Y-14937476D02*
X21554286Y-14927952D01*
X21554286Y-14927952D02*
X21544762Y-14918428D01*
X21763810Y-14937476D02*
X21801905Y-14937476D01*
X21801905Y-14937476D02*
X21820953Y-14927952D01*
X21820953Y-14927952D02*
X21830476Y-14918428D01*
X21830476Y-14918428D02*
X21849524Y-14889857D01*
X21849524Y-14889857D02*
X21859048Y-14851762D01*
X21859048Y-14851762D02*
X21859048Y-14775571D01*
X21859048Y-14775571D02*
X21849524Y-14756524D01*
X21849524Y-14756524D02*
X21840000Y-14747000D01*
X21840000Y-14747000D02*
X21820953Y-14737476D01*
X21820953Y-14737476D02*
X21782857Y-14737476D01*
X21782857Y-14737476D02*
X21763810Y-14747000D01*
X21763810Y-14747000D02*
X21754286Y-14756524D01*
X21754286Y-14756524D02*
X21744762Y-14775571D01*
X21744762Y-14775571D02*
X21744762Y-14823190D01*
X21744762Y-14823190D02*
X21754286Y-14842238D01*
X21754286Y-14842238D02*
X21763810Y-14851762D01*
X21763810Y-14851762D02*
X21782857Y-14861286D01*
X21782857Y-14861286D02*
X21820953Y-14861286D01*
X21820953Y-14861286D02*
X21840000Y-14851762D01*
X21840000Y-14851762D02*
X21849524Y-14842238D01*
X21849524Y-14842238D02*
X21859048Y-14823190D01*
X22030476Y-14804143D02*
X22030476Y-14937476D01*
X21982857Y-14727952D02*
X21935238Y-14870809D01*
X21935238Y-14870809D02*
X22059048Y-14870809D01*
X22125714Y-14737476D02*
X22125714Y-14775571D01*
X22201905Y-14737476D02*
X22201905Y-14775571D01*
X22464762Y-15013667D02*
X22455238Y-15004143D01*
X22455238Y-15004143D02*
X22436191Y-14975571D01*
X22436191Y-14975571D02*
X22426667Y-14956524D01*
X22426667Y-14956524D02*
X22417143Y-14927952D01*
X22417143Y-14927952D02*
X22407619Y-14880333D01*
X22407619Y-14880333D02*
X22407619Y-14842238D01*
X22407619Y-14842238D02*
X22417143Y-14794619D01*
X22417143Y-14794619D02*
X22426667Y-14766048D01*
X22426667Y-14766048D02*
X22436191Y-14747000D01*
X22436191Y-14747000D02*
X22455238Y-14718428D01*
X22455238Y-14718428D02*
X22464762Y-14708905D01*
X22645714Y-14937476D02*
X22531429Y-14937476D01*
X22588571Y-14937476D02*
X22588571Y-14737476D01*
X22588571Y-14737476D02*
X22569524Y-14766048D01*
X22569524Y-14766048D02*
X22550476Y-14785095D01*
X22550476Y-14785095D02*
X22531429Y-14794619D01*
X22769524Y-14737476D02*
X22788572Y-14737476D01*
X22788572Y-14737476D02*
X22807619Y-14747000D01*
X22807619Y-14747000D02*
X22817143Y-14756524D01*
X22817143Y-14756524D02*
X22826667Y-14775571D01*
X22826667Y-14775571D02*
X22836191Y-14813667D01*
X22836191Y-14813667D02*
X22836191Y-14861286D01*
X22836191Y-14861286D02*
X22826667Y-14899381D01*
X22826667Y-14899381D02*
X22817143Y-14918428D01*
X22817143Y-14918428D02*
X22807619Y-14927952D01*
X22807619Y-14927952D02*
X22788572Y-14937476D01*
X22788572Y-14937476D02*
X22769524Y-14937476D01*
X22769524Y-14937476D02*
X22750476Y-14927952D01*
X22750476Y-14927952D02*
X22740952Y-14918428D01*
X22740952Y-14918428D02*
X22731429Y-14899381D01*
X22731429Y-14899381D02*
X22721905Y-14861286D01*
X22721905Y-14861286D02*
X22721905Y-14813667D01*
X22721905Y-14813667D02*
X22731429Y-14775571D01*
X22731429Y-14775571D02*
X22740952Y-14756524D01*
X22740952Y-14756524D02*
X22750476Y-14747000D01*
X22750476Y-14747000D02*
X22769524Y-14737476D01*
X23007619Y-14804143D02*
X23007619Y-14937476D01*
X22960000Y-14727952D02*
X22912381Y-14870809D01*
X22912381Y-14870809D02*
X23036191Y-14870809D01*
X23232381Y-14937476D02*
X23232381Y-14737476D01*
X23318095Y-14937476D02*
X23318095Y-14832714D01*
X23318095Y-14832714D02*
X23308572Y-14813667D01*
X23308572Y-14813667D02*
X23289524Y-14804143D01*
X23289524Y-14804143D02*
X23260952Y-14804143D01*
X23260952Y-14804143D02*
X23241905Y-14813667D01*
X23241905Y-14813667D02*
X23232381Y-14823190D01*
X23441905Y-14937476D02*
X23422857Y-14927952D01*
X23422857Y-14927952D02*
X23413333Y-14918428D01*
X23413333Y-14918428D02*
X23403810Y-14899381D01*
X23403810Y-14899381D02*
X23403810Y-14842238D01*
X23403810Y-14842238D02*
X23413333Y-14823190D01*
X23413333Y-14823190D02*
X23422857Y-14813667D01*
X23422857Y-14813667D02*
X23441905Y-14804143D01*
X23441905Y-14804143D02*
X23470476Y-14804143D01*
X23470476Y-14804143D02*
X23489524Y-14813667D01*
X23489524Y-14813667D02*
X23499048Y-14823190D01*
X23499048Y-14823190D02*
X23508572Y-14842238D01*
X23508572Y-14842238D02*
X23508572Y-14899381D01*
X23508572Y-14899381D02*
X23499048Y-14918428D01*
X23499048Y-14918428D02*
X23489524Y-14927952D01*
X23489524Y-14927952D02*
X23470476Y-14937476D01*
X23470476Y-14937476D02*
X23441905Y-14937476D01*
X23622857Y-14937476D02*
X23603810Y-14927952D01*
X23603810Y-14927952D02*
X23594286Y-14908905D01*
X23594286Y-14908905D02*
X23594286Y-14737476D01*
X23775238Y-14927952D02*
X23756191Y-14937476D01*
X23756191Y-14937476D02*
X23718095Y-14937476D01*
X23718095Y-14937476D02*
X23699048Y-14927952D01*
X23699048Y-14927952D02*
X23689524Y-14908905D01*
X23689524Y-14908905D02*
X23689524Y-14832714D01*
X23689524Y-14832714D02*
X23699048Y-14813667D01*
X23699048Y-14813667D02*
X23718095Y-14804143D01*
X23718095Y-14804143D02*
X23756191Y-14804143D01*
X23756191Y-14804143D02*
X23775238Y-14813667D01*
X23775238Y-14813667D02*
X23784762Y-14832714D01*
X23784762Y-14832714D02*
X23784762Y-14851762D01*
X23784762Y-14851762D02*
X23689524Y-14870809D01*
X23860953Y-14927952D02*
X23880000Y-14937476D01*
X23880000Y-14937476D02*
X23918095Y-14937476D01*
X23918095Y-14937476D02*
X23937143Y-14927952D01*
X23937143Y-14927952D02*
X23946667Y-14908905D01*
X23946667Y-14908905D02*
X23946667Y-14899381D01*
X23946667Y-14899381D02*
X23937143Y-14880333D01*
X23937143Y-14880333D02*
X23918095Y-14870809D01*
X23918095Y-14870809D02*
X23889524Y-14870809D01*
X23889524Y-14870809D02*
X23870476Y-14861286D01*
X23870476Y-14861286D02*
X23860953Y-14842238D01*
X23860953Y-14842238D02*
X23860953Y-14832714D01*
X23860953Y-14832714D02*
X23870476Y-14813667D01*
X23870476Y-14813667D02*
X23889524Y-14804143D01*
X23889524Y-14804143D02*
X23918095Y-14804143D01*
X23918095Y-14804143D02*
X23937143Y-14813667D01*
X24013334Y-15013667D02*
X24022857Y-15004143D01*
X24022857Y-15004143D02*
X24041905Y-14975571D01*
X24041905Y-14975571D02*
X24051429Y-14956524D01*
X24051429Y-14956524D02*
X24060953Y-14927952D01*
X24060953Y-14927952D02*
X24070476Y-14880333D01*
X24070476Y-14880333D02*
X24070476Y-14842238D01*
X24070476Y-14842238D02*
X24060953Y-14794619D01*
X24060953Y-14794619D02*
X24051429Y-14766048D01*
X24051429Y-14766048D02*
X24041905Y-14747000D01*
X24041905Y-14747000D02*
X24022857Y-14718428D01*
X24022857Y-14718428D02*
X24013334Y-14708905D01*
M02*
