%TF.GenerationSoftware,KiCad,Pcbnew,(7.0.0)*%
%TF.CreationDate,2023-06-01T06:11:30-06:00*%
%TF.ProjectId,Phase_D_STM32_v1,50686173-655f-4445-9f53-544d33325f76,rev?*%
%TF.SameCoordinates,Original*%
%TF.FileFunction,Drillmap*%
%TF.FilePolarity,Positive*%
%FSLAX45Y45*%
G04 Gerber Fmt 4.5, Leading zero omitted, Abs format (unit mm)*
G04 Created by KiCad (PCBNEW (7.0.0)) date 2023-06-01 06:11:30*
%MOMM*%
%LPD*%
G01*
G04 APERTURE LIST*
%ADD10C,0.100000*%
%ADD11C,0.200000*%
G04 APERTURE END LIST*
D10*
X19005000Y-4219000D02*
X26505000Y-4219000D01*
X26505000Y-4219000D02*
X26505000Y-14219000D01*
X26505000Y-14219000D02*
X19005000Y-14219000D01*
X19005000Y-14219000D02*
X19005000Y-4219000D01*
D11*
X19247619Y-14517476D02*
X19247619Y-14317476D01*
X19247619Y-14317476D02*
X19295238Y-14317476D01*
X19295238Y-14317476D02*
X19323810Y-14327000D01*
X19323810Y-14327000D02*
X19342857Y-14346048D01*
X19342857Y-14346048D02*
X19352381Y-14365095D01*
X19352381Y-14365095D02*
X19361905Y-14403190D01*
X19361905Y-14403190D02*
X19361905Y-14431762D01*
X19361905Y-14431762D02*
X19352381Y-14469857D01*
X19352381Y-14469857D02*
X19342857Y-14488905D01*
X19342857Y-14488905D02*
X19323810Y-14507952D01*
X19323810Y-14507952D02*
X19295238Y-14517476D01*
X19295238Y-14517476D02*
X19247619Y-14517476D01*
X19447619Y-14517476D02*
X19447619Y-14384143D01*
X19447619Y-14422238D02*
X19457143Y-14403190D01*
X19457143Y-14403190D02*
X19466667Y-14393667D01*
X19466667Y-14393667D02*
X19485714Y-14384143D01*
X19485714Y-14384143D02*
X19504762Y-14384143D01*
X19571429Y-14517476D02*
X19571429Y-14384143D01*
X19571429Y-14317476D02*
X19561905Y-14327000D01*
X19561905Y-14327000D02*
X19571429Y-14336524D01*
X19571429Y-14336524D02*
X19580952Y-14327000D01*
X19580952Y-14327000D02*
X19571429Y-14317476D01*
X19571429Y-14317476D02*
X19571429Y-14336524D01*
X19695238Y-14517476D02*
X19676190Y-14507952D01*
X19676190Y-14507952D02*
X19666667Y-14488905D01*
X19666667Y-14488905D02*
X19666667Y-14317476D01*
X19800000Y-14517476D02*
X19780952Y-14507952D01*
X19780952Y-14507952D02*
X19771429Y-14488905D01*
X19771429Y-14488905D02*
X19771429Y-14317476D01*
X19996190Y-14517476D02*
X19996190Y-14317476D01*
X19996190Y-14317476D02*
X20062857Y-14460333D01*
X20062857Y-14460333D02*
X20129524Y-14317476D01*
X20129524Y-14317476D02*
X20129524Y-14517476D01*
X20310476Y-14517476D02*
X20310476Y-14412714D01*
X20310476Y-14412714D02*
X20300952Y-14393667D01*
X20300952Y-14393667D02*
X20281905Y-14384143D01*
X20281905Y-14384143D02*
X20243809Y-14384143D01*
X20243809Y-14384143D02*
X20224762Y-14393667D01*
X20310476Y-14507952D02*
X20291429Y-14517476D01*
X20291429Y-14517476D02*
X20243809Y-14517476D01*
X20243809Y-14517476D02*
X20224762Y-14507952D01*
X20224762Y-14507952D02*
X20215238Y-14488905D01*
X20215238Y-14488905D02*
X20215238Y-14469857D01*
X20215238Y-14469857D02*
X20224762Y-14450809D01*
X20224762Y-14450809D02*
X20243809Y-14441286D01*
X20243809Y-14441286D02*
X20291429Y-14441286D01*
X20291429Y-14441286D02*
X20310476Y-14431762D01*
X20405714Y-14384143D02*
X20405714Y-14584143D01*
X20405714Y-14393667D02*
X20424762Y-14384143D01*
X20424762Y-14384143D02*
X20462857Y-14384143D01*
X20462857Y-14384143D02*
X20481905Y-14393667D01*
X20481905Y-14393667D02*
X20491429Y-14403190D01*
X20491429Y-14403190D02*
X20500952Y-14422238D01*
X20500952Y-14422238D02*
X20500952Y-14479381D01*
X20500952Y-14479381D02*
X20491429Y-14498428D01*
X20491429Y-14498428D02*
X20481905Y-14507952D01*
X20481905Y-14507952D02*
X20462857Y-14517476D01*
X20462857Y-14517476D02*
X20424762Y-14517476D01*
X20424762Y-14517476D02*
X20405714Y-14507952D01*
X20586667Y-14498428D02*
X20596190Y-14507952D01*
X20596190Y-14507952D02*
X20586667Y-14517476D01*
X20586667Y-14517476D02*
X20577143Y-14507952D01*
X20577143Y-14507952D02*
X20586667Y-14498428D01*
X20586667Y-14498428D02*
X20586667Y-14517476D01*
X20586667Y-14393667D02*
X20596190Y-14403190D01*
X20596190Y-14403190D02*
X20586667Y-14412714D01*
X20586667Y-14412714D02*
X20577143Y-14403190D01*
X20577143Y-14403190D02*
X20586667Y-14393667D01*
X20586667Y-14393667D02*
X20586667Y-14412714D01*
M02*
