M48
; DRILL file {KiCad (7.0.0)} date Thu Jun  1 06:11:29 2023
; FORMAT={-:-/ absolute / inch / decimal}
; #@! TF.CreationDate,2023-06-01T06:11:29-06:00
; #@! TF.GenerationSoftware,Kicad,Pcbnew,(7.0.0)
; #@! TF.FileFunction,Plated,1,2,PTH
FMAT,2
INCH
; #@! TA.AperFunction,Plated,PTH,ComponentDrill
T1C0.0394
%
G90
G05
T1
X7.9224Y-1.9134
X7.9224Y-2.0134
X7.9224Y-2.1134
X7.9224Y-2.2134
X7.9224Y-2.3134
X7.9224Y-2.4134
X7.9224Y-2.5134
X7.9224Y-2.6134
X7.9224Y-2.7134
X7.9224Y-2.8134
X7.9224Y-2.9134
X7.9224Y-3.0134
X7.9224Y-3.1134
X7.9224Y-3.2134
X7.9224Y-3.3134
X7.9224Y-3.4134
X7.9224Y-3.5134
X7.9224Y-3.6134
X7.9224Y-3.7134
X7.9224Y-3.8134
X7.9224Y-3.9134
X7.9224Y-4.0134
X7.9224Y-4.1134
X7.9224Y-4.2134
X7.9224Y-4.3134
X8.0224Y-1.9134
X8.0224Y-2.0134
X8.0224Y-2.1134
X8.0224Y-2.2134
X8.0224Y-2.3134
X8.0224Y-2.4134
X8.0224Y-2.5134
X8.0224Y-2.6134
X8.0224Y-2.7134
X8.0224Y-2.8134
X8.0224Y-2.9134
X8.0224Y-3.0134
X8.0224Y-3.1134
X8.0224Y-3.2134
X8.0224Y-3.3134
X8.0224Y-3.4134
X8.0224Y-3.5134
X8.0224Y-3.6134
X8.0224Y-3.7134
X8.0224Y-3.8134
X8.0224Y-3.9134
X8.0224Y-4.0134
X8.0224Y-4.1134
X8.0224Y-4.2134
X8.0224Y-4.3134
X8.7953Y-4.5756
X8.8953Y-4.5756
X8.9953Y-4.5756
X9.0953Y-4.5756
X9.9224Y-1.9134
X9.9224Y-2.0134
X9.9224Y-2.1134
X9.9224Y-2.2134
X9.9224Y-2.3134
X9.9224Y-2.4134
X9.9224Y-2.5134
X9.9224Y-2.6134
X9.9224Y-2.7134
X9.9224Y-2.8134
X9.9224Y-2.9134
X9.9224Y-3.0134
X9.9224Y-3.1134
X9.9224Y-3.2134
X9.9224Y-3.3134
X9.9224Y-3.4134
X9.9224Y-3.5134
X9.9224Y-3.6134
X9.9224Y-3.7134
X9.9224Y-3.8134
X9.9224Y-3.9134
X9.9224Y-4.0134
X9.9224Y-4.1134
X9.9224Y-4.2134
X9.9224Y-4.3134
X10.0224Y-1.9134
X10.0224Y-2.0134
X10.0224Y-2.1134
X10.0224Y-2.2134
X10.0224Y-2.3134
X10.0224Y-2.4134
X10.0224Y-2.5134
X10.0224Y-2.6134
X10.0224Y-2.7134
X10.0224Y-2.8134
X10.0224Y-2.9134
X10.0224Y-3.0134
X10.0224Y-3.1134
X10.0224Y-3.2134
X10.0224Y-3.3134
X10.0224Y-3.4134
X10.0224Y-3.5134
X10.0224Y-3.6134
X10.0224Y-3.7134
X10.0224Y-3.8134
X10.0224Y-3.9134
X10.0224Y-4.0134
X10.0224Y-4.1134
X10.0224Y-4.2134
X10.0224Y-4.3134
T0
M30
