%TF.GenerationSoftware,KiCad,Pcbnew,(7.0.0)*%
%TF.CreationDate,2023-06-01T06:11:32-06:00*%
%TF.ProjectId,Phase_D_STM32_v1,50686173-655f-4445-9f53-544d33325f76,rev?*%
%TF.SameCoordinates,Original*%
%TF.FileFunction,Legend,Top*%
%TF.FilePolarity,Positive*%
%FSLAX46Y46*%
G04 Gerber Fmt 4.6, Leading zero omitted, Abs format (unit mm)*
G04 Created by KiCad (PCBNEW (7.0.0)) date 2023-06-01 06:11:32*
%MOMM*%
%LPD*%
G01*
G04 APERTURE LIST*
%ADD10C,0.150000*%
%ADD11C,0.127000*%
%ADD12C,0.200000*%
G04 APERTURE END LIST*
D10*
%TO.C,U1*%
X196353333Y-43064333D02*
X196353333Y-44197666D01*
X196353333Y-44197666D02*
X196420000Y-44331000D01*
X196420000Y-44331000D02*
X196486666Y-44397666D01*
X196486666Y-44397666D02*
X196620000Y-44464333D01*
X196620000Y-44464333D02*
X196886666Y-44464333D01*
X196886666Y-44464333D02*
X197020000Y-44397666D01*
X197020000Y-44397666D02*
X197086666Y-44331000D01*
X197086666Y-44331000D02*
X197153333Y-44197666D01*
X197153333Y-44197666D02*
X197153333Y-43064333D01*
X198553333Y-44464333D02*
X197753333Y-44464333D01*
X198153333Y-44464333D02*
X198153333Y-43064333D01*
X198153333Y-43064333D02*
X198020000Y-43264333D01*
X198020000Y-43264333D02*
X197886667Y-43397666D01*
X197886667Y-43397666D02*
X197753333Y-43464333D01*
D11*
X194880000Y-46490000D02*
X194880000Y-112530000D01*
X194880000Y-112530000D02*
X260880000Y-112530000D01*
X260900000Y-46490000D02*
X194880000Y-46490000D01*
X260900000Y-112530000D02*
X260900000Y-46490000D01*
D12*
X199000000Y-48660000D02*
G75*
G03*
X199000000Y-48660000I-100000J0D01*
G01*
X250000000Y-48660000D02*
G75*
G03*
X250000000Y-48660000I-100000J0D01*
G01*
%TD*%
M02*
