%TF.GenerationSoftware,KiCad,Pcbnew,(7.0.0)*%
%TF.CreationDate,2023-04-13T01:56:38-06:00*%
%TF.ProjectId,Phase_A_UnoShield,50686173-655f-4415-9f55-6e6f53686965,1.0*%
%TF.SameCoordinates,Original*%
%TF.FileFunction,Soldermask,Top*%
%TF.FilePolarity,Negative*%
%FSLAX46Y46*%
G04 Gerber Fmt 4.6, Leading zero omitted, Abs format (unit mm)*
G04 Created by KiCad (PCBNEW (7.0.0)) date 2023-04-13 01:56:38*
%MOMM*%
%LPD*%
G01*
G04 APERTURE LIST*
%ADD10R,1.700000X1.700000*%
%ADD11O,1.700000X1.700000*%
%ADD12R,2.000000X2.000000*%
%ADD13C,2.000000*%
%ADD14C,1.600000*%
%ADD15O,1.600000X1.600000*%
%ADD16O,3.048000X1.850000*%
%ADD17R,1.800000X1.800000*%
%ADD18C,1.800000*%
%ADD19R,2.400000X1.600000*%
%ADD20O,2.400000X1.600000*%
%ADD21R,1.500000X1.500000*%
%ADD22C,1.500000*%
G04 APERTURE END LIST*
D10*
%TO.C,J1*%
X127939999Y-97459999D03*
D11*
X130479999Y-97459999D03*
X133019999Y-97459999D03*
X135559999Y-97459999D03*
X138099999Y-97459999D03*
X140639999Y-97459999D03*
X143179999Y-97459999D03*
X145719999Y-97459999D03*
%TD*%
D10*
%TO.C,J3*%
X150799999Y-97459999D03*
D11*
X153339999Y-97459999D03*
X155879999Y-97459999D03*
X158419999Y-97459999D03*
X160959999Y-97459999D03*
X163499999Y-97459999D03*
%TD*%
D10*
%TO.C,J2*%
X118795999Y-49199999D03*
D11*
X121335999Y-49199999D03*
X123875999Y-49199999D03*
X126415999Y-49199999D03*
X128955999Y-49199999D03*
X131495999Y-49199999D03*
X134035999Y-49199999D03*
X136575999Y-49199999D03*
X139115999Y-49199999D03*
X141655999Y-49199999D03*
%TD*%
D10*
%TO.C,J4*%
X145719999Y-49199999D03*
D11*
X148259999Y-49199999D03*
X150799999Y-49199999D03*
X153339999Y-49199999D03*
X155879999Y-49199999D03*
X158419999Y-49199999D03*
X160959999Y-49199999D03*
X163499999Y-49199999D03*
%TD*%
D12*
%TO.C,LS1*%
X180349999Y-53593999D03*
D13*
X187950000Y-53594000D03*
%TD*%
D14*
%TO.C,R3*%
X156637000Y-55550000D03*
D15*
X156636999Y-65709999D03*
%TD*%
D14*
%TO.C,R4*%
X167813000Y-55296000D03*
D15*
X167812999Y-65455999D03*
%TD*%
D14*
%TO.C,R2*%
X112827000Y-91872000D03*
D15*
X122986999Y-91871999D03*
%TD*%
D16*
%TO.C,SW1*%
X134035999Y-80481999D03*
X146535999Y-80481999D03*
X134035999Y-85481999D03*
X146535999Y-85481999D03*
%TD*%
D17*
%TO.C,D2*%
X174167999Y-60375999D03*
D18*
X171628000Y-60376000D03*
%TD*%
D14*
%TO.C,R1*%
X134036000Y-91872000D03*
D15*
X144195999Y-91871999D03*
%TD*%
D14*
%TO.C,R12*%
X168148000Y-91948000D03*
D15*
X157987999Y-91947999D03*
%TD*%
D14*
%TO.C,R10*%
X168148000Y-85547200D03*
D15*
X157987999Y-85547199D03*
%TD*%
D14*
%TO.C,R8*%
X168148000Y-78994000D03*
D15*
X157987999Y-78993999D03*
%TD*%
D16*
%TO.C,SW2*%
X112809999Y-80481999D03*
X125309999Y-80481999D03*
X112809999Y-85481999D03*
X125309999Y-85481999D03*
%TD*%
D17*
%TO.C,D1*%
X162991999Y-60629999D03*
D18*
X160452000Y-60630000D03*
%TD*%
D14*
%TO.C,R5*%
X174498000Y-68580000D03*
D15*
X164337999Y-68579999D03*
%TD*%
D14*
%TO.C,R7*%
X168148000Y-75692000D03*
D15*
X157987999Y-75691999D03*
%TD*%
D19*
%TO.C,U2*%
X173659999Y-73583999D03*
D20*
X173659999Y-76123999D03*
X173659999Y-78663999D03*
X173659999Y-81203999D03*
X173659999Y-83743999D03*
X173659999Y-86283999D03*
X173659999Y-88823999D03*
X173659999Y-91363999D03*
X181279999Y-91363999D03*
X181279999Y-88823999D03*
X181279999Y-86283999D03*
X181279999Y-83743999D03*
X181279999Y-81203999D03*
X181279999Y-78663999D03*
X181279999Y-76123999D03*
X181279999Y-73583999D03*
%TD*%
D14*
%TO.C,R11*%
X168148000Y-88773000D03*
D15*
X157987999Y-88772999D03*
%TD*%
D14*
%TO.C,R6*%
X168148000Y-72390000D03*
D15*
X157987999Y-72389999D03*
%TD*%
D14*
%TO.C,R9*%
X168148000Y-82296000D03*
D15*
X157987999Y-82295999D03*
%TD*%
D21*
%TO.C,U1*%
X122097999Y-70789999D03*
D22*
X124638000Y-70790000D03*
X127178000Y-70790000D03*
X129718000Y-70790000D03*
X132258000Y-70790000D03*
X134798000Y-70790000D03*
X134798000Y-55550000D03*
X132258000Y-55550000D03*
X129718000Y-55550000D03*
X127178000Y-55550000D03*
X124638000Y-55550000D03*
X122098000Y-55550000D03*
%TD*%
M02*
