M48
; DRILL file {KiCad (7.0.0)} date Fri Apr 21 02:36:54 2023
; FORMAT={-:-/ absolute / inch / decimal}
; #@! TF.CreationDate,2023-04-21T02:36:54-06:00
; #@! TF.GenerationSoftware,Kicad,Pcbnew,(7.0.0)
; #@! TF.FileFunction,Plated,1,2,PTH
FMAT,2
INCH
; #@! TA.AperFunction,Plated,PTH,ViaDrill
T1C0.0157
; #@! TA.AperFunction,Plated,PTH,ComponentDrill
T2C0.0394
%
G90
G05
T1
X2.3061Y-2.689
X2.4833Y-3.0433
X2.562Y-3.2667
X2.5906Y-2.0984
X2.5906Y-2.1575
X2.5906Y-2.2165
X2.5906Y-2.2756
X2.5906Y-2.3346
X2.5906Y-2.3937
X2.5906Y-2.4528
X2.5906Y-2.5315
X2.7392Y-3.2992
X2.748Y-2.4887
X2.7982Y-2.0591
X2.8179Y-3.2667
X2.8455Y-2.8071
X2.8455Y-3.0433
X2.8573Y-2.0394
X2.8573Y-2.4049
X2.8967Y-2.9921
X2.9343Y-2.3764
X2.9615Y-2.0552
X3.0148Y-2.374
X3.0408Y-2.282
X3.0428Y-2.1772
X3.0541Y-3.0433
X3.0541Y-3.4961
X3.0602Y-2.7498
X3.0713Y-2.2559
X3.0999Y-2.2229
X3.1132Y-3.6929
X3.1211Y-2.7283
X3.124Y-2.0482
X3.1311Y-2.1917
X3.1526Y-1.9912
X3.1589Y-2.1638
X3.1919Y-2.0591
X3.1919Y-2.1378
X3.2116Y-3.6929
X3.2313Y-2.748
X3.2904Y-3.0236
X3.31Y-3.2087
X3.31Y-3.5157
X3.3179Y-3.4567
X3.3297Y-2.8661
X3.3376Y-3.5945
X3.3888Y-3.3189
X3.4085Y-3.4764
X3.4478Y-3.6339
X3.5069Y-3.6339
X3.5453Y-3.1496
X3.5659Y-3.378
X3.5695Y-3.1806
X3.5856Y-2.8661
X3.6191Y-3.3238
X3.625Y-2.9134
X3.6329Y-3.3868
X3.7037Y-2.2057
X3.7409Y-3.1033
X3.7431Y-2.8858
X3.7431Y-3.2008
X3.7589Y-3.0405
X3.7768Y-3.0755
X3.7933Y-2.9134
X3.8022Y-3.2087
X3.8219Y-2.8346
X3.8219Y-3.0118
X3.83Y-3.1801
X3.8612Y-2.9773
X3.8719Y-3.1418
X3.9073Y-3.0776
X3.9109Y-3.0222
X3.9171Y-2.9102
X4.036Y-2.6205
X4.0384Y-2.126
X4.1959Y-2.8937
X4.314Y-2.8937
X4.373Y-2.8268
X4.5108Y-2.5984
X4.6093Y-2.126
X4.688Y-2.0079
X4.7077Y-2.7953
X4.7278Y-2.0074
X4.747Y-2.8346
X4.9439Y-2.8268
X5.6526Y-2.5118
X5.6526Y-2.7677
T2
X2.9049Y-3.1998
X2.9049Y-3.2998
X2.9049Y-3.3998
X3.0049Y-3.1998
X3.0049Y-3.2998
X3.0049Y-3.3998
X3.899Y-3.3583
X3.899Y-3.4583
X3.899Y-3.5583
X3.899Y-3.6583
X3.999Y-3.3583
X3.999Y-3.4583
X3.999Y-3.5583
X3.999Y-3.6583
X4.123Y-2.0684
X4.123Y-2.6684
X4.223Y-2.0684
X4.223Y-2.6684
X4.323Y-2.0684
X4.323Y-2.6684
X4.423Y-2.0684
X4.423Y-2.6684
X4.523Y-2.0684
X4.523Y-2.6684
X4.623Y-2.0684
X4.623Y-2.6684
X5.3258Y-3.122
X5.625Y-3.122
T0
M30
